<svg xmlns="http://www.w3.org/2000/svg" xmlns:xlink="http://www.w3.org/1999/xlink" viewBox="0 0 428.34 335.73"><defs><style>.cls-1{fill:#227582;}.cls-2{fill:#3d8f9c;}.cls-3{fill:none;}.cls-4{fill:#f1a787;}.cls-5{fill:#f1bb95;}.cls-6{fill:#e0870b;}.cls-7{fill:#c4c7c3;}.cls-8{fill:#53a9ad;}.cls-9{isolation:isolate;}.cls-10{fill:#94907a;}.cls-11{fill:#e8e2c0;}.cls-12{fill:#bdcc12;}.cls-13{fill:#cfc699;}.cls-14{fill:#b5a974;}.cls-15{fill:#dae3a3;}.cls-15,.cls-75,.cls-77,.cls-82{mix-blend-mode:multiply;}.cls-16{fill:#a8a8a8;}.cls-17{fill:#ededed;}.cls-18{fill:#6e5535;}.cls-19{fill:#c7c7c7;}.cls-20{fill:#8f5100;}.cls-21{fill:#778f00;}.cls-22{fill:#abc90e;}.cls-23{fill:#667a00;}.cls-24{fill:#8ca800;}.cls-25{fill:#ccc099;}.cls-26{fill:#d9e8ff;}.cls-27{clip-path:url(#clip-path);}.cls-28{fill:#3b6097;}.cls-29{fill:#fff;}.cls-30{fill:#d9cbc8;}.cls-31{fill:#e0d9d7;}.cls-32{fill:#e0d8bf;}.cls-33{fill:#f0ebdc;}.cls-34{fill:#998471;}.cls-35{clip-path:url(#clip-path-2);}.cls-36{fill:#d9cda7;}.cls-37{clip-path:url(#clip-path-3);}.cls-38{clip-path:url(#clip-path-4);}.cls-39{clip-path:url(#clip-path-5);}.cls-40{fill:#56b1bf;}.cls-41{clip-path:url(#clip-path-6);}.cls-42{fill:#e3dbc0;}.cls-43{fill:#6e5b4b;}.cls-44{clip-path:url(#clip-path-7);}.cls-45{fill:#eb9b7a;}.cls-46{fill:#e69278;}.cls-47{clip-path:url(#clip-path-8);}.cls-48{fill:#e89a78;}.cls-49{clip-path:url(#clip-path-9);}.cls-50{fill:#eba681;}.cls-51{clip-path:url(#clip-path-10);}.cls-52{clip-path:url(#clip-path-11);}.cls-53,.cls-59{fill:#806320;}.cls-53,.cls-58{mix-blend-mode:screen;}.cls-54{fill:#d17613;}.cls-55{fill:#ebac17;}.cls-56{fill:#ffdb6e;}.cls-57{clip-path:url(#clip-path-12);}.cls-60{fill:#fccaa7;}.cls-61{clip-path:url(#clip-path-13);}.cls-62{clip-path:url(#clip-path-14);}.cls-63{clip-path:url(#clip-path-15);}.cls-64{fill:#f7c39e;}.cls-65{fill:#ede8da;}.cls-66{fill:#736c6c;}.cls-67{fill:#9f9595;}.cls-68{fill:#b3adad;}.cls-69{fill:#c2b6b6;}.cls-70{fill:#d1c1bd;}.cls-71{fill:#f7e8e8;}.cls-72{clip-path:url(#clip-path-16);}.cls-73{fill:#d9cfb0;}.cls-74{fill:#e3dcc3;}.cls-75{fill:#ded6bc;}.cls-76{clip-path:url(#clip-path-17);}.cls-77{fill:#c5cf8e;}.cls-78{fill:#bfa7a1;}.cls-79{fill:#005dc7;}.cls-80{fill:#fff7e0;}.cls-81{clip-path:url(#clip-path-18);}.cls-82{fill:#d1c4c4;}.cls-83{fill:#8a8680;}.cls-84{fill:#524f48;}.cls-85{fill:#312f2b;}.cls-86{fill:#aba087;}.cls-87{fill:#6e6a60;}.cls-88{fill:#dbdbdb;}.cls-89{fill:#c2c1c0;}.cls-90{fill:#a1946a;}.cls-91{fill:#bab5ad;}.cls-92{fill:#827d72;}.cls-93{fill:#5c5851;}.cls-94{fill:#615d55;}.cls-95{fill:#adaaa8;}.cls-96{fill:#5e5b53;}.cls-97{fill:#383632;}.cls-98{fill:#3d3b36;}.cls-99{clip-path:url(#clip-path-19);}.cls-100{clip-path:url(#clip-path-20);}.cls-101{fill:#0f757a;}.cls-102{clip-path:url(#clip-path-21);}.cls-103{fill:#62bfc4;}.cls-104{fill:#d0d1d4;}.cls-105{fill:#b0b3bd;}</style><clipPath id="clip-path"><polygon class="cls-1" points="201.68 165.86 135.02 204.34 135.02 177.44 201.68 138.96 201.68 165.86"/></clipPath><clipPath id="clip-path-2"><polygon class="cls-3" points="276.86 291.33 131.18 207.23 131.18 102.48 276.86 186.59 276.86 291.33"/></clipPath><clipPath id="clip-path-3"><polygon class="cls-2" points="156.26 180.18 156.26 194.1 137.48 183.26 137.48 210.72 156.26 221.56 169.06 228.96 196.54 244.82 196.54 203.43 156.26 180.18"/></clipPath><clipPath id="clip-path-4"><polygon class="cls-2" points="252.61 235.8 252.61 249.73 271.38 260.57 271.38 288.03 252.61 277.19 239.81 269.8 212.33 253.94 212.33 212.55 252.61 235.8"/></clipPath><clipPath id="clip-path-5"><polygon class="cls-2" points="219.75 210.13 219.75 179.19 189.82 161.91 189.82 192.85 183.67 189.3 183.67 236.89 225.91 261.27 225.91 213.69 219.75 210.13"/></clipPath><clipPath id="clip-path-6"><polygon class="cls-3" points="219.75 210.13 219.75 179.19 189.82 161.91 189.82 192.85 183.67 189.3 183.67 236.89 225.91 261.27 225.91 213.69 219.75 210.13"/></clipPath><clipPath id="clip-path-7"><path class="cls-4" d="M214.2,53.93s1.57,11.66,2,15.75a88.61,88.61,0,0,1-.08,11.11s1.9,6.36,7.88,6.86,8.58-2.7,9.08-7.79S231,55.32,228,52.13s-9.87-4.69-9.87-4.69Z"/></clipPath><clipPath id="clip-path-8"><path class="cls-5" d="M228.16,24.6l.82.75s4.47,8.22,8.06,13.81,8.38,14.57,9.28,19.46.6,27.53-.5,31.62-10.17,8.88-13.17,5.29-1.89-17.16-2.29-19.26-1.7-11.87-2.4-13.46-3.19-6.79-6.18-8.38-7.24.13-8.13,1.53-5.14-14.2-1.75-21.69S228.16,24.6,228.16,24.6Z"/></clipPath><clipPath id="clip-path-9"><path class="cls-3" d="M228.16,24.6l.82.75s4.47,8.22,8.06,13.81,8.38,14.57,9.28,19.46.6,27.53-.5,31.62-10.17,8.88-13.17,5.29-1.89-17.16-2.29-19.26-1.7-11.87-2.4-13.46-3.19-6.79-6.18-8.38-7.24.13-8.13,1.53-5.14-14.2-1.75-21.69S228.16,24.6,228.16,24.6Z"/></clipPath><clipPath id="clip-path-10"><path class="cls-3" d="M238.79,62.67c-25.9,1.63-39.21,29.64-34.07,52.05,2.58,11.29,4,16,9.1,17.74,0,0-.8,2.76,1.56,1.4-1.13,1.22.59.88-.49,2.17-.78.94-1.56,1.91-2.32,2.87a1.57,1.57,0,0,0,.45,2.32l6.2,3.58a.56.56,0,0,0,.7-.14c.7-.89,1.41-1.77,2.13-2.63a82.49,82.49,0,0,1,22.15-19c6.45-3.64,13.07-6.6,18.69-7a.75.75,0,0,0,.35-1.37l-3.86-2.53,2.12,1.39,4.06.2c3.53-5.11,6.43-10.39,7.08-14.19C274.27,90,264.7,61,238.79,62.67Zm-11.58,60.94.09-.08Zm-3.93,3.51,0,0Zm15.07-11.48-.21.12Zm-1.42.86-.23.14Zm-1.46.93-.11.07Zm-1.33.89-.11.08Zm-1.36,1-.18.13Zm-1.42,1-.12.09Zm-2.7,2.1-.1.08Zm13.36-8.8c-.8.41-1.6.84-2.41,1.3.81-.46,1.61-.89,2.41-1.3l1.61-.79Zm12.25-4.22a4.51,4.51,0,0,1,.95.22A4.51,4.51,0,0,0,254.27,109.39Z"/></clipPath><clipPath id="clip-path-11"><path class="cls-6" d="M255.85,82.35l-6.5-3.76c-4.08-2.71-9.89-2.51-16.34,1.21-12.32,7.12-22.31,24.42-22.31,38.65,0,7.53,2.79,12.68,7.24,14.82l7.15,4.2,1.76-3.57a23.7,23.7,0,0,0,6.16-2.56c12.33-7.12,22.32-24.42,22.32-38.65a21.28,21.28,0,0,0-1.8-9.12Z"/></clipPath><clipPath id="clip-path-12"><path class="cls-3" d="M262.16,96.66c0,14.24-10,31.54-22.31,38.66s-22.32,1.34-22.32-12.89,10-31.53,22.32-38.65S262.16,82.43,262.16,96.66Z"/></clipPath><clipPath id="clip-path-13"><path class="cls-3" d="M246.45,97.15a14.07,14.07,0,0,0-5.09-9.58c-5-4.34-7.78-5-13-6.36s-15.93-4.41-18.93-6.58,2.1-15.86,3.89-18.11,8.43-6,8.43-6,9.87-19.75,7.18-25.14-8.5-11-13.14-10.28-6,1.05-6,1.05a14.11,14.11,0,0,0-8.23-6c-5.54-1.35-10.18.9-12,1.8s-6.44,1.79-8.83,2.09S165,20.91,159.73,22.4s-23.95,9.73-38.46,10.18a66.28,66.28,0,0,0-17.61,3.3A16.84,16.84,0,0,0,91.93,51.73l-.46,38.72s37.43-8.34,48.65-5.2,16.46,10.33,32.78,11.82,19.6-2.39,33.22-.89S230.21,104,235,104,246.07,103.81,246.45,97.15Z"/></clipPath><clipPath id="clip-path-14"><path class="cls-3" d="M91.79,63.8a22,22,0,0,0,25,22.11c9.27-1.27,18.64-2,23.36-.66,11.23,3.14,16.46,10.33,32.78,11.82s19.6-2.39,33.22-.89S230.21,104,235,104s11.07-.15,11.45-6.81A12.79,12.79,0,0,0,244.91,92a5.12,5.12,0,0,0,.91-1.76c1.1-4.09,1.4-26.74.5-31.62S240.63,44.75,237,39.16,229,25.35,229,25.35c-2.69-5.39-8.5-11-13.14-10.28s-6,1.05-6,1.05a14.11,14.11,0,0,0-8.23-6c-5.54-1.35-10.18.9-12,1.8s-6.44,1.79-8.83,2.09S165,20.91,159.73,22.4s-23.95,9.73-38.46,10.18a52.76,52.76,0,0,0-7.35.76A26.57,26.57,0,0,0,91.84,59.22Zm121.58-7.28a13.14,13.14,0,0,1,2.16-2,7.33,7.33,0,0,1,6.25-.14c3,1.59,5.49,6.78,6.18,8.38s2,11.37,2.4,13.46c.14.74.1,2.87.11,5.48l-2.06-.54c-5.16-1.35-15.93-4.41-18.93-6.58S211.58,58.77,213.37,56.52Z"/></clipPath><clipPath id="clip-path-15"><path class="cls-3" d="M246.45,97.15a14.07,14.07,0,0,0-5.09-9.58c-5-4.34-7.78-5-13-6.36s-15.93-4.41-18.93-6.58,2.1-15.86,3.89-18.11,8.43-6,8.43-6,9.87-19.75,7.18-25.14-8.5-11-13.14-10.28-6,1.05-6,1.05a14.11,14.11,0,0,0-8.23-6c-5.54-1.35-10.18.9-12,1.8s-6.44,1.79-8.83,2.09S165,20.91,159.73,22.4s-23.95,9.73-38.46,10.18a52.76,52.76,0,0,0-7.35.76A26.57,26.57,0,0,0,91.84,59.22l0,4.58a22,22,0,0,0,25,22.11c9.27-1.27,18.64-2,23.36-.66,11.23,3.14,16.46,10.33,32.78,11.82s19.6-2.39,33.22-.89S230.21,104,235,104,246.07,103.81,246.45,97.15Z"/></clipPath><clipPath id="clip-path-16"><path class="cls-3" d="M204.15,120.2c-6-3.46-11.41-3.65-15.23-1.18l-9.43,5.41,4,4.29a25.22,25.22,0,0,0-.25,3.57V145.6a52.8,52.8,0,0,1,9.34,5.63c10.58,7.46,21.46,14.44,32.52,21.15V156.45C225.08,143.13,215.69,126.87,204.15,120.2Z"/></clipPath><clipPath id="clip-path-17"><polygon class="cls-3" points="258.72 329.43 72.36 221.63 206.01 143.76 392.36 251.56 258.72 329.43"/></clipPath><clipPath id="clip-path-18"><polygon class="cls-1" points="347.35 249.97 280.7 288.45 280.7 261.55 347.35 223.06 347.35 249.97"/></clipPath><clipPath id="clip-path-19"><polygon class="cls-7" points="213.84 255.2 189.77 241.31 189.77 207.71 213.84 221.6 213.84 255.2"/></clipPath><clipPath id="clip-path-20"><path class="cls-3" d="M211.91,254.16l-20.24-11.69v-25.3l20.24,11.68Zm-17-9.51,13.77,7.95V231.1l-13.77-7.95Z"/></clipPath><clipPath id="clip-path-21"><polygon class="cls-8" points="206.9 251.16 196.52 245.17 196.52 236.51 206.9 242.5 206.9 251.16"/></clipPath></defs><title>bankaccount</title><g class="cls-9"><g id="Layer_2" data-name="Layer 2"><g id="Ñëîé_3" data-name="Ñëîé 3"><polygon class="cls-10" points="258.72 335.73 72.36 227.93 206.01 150.07 392.36 257.87 258.72 335.73"/><polygon class="cls-11" points="258.72 329.43 72.36 221.63 206.01 143.76 392.36 251.56 258.72 329.43"/><polygon class="cls-12" points="381.97 251.56 258.72 323.43 82.76 221.63 206.01 149.77 381.97 251.56"/><polygon class="cls-13" points="72.36 221.63 72.36 227.93 258.72 335.73 258.72 329.43 72.36 221.63"/><polygon class="cls-14" points="392.36 251.56 392.36 257.87 258.72 335.73 258.72 329.43 392.36 251.56"/><path class="cls-15" d="M149.76,230.78l-11.64-1.25-3.91.17v0a9.24,9.24,0,0,0-5.51.81l-13.52-2-.91,1L126,231.2c-.75,1.75-.64,1.88-.56,2s.14.17,2.92.86l0,.62,10.11,3.24,5.39.52,4.49-1.88,2.56-2.08.39-2.52Zm-17.2-.75-1.76.75-1.22-.17A9.19,9.19,0,0,1,132.56,230Zm-6.73,2.85a15.45,15.45,0,0,1,.61-1.61l3,.45-1.19,1.11,0,.72C127.16,233.26,126.17,233,125.83,232.88Z"/><ellipse class="cls-16" cx="115.02" cy="228.39" rx="6.04" ry="3.48"/><ellipse class="cls-17" cx="115.02" cy="226.32" rx="6.04" ry="3.48"/><path class="cls-18" d="M118.35,224.4c1.83,1.06,1.83,2.78,0,3.84a7.37,7.37,0,0,1-6.66,0c-1.84-1.06-1.84-2.78,0-3.84A7.31,7.31,0,0,1,118.35,224.4Z"/><path class="cls-19" d="M111.91,225.81a7.37,7.37,0,0,1,6.66,0,3,3,0,0,1,1.08,1c.26-.85-.18-1.74-1.3-2.39a7.31,7.31,0,0,0-6.66,0c-1.34.77-1.7,1.9-1.09,2.86A2.67,2.67,0,0,1,111.91,225.81Z"/><path class="cls-20" d="M114.72,217.68a12.63,12.63,0,0,1-2.52-.57c-1.5-.51-1.71-.92-1.72-1.23,0-.55,0-5.22,0-5.42l.82,0c0,1.61-.07,4.69,0,5.3a3.94,3.94,0,0,0,1.35.61,11.21,11.21,0,0,0,2.15.47Z"/><path class="cls-20" d="M115.66,215.47l-.15-.51c.57-.17,2.12-.77,2.46-1.43a10,10,0,0,0,.43-3.16h.53a10.51,10.51,0,0,1-.49,3.41,3.41,3.41,0,0,1-1.61,1.24A7.93,7.93,0,0,1,115.66,215.47Zm-.07-.25-.08-.26Z"/><rect class="cls-20" x="114.22" y="209.83" width="1.69" height="16.79"/><polygon class="cls-21" points="105 192.07 105.29 201.31 106.88 206.75 108.01 210.6 111.04 212.55 116.89 212.86 122.13 210.65 123.83 203.87 124.2 194.18 105 192.07"/><polygon class="cls-22" points="105 192.07 107.14 197.2 115.62 198.97 124.2 194.18 123 189.94 116.78 187.84 112.29 187.81 105 192.07"/><path class="cls-23" d="M115.62,199l.79,7.43.48,6.45s5.15-1.9,5.24-2.21,1.69-6.78,1.69-6.78l.38-9.69Z"/><polygon class="cls-24" points="107.14 197.2 105.45 201.65 108.01 210.6 111.04 212.55 107.14 197.2"/><polygon class="cls-21" points="107.14 197.2 115.62 198.97 116.89 212.86 111.04 212.55 107.14 197.2"/><path class="cls-20" d="M116,226.65c0,.23-.42.41-.94.41s-.93-.18-.93-.41.42-.4.93-.4S116,226.43,116,226.65Z"/><polygon class="cls-25" points="204.06 165.14 131.18 207.22 131.18 102.48 204.06 60.4 204.06 165.14"/><polygon class="cls-26" points="134.51 205.23 134.51 177.14 202.19 138.07 202.19 166.16 134.51 205.23"/><polygon class="cls-1" points="201.68 165.86 135.02 204.34 135.02 177.44 201.68 138.96 201.68 165.86"/><g class="cls-27"><polygon class="cls-26" points="134.56 221.29 135.02 221.03 135.02 125.9 134.56 126.17 134.56 221.29"/><polygon class="cls-26" points="141.28 217.61 141.73 217.35 141.73 122.22 141.27 122.48 141.28 217.61"/><polygon class="cls-26" points="147.99 213.93 148.44 213.66 148.44 118.53 147.99 118.8 147.99 213.93"/><polygon class="cls-26" points="154.7 210.24 155.15 209.98 155.15 114.85 154.7 115.11 154.7 210.24"/><polygon class="cls-26" points="161.41 206.56 161.86 206.29 161.86 111.17 161.41 111.43 161.41 206.56"/><polygon class="cls-26" points="168.12 202.87 168.57 202.61 168.57 107.48 168.12 107.75 168.12 202.87"/><polygon class="cls-26" points="174.83 199.19 175.28 198.93 175.28 103.8 174.83 104.06 174.83 199.19"/><polygon class="cls-26" points="181.54 195.51 182 195.24 181.99 100.11 181.54 100.38 181.54 195.51"/><polygon class="cls-26" points="188.25 191.82 188.71 191.56 188.71 96.43 188.25 96.69 188.25 191.82"/><polygon class="cls-26" points="194.96 188.14 195.42 187.88 195.42 92.75 194.96 93.01 194.96 188.14"/><polygon class="cls-26" points="201.67 184.46 202.13 184.19 202.13 89.06 201.67 89.33 201.67 184.46"/><polygon class="cls-26" points="208.23 148.72 208.23 148.19 125.84 195.75 125.84 196.28 208.23 148.72"/></g><polygon class="cls-28" points="144.55 115.04 152.06 110.71 152.06 102.04 144.55 106.37 144.55 115.04"/><polygon class="cls-28" points="162.65 124.05 170.16 119.71 170.16 111.04 162.65 115.37 162.65 124.05"/><polygon class="cls-28" points="180.06 137.78 187.56 133.44 187.56 124.77 180.06 129.1 180.06 137.78"/><polygon class="cls-29" points="152.72 111.04 152.72 101 144.02 106.02 144.02 116.06 152.72 111.04"/><polygon class="cls-1" points="144.61 115.03 152.12 110.7 152.12 102.02 144.61 106.36 144.61 115.03"/><polygon class="cls-30" points="150.56 109.79 150.56 102.92 152.12 102.02 152.12 110.7 144.61 115.03 144.61 113.23 150.56 109.79"/><polygon class="cls-31" points="152.12 110.7 150.56 109.79 144.61 113.23 144.61 115.03 152.12 110.7"/><polygon class="cls-29" points="170.75 120.06 170.75 110.02 162.06 115.04 162.06 125.07 170.75 120.06"/><polygon class="cls-1" points="162.65 124.05 170.16 119.71 170.16 111.04 162.65 115.38 162.65 124.05"/><polygon class="cls-30" points="168.6 118.81 168.6 111.94 170.16 111.04 170.16 119.71 162.65 124.05 162.65 122.25 168.6 118.81"/><polygon class="cls-31" points="170.16 119.71 168.6 118.81 162.65 122.25 162.65 124.05 170.16 119.71"/><polygon class="cls-29" points="188.19 133.85 188.19 123.81 179.5 128.83 179.5 138.87 188.19 133.85"/><polygon class="cls-1" points="180.09 137.85 187.6 133.51 187.6 124.84 180.09 129.17 180.09 137.85"/><polygon class="cls-30" points="186.04 132.61 186.04 125.74 187.6 124.84 187.6 133.51 180.09 137.85 180.09 136.04 186.04 132.61"/><polygon class="cls-31" points="187.6 133.51 186.04 132.61 180.09 136.04 180.09 137.85 187.6 133.51"/><polygon class="cls-11" points="210.89 248.94 166.52 274.57 154.91 267.87 199.29 242.24 210.89 248.94"/><polygon class="cls-32" points="276.86 291.33 131.18 207.23 131.18 102.48 276.86 186.59 276.86 291.33"/><polygon class="cls-33" points="204.06 60.4 349.74 144.51 276.86 186.59 131.18 102.48 204.06 60.4"/><polygon class="cls-34" points="138.67 102.48 204.06 64.73 342.25 144.51 276.86 182.26 138.67 102.48"/><g class="cls-35"><rect class="cls-36" x="110.6" y="87.05" width="66.22" height="180.54"/></g><polygon class="cls-26" points="136.97 211.02 136.97 182.38 155.75 193.22 155.75 179.29 197.05 203.14 197.05 245.71 136.97 211.02"/><polygon class="cls-2" points="156.26 180.18 156.26 194.1 137.48 183.26 137.48 210.72 156.26 221.56 169.06 228.96 196.54 244.82 196.54 203.43 156.26 180.18"/><g class="cls-37"><polygon class="cls-26" points="144.03 225.05 143.57 224.79 143.58 129.66 144.03 129.92 144.03 225.05"/><polygon class="cls-26" points="150.15 228.58 149.69 228.32 149.7 133.19 150.15 133.46 150.15 228.58"/><polygon class="cls-26" points="156.27 232.12 155.81 231.85 155.82 136.73 156.27 136.99 156.27 232.12"/><polygon class="cls-26" points="162.39 235.65 161.94 235.39 161.94 140.26 162.39 140.52 162.39 235.65"/><polygon class="cls-26" points="168.51 239.18 168.06 238.92 168.06 143.79 168.51 144.06 168.51 239.18"/><polygon class="cls-26" points="174.63 242.72 174.18 242.46 174.18 147.33 174.63 147.59 174.63 242.72"/><polygon class="cls-26" points="120.47 159.49 120.47 158.96 202.85 206.53 202.85 207.05 120.47 159.49"/><polygon class="cls-26" points="120.47 173.44 120.47 172.92 202.85 220.48 202.85 221.01 120.47 173.44"/><polygon class="cls-26" points="119.96 186.72 119.96 186.2 202.34 233.76 202.34 234.28 119.96 186.72"/><polygon class="cls-26" points="119.96 200.67 119.96 200.15 202.34 247.71 202.34 248.24 119.96 200.67"/></g><polygon class="cls-26" points="271.9 288.92 271.9 260.27 253.12 249.44 253.12 235.51 211.81 211.66 211.81 254.23 271.9 288.92"/><polygon class="cls-2" points="252.61 235.8 252.61 249.73 271.38 260.57 271.38 288.03 252.61 277.19 239.81 269.8 212.33 253.94 212.33 212.55 252.61 235.8"/><g class="cls-38"><polygon class="cls-26" points="264.83 294.8 265.29 295.06 265.29 199.93 264.84 199.67 264.83 294.8"/><polygon class="cls-26" points="258.71 291.26 259.17 291.52 259.17 196.4 258.72 196.13 258.71 291.26"/><polygon class="cls-26" points="252.59 287.73 253.05 287.99 253.05 192.86 252.59 192.6 252.59 287.73"/><polygon class="cls-26" points="246.47 284.19 246.93 284.46 246.93 189.33 246.47 189.07 246.47 284.19"/><polygon class="cls-26" points="240.35 280.66 240.81 280.92 240.81 185.79 240.35 185.53 240.35 280.66"/><polygon class="cls-26" points="234.23 277.13 234.69 277.39 234.69 182.26 234.23 182 234.23 277.13"/><polygon class="cls-26" points="288.4 256.44 288.4 255.91 206.01 208.35 206.01 208.88 288.4 256.44"/><polygon class="cls-26" points="288.4 270.39 288.4 269.87 206.01 222.3 206.01 222.83 288.4 270.39"/><polygon class="cls-26" points="288.91 284.26 288.91 283.74 206.52 236.17 206.52 236.7 288.91 284.26"/><polygon class="cls-26" points="288.91 298.21 288.91 297.69 206.52 250.13 206.52 250.65 288.91 298.21"/></g><polygon class="cls-26" points="183.15 237.18 183.16 188.41 189.31 191.97 189.31 161.02 220.26 178.89 220.26 209.84 226.42 213.39 226.42 262.16 183.15 237.18"/><polygon class="cls-2" points="219.75 210.13 219.75 179.19 189.82 161.91 189.82 192.85 183.67 189.3 183.67 236.89 225.91 261.27 225.91 213.69 219.75 210.13"/><g class="cls-39"><polygon class="cls-40" points="215.16 156.63 171.89 233.93 181.36 243.54 224.89 158.4 215.16 156.63"/><polygon class="cls-40" points="224.83 168.5 186.65 244.62 187.82 245.65 228.37 177.41 224.83 168.5"/></g><g class="cls-41"><polygon class="cls-26" points="183.74 247.28 183.28 247.02 183.28 151.89 183.74 152.16 183.74 247.28"/><polygon class="cls-26" points="189.86 250.82 189.4 250.56 189.4 155.43 189.86 155.69 189.86 250.82"/><polygon class="cls-26" points="195.98 254.35 195.52 254.09 195.52 158.96 195.98 159.22 195.98 254.35"/><polygon class="cls-26" points="202.1 257.88 201.64 257.62 201.64 162.49 202.1 162.76 202.1 257.88"/><polygon class="cls-26" points="208.22 261.42 207.76 261.16 207.76 166.03 208.22 166.29 208.22 261.42"/><polygon class="cls-26" points="214.34 264.95 213.88 264.69 213.88 169.56 214.34 169.82 214.34 264.95"/><polygon class="cls-26" points="220.46 268.49 220 268.22 220 173.09 220.46 173.36 220.46 268.49"/><polygon class="cls-26" points="226.58 272.02 226.12 271.76 226.13 176.63 226.58 176.89 226.58 272.02"/><polygon class="cls-26" points="163.74 146.82 163.74 146.29 246.12 193.86 246.12 194.38 163.74 146.82"/><polygon class="cls-26" points="163.74 162.79 163.74 162.26 246.12 209.83 246.12 210.35 163.74 162.79"/><polygon class="cls-26" points="163.74 177.75 163.74 177.23 246.12 224.79 246.12 225.32 163.74 177.75"/><polygon class="cls-26" points="163.74 192.72 163.74 192.19 246.12 239.75 246.12 240.28 163.74 192.72"/><polygon class="cls-26" points="163.74 206.67 163.74 206.14 246.12 253.71 246.12 254.23 163.74 206.67"/></g><polygon class="cls-2" points="149.15 168.71 141.63 164.38 141.63 155.7 149.15 160.04 149.15 168.71"/><polygon class="cls-29" points="153.67 157.62 153.67 147.59 162.36 152.6 162.36 162.64 153.67 157.62"/><polygon class="cls-2" points="161.77 161.62 154.26 157.28 154.26 148.61 161.77 152.94 161.77 161.62"/><polygon class="cls-30" points="155.82 156.38 155.82 149.51 154.26 148.61 154.26 157.28 161.77 161.62 161.77 159.81 155.82 156.38"/><polygon class="cls-31" points="154.26 157.28 155.82 156.38 161.77 159.81 161.77 161.62 154.26 157.28"/><polygon class="cls-2" points="258.09 231.61 265.6 235.95 265.61 227.28 258.09 222.94 258.09 231.61"/><polygon class="cls-25" points="204.06 69.39 338.21 146.84 342.25 144.51 204.06 64.73 138.67 102.48 142.71 104.82 204.06 69.39"/><polygon class="cls-42" points="204.06 64.73 204.06 69.39 338.21 146.84 342.25 144.51 204.06 64.73"/><polygon class="cls-2" points="245.46 210 252.97 214.33 252.97 205.66 245.46 201.33 245.46 210"/><path class="cls-43" d="M256,110a4.92,4.92,0,0,0-3.79-.48,57.37,57.37,0,0,0-12.71,5.38A91.86,91.86,0,0,0,214.81,136c-.79.94-1.57,1.91-2.32,2.87a1.56,1.56,0,0,0,.44,2.32l6.2,3.58a.55.55,0,0,0,.7-.14c.7-.89,1.42-1.77,2.14-2.63a82.45,82.45,0,0,1,22.14-19c6.45-3.64,13.07-6.6,18.69-7a.75.75,0,0,0,.35-1.37Z"/><path class="cls-4" d="M214.2,53.93s1.57,11.66,2,15.75a88.61,88.61,0,0,1-.08,11.11s1.9,6.36,7.88,6.86,8.58-2.7,9.08-7.79S231,55.32,228,52.13s-9.87-4.69-9.87-4.69Z"/><g class="cls-44"><path class="cls-45" d="M219.2,80.88s-1.34-4.72,1.27-6.74a12.74,12.74,0,0,1-2.78-7.07,18.18,18.18,0,0,1,1.43-7.83,48.83,48.83,0,0,1-5.22-3.7C212.22,54,211.29,67.91,212,73.13S219.2,80.88,219.2,80.88Z"/><path class="cls-46" d="M212.66,55.82a28.89,28.89,0,0,1,7.3-.54c3.79.26,5.47,8.76,6.4,14.9s1.35,8.93-1.1,9a68.47,68.47,0,0,1-8.41-.84s3.53,6,8.41,6,8.68,3.79,10-4.46-1.68-16.42-1.68-16.42S227.37,51,225.69,50.91s-6.66-.09-7.92-.09S210.55,49.76,212.66,55.82Z"/></g><path class="cls-5" d="M228.16,24.6l.82.75s4.47,8.22,8.06,13.81,8.38,14.57,9.28,19.46.6,27.53-.5,31.62-10.17,8.88-13.17,5.29-1.89-17.16-2.29-19.26-1.7-11.87-2.4-13.46-3.19-6.79-6.18-8.38-7.24.13-8.13,1.53-5.14-14.2-1.75-21.69S228.16,24.6,228.16,24.6Z"/><g class="cls-47"><path class="cls-48" d="M87.11,25.47s20.65,6.88,35.17,6.43,33.22-8.68,38.46-10.17,18.7-8.08,21.1-8.38,7-1.2,8.83-2.1,6.43-3.14,12-1.79a14.07,14.07,0,0,1,8.23,6s1.34-.3,6-1c3.39-.55,7.38,2.3,10.35,6l-.58.47a13.15,13.15,0,0,0-1.75,1.75,34.56,34.56,0,0,0-4.08,5.89A46.94,46.94,0,0,0,218,35c-.56,1.62-1,3.26-1.64,4.87a22.5,22.5,0,0,1-1.74,3c-1.2,1.42-2.5,2.76-3.79,4.11a9.69,9.69,0,0,0-2.66,6.43,9.14,9.14,0,0,0,2.66,6.43,7.15,7.15,0,0,0,1.21,1c-1.85,4.9-3.52,11.63-1.5,13.09,3,2.17,13.77,5.24,18.93,6.59s7.94,2,13,6.36a14.07,14.07,0,0,1,5.09,9.58c-.38,6.65-6.66,6.8-11.45,6.8S220.74,97,207.13,95.5s-16.91,2.4-33.22.9-21.55-8.68-32.78-11.82-54.62-9.13-54.62-9.13Z"/></g><g class="cls-49"><path class="cls-50" d="M232.25,85.39s-.33-5.72,2.25-8.53A13.41,13.41,0,0,1,231,69.68a6.71,6.71,0,0,1,2.54-6.6s-3.78-.25-5.35-5.64S217.32,50.26,215,53s-4.38,3.93-5.95,8.87,2.58,12.24,4.49,13.58S230,84.83,232.25,85.39Z"/></g><g class="cls-51"><path class="cls-6" d="M255.85,82.35l-6.5-3.76c-4.08-2.71-9.89-2.51-16.34,1.21-12.32,7.12-22.31,24.42-22.31,38.65,0,7.53,2.79,12.68,7.24,14.82l7.15,4.2,1.76-3.57a23.7,23.7,0,0,0,6.16-2.56c12.33-7.12,22.32-24.42,22.32-38.65a21.28,21.28,0,0,0-1.8-9.12Z"/><g class="cls-52"><path class="cls-53" d="M305.43,121.65l-142.07-82-.78.92c-1.86,2.15-3.82,4.21-5.84,6.21L300.23,129.6Q302.75,125.57,305.43,121.65Z"/><path class="cls-54" d="M428.34,236.29,19.06,0c-.74.89-1.49,1.78-2.25,2.66C11.46,8.86,5.82,14.79,0,20.56L413.34,259.19Q420.62,247.6,428.34,236.29Z"/></g><path class="cls-55" d="M262.16,96.66c0,14.24-10,31.54-22.31,38.66s-22.32,1.34-22.32-12.89,10-31.53,22.32-38.65S262.16,82.43,262.16,96.66Z"/><path class="cls-56" d="M239.85,130.55c-10,5.8-18.2,1.08-18.2-10.5s8.17-25.72,18.2-31.51S258,87.46,258,99,249.88,124.76,239.85,130.55Zm0-40.78c-9.45,5.46-17.13,18.76-17.13,29.66s7.68,15.34,17.13,9.89S257,110.56,257,99.66,249.29,84.32,239.85,89.77Z"/><g class="cls-57"><g class="cls-58"><rect class="cls-59" x="224.34" y="46.4" width="6.02" height="138.3" transform="translate(88.23 -98.19) rotate(30)"/><rect class="cls-59" x="232.18" y="43.78" width="2.19" height="147.45" transform="translate(90 -100.89) rotate(30)"/><rect class="cls-59" x="238.18" y="41.9" width="3.28" height="166.08" transform="matrix(0.87, 0.5, -0.5, 0.87, 94.6, -103.17)"/></g></g><path class="cls-56" d="M239.85,134.25c-5.72,3.3-11.09,3.83-15.13,1.5s-6.27-7.25-6.27-13.85,2.23-14.09,6.27-21.09,9.41-12.67,15.13-16S250.93,81,255,83.35s6.27,7.25,6.27,13.85S259,111.28,255,118.28,245.56,131,239.85,134.25Zm0-48.17c-11.21,6.47-20.33,22.26-20.33,35.2s9.12,18.21,20.33,11.74,20.32-22.27,20.32-35.21S251.05,79.61,239.85,86.08Z"/></g><path class="cls-5" d="M246.45,97.15a14.07,14.07,0,0,0-5.09-9.58c-5-4.34-7.78-5-13-6.36s-15.93-4.41-18.93-6.58,2.1-15.86,3.89-18.11,8.43-6,8.43-6,9.87-19.75,7.18-25.14-8.5-11-13.14-10.28-6,1.05-6,1.05a14.11,14.11,0,0,0-8.23-6c-5.54-1.35-10.18.9-12,1.8s-6.44,1.79-8.83,2.09S165,20.91,159.73,22.4s-23.95,9.73-38.46,10.18a52.76,52.76,0,0,0-7.35.76A26.57,26.57,0,0,0,91.84,59.22l0,4.58a22,22,0,0,0,25,22.11c9.27-1.27,18.64-2,23.36-.66,11.23,3.14,16.46,10.33,32.78,11.82s19.6-2.39,33.22-.89S230.21,104,235,104,246.07,103.81,246.45,97.15Z"/><path class="cls-60" d="M235.9,91.51a17.94,17.94,0,0,1-1.46,4.6,13.32,13.32,0,0,1-3.7,3.71s7.18,4.71,10.66,4.71c2.37,0,4.11-3.11,5-5.11a2.86,2.86,0,0,0-.46-3A13.55,13.55,0,0,0,235.9,91.51Z"/><g class="cls-61"><path class="cls-45" d="M210.28,13.53a33.88,33.88,0,0,0-7,3,19.49,19.49,0,0,0-3.7,3.2s9.85-4,12.2-4.21S210.28,13.53,210.28,13.53Z"/><path class="cls-45" d="M186.29,12.43l-3.37,2.7s7.07-2.36,9.09-4S186.29,12.43,186.29,12.43Z"/></g><g class="cls-62"><path class="cls-50" d="M215.86,77.18s-6.84-2.87-12.24-3.54S191.77,66.88,192,63.5s8.33-9.68,14.63-11.25a32.15,32.15,0,0,1,13.88-.31C223.43,52.39,215.86,77.18,215.86,77.18Z"/></g><g class="cls-63"><path class="cls-50" d="M237.81,103.62a25.81,25.81,0,0,1-11.23-3.84c-6.22-3.7-14.88-7.86-26.14-7.75s-8.22,3-29.27-.56-25.56-12-31.86-14.41-20,2.25-28.26,2-15.65-3.83-17.9-6.3-8.78,11.37,9.8,34,73.28,31.74,84.77,31.74S237.81,103.62,237.81,103.62Z"/><path class="cls-64" d="M202.24,20.2c3.27-1.52,11.14-3.26,13.73.12s-4.16,7.54-11.25,9-15,6.87-31.75,8-20.94,2-35,5.62-21.73-3-29.72-2.25-9.91,3.94-12.84,5.86-3.37-17,16-22S174.1,13.11,177.25,13s4.5,1.69,4.61,2.7,11.65-3.6,15.6-4,4.33,1.41,3.32,3.66-4.51,3.77-2.93,5S200.55,21,202.24,20.2Z"/></g><path class="cls-65" d="M192.56,151.23c10.58,7.46,21.46,14.44,32.52,21.15V156.45c0-13.32-9.39-29.58-20.93-36.25s-20.93-1.24-20.93,12.09V145.6A52.8,52.8,0,0,1,192.56,151.23Z"/><path class="cls-66" d="M192.56,151.23c9.4,6.63,19.05,12.89,28.85,18.91V154.33c0-11-7.73-24.39-17.26-29.89h0c-9.53-5.5-17.26-1-17.26,10v13.07C188.85,148.63,190.72,149.94,192.56,151.23Z"/><polygon class="cls-67" points="245.62 192.25 162.67 144.36 162.67 120.71 245.62 168.6 245.62 192.25"/><path d="M195.91,150.23c-.08,0-.15.05-.15.17a.54.54,0,0,0,.17.31,3.23,3.23,0,0,1,.92,2c0,.95-.55,1.79-2.2.84-.28-.16-.53-.32-.78-.48l-.74-.45-.85-.47c-.28-.14-.56-.29-.85-.46a1.07,1.07,0,0,1-.54-.81c0-.59.54.32.59-1.23l.09-2.68c.05-1.4-.66-1.15-.66-1.81,0-.36.34-.33.59-.18s.61.36.91.55.61.39.91.56a6.45,6.45,0,0,0,.58.3l.57.3a3.16,3.16,0,0,1,1.89,2.64A.92.92,0,0,1,195.91,150.23Zm-2.39-1.8c0,.37,0,.54.24.69.49.28.61-.05.61-.57a1.49,1.49,0,0,0-.58-1.29c-.3-.17-.27.13-.27.41Zm0,2.32c0,1.1.16,1.21.41,1.36.47.27.63,0,.63-.5a1.6,1.6,0,0,0-.72-1.5c-.25-.15-.31,0-.32.16Z"/><path d="M198.64,152.37a4.18,4.18,0,0,0,.6-1.9c0-.65.26-1,1-.57a4.77,4.77,0,0,1,1.48,2.33c.14.35,1.38,4,1.68,4.91s.71.7.71,1.24c0,.69-1.16,0-1.57-.24-1.18-.68-1.88-1.1-1.88-1.69s.5,0,.5-.32-.21-.59-1.53-1.35c-.43-.25-.68-.37-.68.09s.53.43.53.92-.89.07-1.22-.12c-1.17-.68-1.28-1-1.28-1.3,0-.45.44-.06.68-.26a3,3,0,0,0,.48-.74Zm1.73,1.68c.08,0,.33.2.33.06a5.72,5.72,0,0,0-.31-.94c-.07-.19-.21-.63-.39-.73s-.34.37-.37.46a2.17,2.17,0,0,0-.17.49c0,.16.2.25.29.3Z"/><path d="M208.61,157.19a3.05,3.05,0,0,0,.51.66c.21.12.21-.27.21-.43a4,4,0,0,0-.07-.9c-.11-.47-.55-.58-.55-1.09s.84-.09,1.18.11,1.26.67,1.26,1.33-.44.09-.58.44a4.79,4.79,0,0,0-.1,1.23V161c0,.43.05,1.76-.5,1.44a1.35,1.35,0,0,1-.43-.48L207,157.86a2,2,0,0,0-.5-.64c-.25-.15-.26.46-.26.66a5.52,5.52,0,0,0,.06.9c.12.68.56.7.56,1.16,0,.64-.85.21-1.24,0s-1.22-.76-1.22-1.38.48,0,.56-.58a10.35,10.35,0,0,0,.07-1.39,17,17,0,0,0-.09-2.11c-.13-1-.72-1-.72-1.56s1.11,0,1.48.21a2.14,2.14,0,0,1,1,1Z"/><path d="M215.06,164a6.6,6.6,0,0,0-.81-1.35c-.22-.13-.25.1-.25.38v.19c0,.46.52.8.52,1.26,0,.3-.19.48-1.64-.36-1.29-.74-1.46-1.09-1.46-1.42,0-.49.41,0,.51-.73a10.72,10.72,0,0,0,.08-1.63,13.6,13.6,0,0,0-.08-1.89c-.1-.88-.54-.78-.54-1.36,0-.15-.07-.72,1.72.32.39.22,1.24.7,1.24,1.36,0,.5-.45-.07-.45,1.05,0,.13,0,.41.16.49s.87-.47.87-.69-.13-.37-.13-.58c0-.7,1.08,0,1.47.19s1.35.73,1.35,1.4-.85-.18-1.14,0-.86.27-.86.67a2.2,2.2,0,0,0,.33.85l1.71,3.25c.25.47.75.72.75,1.3s-.42.28-.74.09l-1.4-.8c-.32-.19-.32-.22-.65-.87Z"/><polygon class="cls-68" points="245.61 173.42 162.67 125.54 162.67 124.25 245.61 172.14 245.61 173.42"/><polygon class="cls-68" points="245.61 186.43 162.67 138.55 162.67 137.26 245.61 185.15 245.61 186.43"/><polygon class="cls-69" points="184.59 160.07 176.4 155.34 176.4 152.09 184.59 156.82 184.59 160.07"/><polygon class="cls-69" points="233.24 188.26 225.04 183.53 225.04 180.27 233.24 185 233.24 188.26"/><polygon class="cls-70" points="172.19 242.65 182.14 237.03 182.14 159.28 172.19 164.9 172.19 242.65"/><polygon class="cls-71" points="174.41 162.93 172.19 161.65 172.19 160.66 168.43 158.5 168.43 159.48 166.21 158.2 166.21 161.45 168.43 162.73 168.43 240.49 172.19 242.65 172.19 164.9 174.41 166.18 174.41 162.93"/><polygon class="cls-33" points="245.62 168.6 224.98 156.69 214.86 162.54 235.47 174.41 245.62 168.6"/><polygon class="cls-25" points="235.47 174.41 235.47 198.06 245.62 192.25 245.62 168.6 235.47 174.41"/><polygon class="cls-29" points="139.91 131.21 139.91 121.17 148.6 126.19 148.6 136.23 139.91 131.21"/><polygon class="cls-2" points="148.01 135.21 140.5 130.87 140.5 122.2 148.01 126.53 148.01 135.21"/><polygon class="cls-30" points="142.06 129.97 142.06 123.1 140.5 122.2 140.5 130.87 148.01 135.21 148.01 133.4 142.06 129.97"/><polygon class="cls-31" points="140.5 130.87 142.06 129.97 148.01 133.4 148.01 135.21 140.5 130.87"/><polygon class="cls-29" points="257.24 198.35 257.24 188.31 265.93 193.33 265.93 203.37 257.24 198.35"/><polygon class="cls-2" points="265.34 202.35 257.83 198.01 257.83 189.34 265.34 193.68 265.34 202.35"/><polygon class="cls-30" points="259.39 197.11 259.39 190.24 257.83 189.34 257.83 198.01 265.34 202.35 265.34 200.54 259.39 197.11"/><polygon class="cls-31" points="257.83 198.01 259.39 197.11 265.34 200.54 265.34 202.35 257.83 198.01"/><polygon class="cls-29" points="244.92 210.33 244.92 200.29 253.61 205.31 253.61 215.34 244.92 210.33"/><polygon class="cls-2" points="253.02 214.32 245.51 209.99 245.51 201.31 253.02 205.65 253.02 214.32"/><polygon class="cls-30" points="247.07 209.08 247.07 202.21 245.51 201.31 245.51 209.99 253.02 214.32 253.02 212.52 247.07 209.08"/><polygon class="cls-31" points="245.51 209.99 247.07 209.08 253.02 212.52 253.02 214.32 245.51 209.99"/><polygon class="cls-33" points="152.52 126.52 162.67 120.71 177.22 129.16 173.61 142.69 162.31 136.59 152.52 126.52"/><path class="cls-33" d="M212.43,128.5c-7.22-5.51-18.79-9.39-18.79-9.39l-3.9-.56-10.25,5.88,35.37,38.11,10.19-5.95S219.66,134,212.43,128.5Z"/><g class="cls-72"><polygon class="cls-25" points="248.8 143.25 194.07 174.85 194.07 157.77 248.8 126.17 248.8 143.25"/><polygon class="cls-73" points="244.2 132.48 189.47 164.08 189.47 147 244.2 115.4 244.2 132.48"/></g><path class="cls-74" d="M182.41,157.05c10.58,7.45,21.46,14.44,32.51,21.15V162.26c0-13.32-9.39-29.58-20.93-36.24s-20.93-1.24-20.93,12.08v13.31A52.85,52.85,0,0,1,182.41,157.05Z"/><path class="cls-25" d="M182.41,157.05c9.4,6.62,19.05,12.88,28.85,18.91V160.15c0-11-7.73-24.39-17.26-29.89h0c-9.53-5.51-17.26-1-17.26,10v13.07C178.7,154.44,180.57,155.75,182.41,157.05Z"/><polygon class="cls-75" points="174.41 162.93 188.48 177 218.94 195.06 222.03 184.15 174.41 162.93"/><polygon class="cls-70" points="220.87 270.54 230.82 264.92 230.82 187.17 220.87 192.79 220.87 270.54"/><polygon class="cls-71" points="223.09 190.82 220.87 189.54 220.87 188.55 217.11 186.38 217.11 187.37 214.89 186.09 214.89 189.34 217.11 190.62 217.11 268.37 220.87 270.54 220.87 192.79 223.09 194.07 223.09 190.82"/><g class="cls-76"><polygon class="cls-77" points="276.86 291.33 338.85 291.33 415.13 245.06 301.9 180.02 276.86 291.33"/></g><polygon class="cls-71" points="233.04 185.2 230.82 183.92 230.82 182.93 227.06 180.77 227.06 181.75 224.85 180.47 224.85 183.72 227.06 185 227.06 262.75 230.82 264.92 230.82 187.17 233.04 188.45 233.04 185.2"/><polygon class="cls-78" points="174.41 166.18 183.53 163.42 180.67 160.37 174.41 162.93 174.41 166.18"/><polygon class="cls-78" points="223.09 194.07 230.09 191.11 227.87 187.91 223.09 190.82 223.09 194.07"/><polygon class="cls-42" points="235.47 198.06 152.52 150.17 152.52 126.52 235.47 174.41 235.47 198.06"/><path class="cls-79" d="M183.78,154.76c-.09,0-.18.06-.18.21a.63.63,0,0,0,.21.38,4,4,0,0,1,1.13,2.42c0,1.17-.67,2.21-2.69,1-.35-.2-.66-.39-1-.59s-.6-.37-.92-.55-.69-.39-1-.57l-1-.57a1.31,1.31,0,0,1-.66-1c0-.72.65.39.71-1.5l.11-3.28c.06-1.72-.8-1.42-.8-2.22,0-.44.41-.41.72-.23s.75.45,1.12.68.74.47,1.12.69.47.25.7.36.47.23.7.37c1.84,1.06,2.32,2.34,2.32,3.24A1.11,1.11,0,0,1,183.78,154.76Zm-2.92-2.2c0,.45,0,.66.29.84.6.35.74-.06.74-.7a1.81,1.81,0,0,0-.7-1.58c-.37-.21-.33.16-.33.5Zm0,2.83c0,1.35.19,1.5.5,1.68.57.33.77,0,.77-.61a2,2,0,0,0-.88-1.85c-.31-.18-.38,0-.39.2Z"/><path class="cls-79" d="M187.14,157.38a5.16,5.16,0,0,0,.72-2.32c0-.8.32-1.22,1.22-.7s1.43,1.85,1.82,2.85c.17.43,1.69,4.87,2,6s.88.85.88,1.51c0,.85-1.43,0-1.93-.3-1.44-.83-2.31-1.34-2.31-2.06,0-.56.62,0,.62-.4s-.25-.72-1.87-1.65c-.53-.3-.84-.46-.84.11s.64.52.64,1.13-1.08.08-1.48-.16c-1.44-.83-1.57-1.21-1.57-1.59,0-.54.54-.07.83-.32a3.4,3.4,0,0,0,.58-.9Zm2.11,2.06c.1.06.4.25.4.08a7.71,7.71,0,0,0-.37-1.16c-.09-.23-.26-.76-.48-.89s-.41.46-.45.56a2.85,2.85,0,0,0-.22.6c0,.2.26.31.37.37Z"/><path class="cls-79" d="M199.36,163.29a3.86,3.86,0,0,0,.62.81c.25.14.26-.33.26-.52a5.3,5.3,0,0,0-.09-1.11c-.14-.57-.67-.71-.67-1.33s1-.12,1.45.12,1.54.83,1.54,1.64c0,.66-.54.11-.71.54a5.6,5.6,0,0,0-.13,1.51v3c0,.52.06,2.14-.61,1.76a1.84,1.84,0,0,1-.53-.6l-3.11-5a2.68,2.68,0,0,0-.61-.78c-.31-.18-.32.57-.32.81a6.85,6.85,0,0,0,.07,1.1c.15.83.68.86.68,1.43,0,.77-1,.25-1.51,0s-1.49-.93-1.49-1.69c0-.61.58,0,.68-.72a13.23,13.23,0,0,0,.09-1.7,20.72,20.72,0,0,0-.11-2.58c-.16-1.26-.89-1.22-.89-1.92s1.36,0,1.82.27a2.56,2.56,0,0,1,1.18,1.19Z"/><path class="cls-79" d="M207.26,171.62a8,8,0,0,0-1-1.65c-.26-.15-.3.13-.3.46v.25c0,.55.63,1,.63,1.54,0,.37-.23.58-2-.44-1.59-.92-1.79-1.35-1.79-1.74,0-.61.5,0,.63-.9a14.18,14.18,0,0,0,.1-2,16.78,16.78,0,0,0-.1-2.33c-.14-1.07-.67-.95-.67-1.66,0-.18-.09-.89,2.11.38.48.28,1.52.87,1.52,1.67,0,.62-.55-.07-.55,1.3,0,.15,0,.49.19.59s1.07-.58,1.07-.84-.16-.46-.16-.71c0-.86,1.32-.05,1.81.23s1.65.89,1.65,1.72-1.05-.22-1.4,0c-.2.12-1.06.33-1.06.82a2.7,2.7,0,0,0,.41,1l2.1,4c.3.57.91.87.91,1.58s-.51.35-.9.12l-1.71-1c-.39-.23-.4-.27-.81-1.07Z"/><polygon class="cls-80" points="235.46 179.24 152.52 131.36 152.52 130.07 235.46 177.95 235.46 179.24"/><polygon class="cls-80" points="235.46 192.25 152.52 144.36 152.52 143.08 235.46 190.96 235.46 192.25"/><polygon class="cls-29" points="257.53 231.88 257.53 221.84 266.23 226.86 266.23 236.89 257.53 231.88"/><polygon class="cls-2" points="265.63 235.87 258.13 231.53 258.13 222.86 265.63 227.2 265.63 235.87"/><polygon class="cls-30" points="259.69 230.63 259.69 223.76 258.13 222.86 258.13 231.53 265.63 235.87 265.63 234.07 259.69 230.63"/><polygon class="cls-31" points="258.13 231.53 259.69 230.63 265.63 234.07 265.63 235.87 258.13 231.53"/><polygon class="cls-25" points="349.74 249.25 276.86 291.33 276.86 186.59 349.74 144.51 349.74 249.25"/><polygon class="cls-26" points="280.19 289.33 280.19 261.25 347.86 222.18 347.86 250.26 280.19 289.33"/><polygon class="cls-1" points="347.35 249.97 280.7 288.45 280.7 261.55 347.35 223.06 347.35 249.97"/><g class="cls-81"><polygon class="cls-26" points="280.24 305.4 280.69 305.14 280.69 210.01 280.24 210.27 280.24 305.4"/><polygon class="cls-26" points="286.95 301.71 287.4 301.45 287.4 206.32 286.95 206.59 286.95 301.71"/><polygon class="cls-26" points="293.66 298.03 294.12 297.77 294.12 202.64 293.66 202.9 293.66 298.03"/><polygon class="cls-26" points="300.37 294.35 300.83 294.08 300.83 198.96 300.37 199.22 300.37 294.35"/><polygon class="cls-26" points="307.08 290.66 307.54 290.4 307.54 195.27 307.08 195.53 307.08 290.66"/><polygon class="cls-26" points="313.79 286.98 314.25 286.72 314.25 191.59 313.79 191.85 313.79 286.98"/><polygon class="cls-26" points="320.5 283.3 320.96 283.03 320.96 187.91 320.5 188.17 320.5 283.3"/><polygon class="cls-26" points="327.21 279.61 327.67 279.35 327.67 184.22 327.21 184.48 327.21 279.61"/><polygon class="cls-26" points="333.93 275.93 334.38 275.67 334.38 180.54 333.93 180.8 333.93 275.93"/><polygon class="cls-26" points="340.64 272.24 341.09 271.98 341.09 176.85 340.64 177.12 340.64 272.24"/><polygon class="cls-26" points="347.35 268.56 347.8 268.3 347.8 173.17 347.35 173.43 347.35 268.56"/><polygon class="cls-26" points="353.9 232.82 353.9 232.3 271.52 279.86 271.52 280.39 353.9 232.82"/></g><polygon class="cls-28" points="290.23 199.15 297.74 194.81 297.74 186.14 290.23 190.48 290.23 199.15"/><polygon class="cls-28" points="308.32 208.15 315.83 203.81 315.83 195.14 308.32 199.48 308.32 208.15"/><polygon class="cls-28" points="325.73 221.88 333.24 217.54 333.24 208.87 325.73 213.21 325.73 221.88"/><polygon class="cls-29" points="298.39 195.14 298.39 185.11 289.7 190.12 289.7 200.16 298.39 195.14"/><polygon class="cls-1" points="290.29 199.14 297.8 194.8 297.8 186.13 290.29 190.47 290.29 199.14"/><polygon class="cls-30" points="296.24 193.9 296.24 187.03 297.8 186.13 297.8 194.8 290.29 199.14 290.29 197.33 296.24 193.9"/><polygon class="cls-31" points="297.8 194.8 296.24 193.9 290.29 197.33 290.29 199.14 297.8 194.8"/><polygon class="cls-29" points="316.43 204.16 316.42 194.12 307.73 199.14 307.73 209.18 316.43 204.16"/><polygon class="cls-1" points="308.32 208.16 315.83 203.82 315.83 195.15 308.32 199.48 308.32 208.16"/><polygon class="cls-30" points="314.27 202.92 314.27 196.05 315.83 195.15 315.83 203.82 308.32 208.16 308.32 206.35 314.27 202.92"/><polygon class="cls-31" points="315.83 203.82 314.27 202.92 308.32 206.35 308.32 208.16 315.83 203.82"/><polygon class="cls-29" points="333.87 217.96 333.87 207.92 325.18 212.94 325.18 222.98 333.87 217.96"/><polygon class="cls-1" points="325.77 221.95 333.28 217.62 333.28 208.94 325.77 213.28 325.77 221.95"/><polygon class="cls-30" points="331.72 216.71 331.72 209.84 333.28 208.94 333.28 217.62 325.77 221.95 325.77 220.15 331.72 216.71"/><polygon class="cls-31" points="333.28 217.62 331.72 216.71 325.77 220.15 325.77 221.95 333.28 217.62"/><polygon class="cls-29" points="140.99 164.72 140.99 154.68 149.68 159.7 149.68 169.74 140.99 164.72"/><polygon class="cls-2" points="149.09 168.71 141.58 164.38 141.58 155.71 149.09 160.04 149.09 168.71"/><polygon class="cls-30" points="143.14 163.47 143.14 156.61 141.58 155.71 141.58 164.38 149.09 168.71 149.09 166.91 143.14 163.47"/><polygon class="cls-31" points="141.58 164.38 143.14 163.47 149.09 166.91 149.09 168.71 141.58 164.38"/><polygon class="cls-82" points="261.58 164.85 266.71 164.85 272.42 161.64 262.67 156.4 261.58 164.85"/><polygon class="cls-83" points="266.96 161.74 261.58 164.85 256.63 161.99 262.01 158.88 266.96 161.74"/><path class="cls-84" d="M263.58,160.85a1.05,1.05,0,0,1,0,2,3.83,3.83,0,0,1-3.46,0,1.05,1.05,0,0,1,0-2A3.83,3.83,0,0,1,263.58,160.85Z"/><path class="cls-85" d="M262.88,161.25a.63.63,0,0,1,0,1.19,2.27,2.27,0,0,1-2.06,0,.63.63,0,0,1,0-1.19A2.27,2.27,0,0,1,262.88,161.25Z"/><polygon class="cls-29" points="266.96 156.97 261.58 160.07 256.63 157.22 262.01 154.11 266.96 156.97"/><path class="cls-86" d="M263.58,156.08a1.05,1.05,0,0,1,0,2,3.83,3.83,0,0,1-3.46,0,1.05,1.05,0,0,1,0-2A3.83,3.83,0,0,1,263.58,156.08Z"/><path class="cls-87" d="M262.88,156.48a.63.63,0,0,1,0,1.19,2.27,2.27,0,0,1-2.06,0,.63.63,0,0,1,0-1.19A2.27,2.27,0,0,1,262.88,156.48Z"/><polygon class="cls-88" points="256.63 157.22 256.63 161.99 261.58 164.85 261.58 160.07 256.63 157.22"/><polygon class="cls-89" points="266.96 156.97 266.96 161.74 261.58 164.85 261.58 160.07 266.96 156.97"/><polygon class="cls-82" points="169.34 111.53 174.47 111.53 180.18 108.32 170.43 103.08 169.34 111.53"/><polygon class="cls-83" points="174.72 108.42 169.34 111.53 164.38 108.67 169.77 105.56 174.72 108.42"/><path class="cls-84" d="M171.33,107.53a1,1,0,0,1,0,2,3.75,3.75,0,0,1-3.45,0,1,1,0,0,1,0-2A3.81,3.81,0,0,1,171.33,107.53Z"/><path class="cls-85" d="M170.63,107.93a.63.63,0,0,1,0,1.19,2.25,2.25,0,0,1-2,0,.63.63,0,0,1,0-1.19A2.31,2.31,0,0,1,170.63,107.93Z"/><polygon class="cls-29" points="174.72 103.65 169.34 106.76 164.38 103.9 169.77 100.79 174.72 103.65"/><path class="cls-86" d="M171.33,102.76a1,1,0,0,1,0,2,3.81,3.81,0,0,1-3.45,0,1,1,0,0,1,0-2A3.81,3.81,0,0,1,171.33,102.76Z"/><path class="cls-87" d="M170.63,103.16a.63.63,0,0,1,0,1.19,2.25,2.25,0,0,1-2,0,.63.63,0,0,1,0-1.19A2.25,2.25,0,0,1,170.63,103.16Z"/><polygon class="cls-88" points="164.38 103.9 164.38 108.67 169.34 111.53 169.34 106.76 164.38 103.9"/><polygon class="cls-89" points="174.72 103.65 174.72 108.42 169.34 111.53 169.34 106.76 174.72 103.65"/><polygon class="cls-90" points="312.98 181.19 315.87 181.19 321.25 177.96 321.17 173.92 317.85 171.47 312.98 181.19"/><polygon class="cls-91" points="310.03 174.62 317.01 170.59 317.01 175.48 310.03 179.51 310.03 174.62"/><path class="cls-92" d="M310.61,176.75A3,3,0,0,1,312,174.4c.75-.44,1.36-.08,1.36.78a3,3,0,0,1-1.36,2.36C311.22,178,310.61,177.62,310.61,176.75Z"/><path class="cls-92" d="M313.89,174.81a3,3,0,0,1,1.36-2.35c.75-.43,1.36-.08,1.36.78a3,3,0,0,1-1.36,2.36C314.5,176,313.89,175.68,313.89,174.81Z"/><path class="cls-93" d="M311.13,176.45A1.87,1.87,0,0,1,312,175c.46-.27.84-.05.84.48a1.87,1.87,0,0,1-.84,1.46C311.51,177.2,311.13,177,311.13,176.45Z"/><path class="cls-94" d="M314.43,174.5a1.82,1.82,0,0,1,.82-1.42c.45-.26.82-.05.82.48a1.8,1.8,0,0,1-.82,1.41C314.8,175.24,314.43,175,314.43,174.5Z"/><polygon class="cls-95" points="312.98 176.3 319.95 172.27 319.95 177.17 312.98 181.19 312.98 176.3"/><path class="cls-96" d="M313.55,178.44a3,3,0,0,1,1.36-2.36c.75-.43,1.36-.08,1.36.79a3,3,0,0,1-1.36,2.35C314.16,179.65,313.55,179.3,313.55,178.44Z"/><path class="cls-96" d="M316.83,176.5a3,3,0,0,1,1.36-2.36c.75-.43,1.36-.08,1.36.79a3,3,0,0,1-1.36,2.35C317.44,177.72,316.83,177.36,316.83,176.5Z"/><path class="cls-97" d="M314.07,178.14a1.87,1.87,0,0,1,.84-1.46c.47-.27.84-.05.84.49a1.84,1.84,0,0,1-.84,1.45C314.45,178.89,314.07,178.67,314.07,178.14Z"/><path class="cls-98" d="M317.37,176.19a1.81,1.81,0,0,1,.82-1.42c.45-.26.82-.05.82.47a1.82,1.82,0,0,1-.82,1.42C317.74,176.92,317.37,176.71,317.37,176.19Z"/><polygon class="cls-88" points="310.03 179.51 312.98 181.19 312.98 176.3 310.03 174.62 310.03 179.51"/><polygon class="cls-29" points="310.03 174.62 317.01 170.59 319.95 172.27 312.98 176.3 310.03 174.62"/><polygon class="cls-90" points="339.52 168.19 342.42 168.19 347.8 164.95 347.71 160.91 344.39 158.46 339.52 168.19"/><polygon class="cls-91" points="336.57 161.61 343.55 157.58 343.55 162.47 336.57 166.5 336.57 161.61"/><path class="cls-92" d="M337.15,163.74a3,3,0,0,1,1.36-2.35c.75-.43,1.36-.08,1.36.78a3,3,0,0,1-1.36,2.36C337.76,165,337.15,164.61,337.15,163.74Z"/><path class="cls-92" d="M340.43,161.8a3,3,0,0,1,1.36-2.35c.75-.43,1.36-.08,1.36.79a3,3,0,0,1-1.36,2.35C341,163,340.43,162.67,340.43,161.8Z"/><path class="cls-93" d="M337.67,163.44a1.87,1.87,0,0,1,.84-1.45c.47-.27.84-.05.84.48a1.85,1.85,0,0,1-.84,1.46C338.05,164.2,337.67,164,337.67,163.44Z"/><path class="cls-94" d="M341,161.49a1.84,1.84,0,0,1,.82-1.42c.45-.26.82,0,.82.48a1.84,1.84,0,0,1-.82,1.42C341.34,162.23,341,162,341,161.49Z"/><polygon class="cls-95" points="339.52 163.29 346.49 159.27 346.49 164.16 339.52 168.19 339.52 163.29"/><path class="cls-96" d="M340.1,165.43a3,3,0,0,1,1.36-2.36c.75-.43,1.35-.08,1.36.79a3,3,0,0,1-1.36,2.35C340.71,166.65,340.1,166.29,340.1,165.43Z"/><path class="cls-96" d="M343.37,163.49a3,3,0,0,1,1.36-2.35c.75-.44,1.36-.09,1.36.78a3,3,0,0,1-1.36,2.35C344,164.71,343.37,164.36,343.37,163.49Z"/><path class="cls-97" d="M340.62,165.13a1.85,1.85,0,0,1,.84-1.46c.46-.26.84,0,.84.49a1.85,1.85,0,0,1-.84,1.45C341,165.88,340.62,165.66,340.62,165.13Z"/><path class="cls-98" d="M343.91,163.18a1.82,1.82,0,0,1,.82-1.42c.46-.26.82,0,.82.47a1.8,1.8,0,0,1-.82,1.42C344.28,163.91,343.91,163.7,343.91,163.18Z"/><polygon class="cls-88" points="336.57 166.5 339.52 168.19 339.52 163.29 336.57 161.61 336.57 166.5"/><polygon class="cls-29" points="336.57 161.61 343.55 157.58 346.49 159.27 339.52 163.29 336.57 161.61"/><polygon class="cls-29" points="213.79 238.65 202.47 232.12 202.47 241.26 213.79 247.8 213.79 238.65"/><polygon class="cls-8" points="213.34 247.49 202.97 241.5 202.97 232.84 213.34 238.82 213.34 247.49"/><polygon class="cls-7" points="213.84 255.2 189.77 241.31 189.77 207.71 213.84 221.6 213.84 255.2"/><g class="cls-99"><path class="cls-70" d="M211.21,258.92,191,247.23V217.51l20.24,11.68Zm-17-13.93L208,252.94v-21.5l-13.77-7.95Z"/><path class="cls-40" d="M211.91,258.58,191.67,246.9V217.17l20.24,11.68Zm-17-13.93,13.77,7.95V231.1l-13.77-7.95Z"/></g><g class="cls-100"><polygon class="cls-101" points="194.95 223.28 191.67 221.39 191.67 221.18 194.95 223.07 194.95 223.28"/><polygon class="cls-101" points="194.95 226.8 191.67 224.91 191.67 224.7 194.95 226.59 194.95 226.8"/><polygon class="cls-101" points="194.95 230.32 191.67 228.43 191.67 228.22 194.95 230.11 194.95 230.32"/><polygon class="cls-101" points="194.95 233.84 191.67 231.95 191.67 231.74 194.95 233.63 194.95 233.84"/><polygon class="cls-101" points="194.95 237.36 191.67 235.47 191.67 235.26 194.95 237.15 194.95 237.36"/><polygon class="cls-101" points="194.95 240.88 191.67 238.99 191.67 238.78 194.95 240.67 194.95 240.88"/><polygon class="cls-101" points="194.95 244.4 191.67 242.51 191.67 242.3 194.95 244.19 194.95 244.4"/><polygon class="cls-101" points="195 223.2 194.82 223.1 194.82 218.67 195 218.78 195 223.2"/><polygon class="cls-101" points="198.44 225.19 198.26 225.09 198.26 220.66 198.44 220.76 198.44 225.19"/><polygon class="cls-101" points="201.88 227.18 201.7 227.07 201.7 222.65 201.88 222.75 201.88 227.18"/><polygon class="cls-101" points="205.33 229.17 205.15 229.06 205.15 224.63 205.33 224.74 205.33 229.17"/><polygon class="cls-101" points="208.77 231.15 208.59 231.05 208.59 226.62 208.77 226.73 208.77 231.15"/><polygon class="cls-101" points="211.97 233.1 208.69 231.21 208.69 231 211.97 232.9 211.97 233.1"/><polygon class="cls-101" points="211.97 236.63 208.69 234.73 208.69 234.53 211.97 236.42 211.97 236.63"/><polygon class="cls-101" points="211.97 240.15 208.69 238.25 208.69 238.04 211.97 239.94 211.97 240.15"/><polygon class="cls-101" points="211.97 243.66 208.69 241.77 208.69 241.56 211.97 243.46 211.97 243.66"/><polygon class="cls-101" points="211.97 247.19 208.69 245.29 208.69 245.09 211.97 246.98 211.97 247.19"/><polygon class="cls-101" points="211.97 250.71 208.69 248.81 208.69 248.61 211.97 250.5 211.97 250.71"/><polygon class="cls-101" points="211.97 254.23 208.69 252.33 208.69 252.13 211.97 254.02 211.97 254.23"/></g><polygon class="cls-29" points="207.35 242.33 196.03 235.79 196.03 244.94 207.35 251.47 207.35 242.33"/><polygon class="cls-8" points="206.9 251.16 196.52 245.17 196.52 236.51 206.9 242.5 206.9 251.16"/><g class="cls-102"><polygon class="cls-103" points="202.11 236.66 194.13 246.59 194.75 246.93 204.37 238.06 202.11 236.66"/><path class="cls-103" d="M197.19,246.77l8.58-6.92.31.39-8.58,6.89Z"/><polygon class="cls-103" points="198.97 248.35 207.92 241.56 208.44 242.44 200.61 249.26 198.97 248.35"/></g><polygon class="cls-29" points="201.82 248.25 201.6 248.12 201.6 239.42 201.82 239.55 201.82 248.25"/><polygon class="cls-104" points="201.47 242.34 201.28 242.23 200.88 242.79 201.26 242.74 201.47 242.34"/><polygon class="cls-104" points="201.28 243.75 200.67 244.1 200.67 242.58 201.28 242.23 201.28 243.75"/><polygon class="cls-105" points="201.47 243.84 200.87 244.19 200.87 242.69 201.47 242.34 201.47 243.84"/><polygon class="cls-104" points="200.87 242.68 199.93 242.14 200.4 243.89 200.89 244.17 200.87 242.68"/><polygon class="cls-104" points="199.72 242.25 199.93 242.14 200.75 242.68 200.31 242.74 199.72 242.25"/><polygon class="cls-29" points="200.66 242.79 199.72 242.25 200.19 243.99 200.68 244.27 200.66 242.79"/><polygon class="cls-105" points="200.68 244.27 200.89 244.17 200.87 242.68 200.66 242.79 200.68 244.27"/><polygon class="cls-104" points="202.41 242.89 202.21 242.78 201.81 243.35 202.19 243.3 202.41 242.89"/><polygon class="cls-104" points="202.21 244.3 201.6 244.65 201.6 243.13 202.21 242.78 202.21 244.3"/><polygon class="cls-105" points="202.41 244.39 201.8 244.74 201.8 243.24 202.41 242.89 202.41 244.39"/><polygon class="cls-104" points="201.81 243.03 202.75 243.57 202.28 244.77 201.79 244.49 201.81 243.03"/><polygon class="cls-104" points="201.6 243.13 201.81 243.03 202.16 243.55 201.6 243.13"/><polygon class="cls-29" points="201.6 243.13 202.54 243.67 202.06 244.87 201.58 244.59 201.6 243.13"/><polygon class="cls-105" points="202.54 243.67 202.75 243.57 202.28 244.77 202.06 244.87 202.54 243.67"/><polygon class="cls-71" points="194.9 244.47 196.02 245.12 196.03 235.79 207.35 242.33 207.35 251.47 207.98 251.84 207.98 231.44 194.92 223.89 194.9 244.47"/><polygon class="cls-71" points="191.66 242.66 191.67 217.17 211.91 228.85 211.91 254.16 213.84 255.2 213.84 221.6 189.77 207.71 189.77 241.31 191.66 242.66"/><path class="cls-15" d="M283,305.68l-11.63-1.25-3.91.17v0a9.27,9.27,0,0,0-5.51.8l-13.52-2-.92,1,11.7,1.72c-.75,1.74-.65,1.87-.56,2s.14.17,2.92.86l0,.62,10.12,3.24,5.39.51,4.49-1.87,2.56-2.08.39-2.53Zm-17.2-.75-1.76.75-1.21-.18A9.1,9.1,0,0,1,265.79,304.93Zm-6.73,2.85a15.23,15.23,0,0,1,.62-1.61l3,.44-1.18,1.12,0,.71C260.4,308.16,259.41,307.9,259.06,307.78Z"/><path class="cls-16" d="M252.52,300.83c2.36,1.36,2.36,3.56,0,4.92a9.37,9.37,0,0,1-8.53,0c-2.36-1.36-2.36-3.56,0-4.92A9.43,9.43,0,0,1,252.52,300.83Z"/><path class="cls-17" d="M252.52,298.75c2.36,1.36,2.36,3.57,0,4.93a9.43,9.43,0,0,1-8.53,0c-2.36-1.36-2.36-3.57,0-4.93A9.43,9.43,0,0,1,252.52,298.75Z"/><path class="cls-18" d="M251.58,299.29c1.84,1.06,1.84,2.78,0,3.85a7.35,7.35,0,0,1-6.65,0c-1.84-1.07-1.84-2.79,0-3.85A7.35,7.35,0,0,1,251.58,299.29Z"/><path class="cls-19" d="M245.15,300.7a7.35,7.35,0,0,1,6.65,0,3.2,3.2,0,0,1,1.09,1c.25-.84-.18-1.74-1.31-2.39a7.35,7.35,0,0,0-6.65,0c-1.35.78-1.71,1.9-1.09,2.87A2.72,2.72,0,0,1,245.15,300.7Z"/><path class="cls-20" d="M248,292.58a12.63,12.63,0,0,1-2.52-.57c-1.5-.51-1.71-.93-1.73-1.23,0-.55,0-5.22.06-5.42h.82c0,1.61-.07,4.7-.06,5.31a4.3,4.3,0,0,0,1.36.61,11.84,11.84,0,0,0,2.15.47Z"/><path class="cls-20" d="M248.9,290.37l-.16-.51c.57-.18,2.13-.78,2.46-1.43a9.77,9.77,0,0,0,.43-3.17h.54a10.77,10.77,0,0,1-.49,3.41,3.29,3.29,0,0,1-1.61,1.24A10,10,0,0,1,248.9,290.37Zm-.08-.25-.08-.26Z"/><rect class="cls-20" x="247.46" y="284.73" width="1.69" height="16.79"/><polygon class="cls-21" points="238.24 266.97 238.53 276.2 240.12 281.64 241.25 285.5 244.28 287.45 250.13 287.75 255.37 285.55 257.06 278.77 257.44 269.07 238.24 266.97"/><polygon class="cls-22" points="238.24 266.97 240.38 272.1 248.86 273.87 257.44 269.07 256.24 264.84 250.01 262.73 245.53 262.71 238.24 266.97"/><path class="cls-23" d="M248.86,273.87l.79,7.43.48,6.45s5.15-1.9,5.24-2.2,1.69-6.78,1.69-6.78l.38-9.7Z"/><polygon class="cls-24" points="240.38 272.1 238.69 276.55 241.25 285.5 244.28 287.45 240.38 272.1"/><polygon class="cls-21" points="240.38 272.1 248.86 273.87 250.13 287.75 244.28 287.45 240.38 272.1"/><ellipse class="cls-20" cx="248.31" cy="301.55" rx="0.94" ry="0.4"/></g></g></g></svg>