<svg xmlns="http://www.w3.org/2000/svg" xmlns:xlink="http://www.w3.org/1999/xlink" viewBox="0 0 411.1 394.31"><defs><style>.cls-1{isolation:isolate;}.cls-2{opacity:0.31;}.cls-3{fill:url(#linear-gradient);}.cls-4,.cls-7,.cls-8{opacity:0.63;}.cls-5{fill:url(#linear-gradient-2);}.cls-6{fill:url(#radial-gradient);}.cls-7{fill:url(#linear-gradient-3);}.cls-8{fill:url(#linear-gradient-4);}.cls-9{fill:url(#linear-gradient-5);}.cls-10{fill:#7957aa;}.cls-11{fill:url(#linear-gradient-6);}.cls-12,.cls-20,.cls-28,.cls-72{fill:#fff;}.cls-12{opacity:0.47;}.cls-13,.cls-40,.cls-55,.cls-71{opacity:0.1;}.cls-13{mix-blend-mode:multiply;}.cls-14,.cls-71{fill:#231f20;}.cls-15{fill:#f1ca30;}.cls-16{fill:#edebd3;}.cls-17{opacity:0.75;fill:url(#linear-gradient-7);}.cls-18{opacity:0.85;fill:url(#linear-gradient-8);}.cls-19{fill:url(#linear-gradient-9);}.cls-20,.cls-72{mix-blend-mode:soft-light;}.cls-21{fill:url(#linear-gradient-10);}.cls-22{fill:url(#linear-gradient-11);}.cls-23{fill:url(#linear-gradient-12);}.cls-24{fill:url(#linear-gradient-13);}.cls-25{fill:url(#linear-gradient-14);}.cls-26{fill:url(#linear-gradient-15);}.cls-27{fill:#623b9b;}.cls-29{fill:url(#linear-gradient-16);}.cls-30{fill:#efe6dc;}.cls-31{fill:url(#linear-gradient-17);}.cls-32{fill:url(#linear-gradient-18);}.cls-33{fill:url(#linear-gradient-19);}.cls-34{fill:url(#linear-gradient-20);}.cls-35{fill:url(#linear-gradient-21);}.cls-36{fill:url(#linear-gradient-22);}.cls-37{fill:url(#linear-gradient-23);}.cls-38,.cls-40{fill:#232b57;}.cls-39{fill:url(#linear-gradient-24);}.cls-41{fill:url(#linear-gradient-25);}.cls-42{fill:url(#linear-gradient-26);}.cls-43{fill:url(#linear-gradient-27);}.cls-44{fill:url(#linear-gradient-28);}.cls-45{fill:#a5b6f3;}.cls-46{fill:#8fa5e2;}.cls-47{fill:#e37a1d;}.cls-48{fill:url(#linear-gradient-29);}.cls-49{fill:#db207e;}.cls-50{fill:#592b8d;}.cls-51{fill:url(#linear-gradient-30);}.cls-52{fill:url(#linear-gradient-31);}.cls-53{fill:url(#linear-gradient-32);}.cls-54{fill:url(#linear-gradient-33);}.cls-55{fill:#6d6e71;}.cls-56{fill:#2a3159;}.cls-57{fill:url(#linear-gradient-34);}.cls-58{fill:url(#linear-gradient-35);}.cls-59{opacity:0.25;}.cls-60{fill:#3a406f;}.cls-61,.cls-62{fill:#492a3e;}.cls-61{opacity:0.27;}.cls-63{fill:#f5b297;}.cls-64{fill:#e59c83;}.cls-65{fill:#5e4055;opacity:0.34;mix-blend-mode:color-burn;}.cls-66{fill:#772d2d;opacity:0.3;}.cls-67{fill:#ffb9b0;}.cls-68{fill:#ede472;}.cls-69,.cls-70{fill:#ec9480;}.cls-70{opacity:0.2;}.cls-72{opacity:0.21;}</style><linearGradient id="linear-gradient" x1="205.55" y1="11.23" x2="205.55" y2="464.51" gradientUnits="userSpaceOnUse"><stop offset="0" stop-color="#b0b0ff"/><stop offset="1" stop-color="#fff"/></linearGradient><linearGradient id="linear-gradient-2" x1="209.54" y1="11.23" x2="209.54" y2="464.51" gradientTransform="matrix(-1, 0, 0, 1, 415.08, 0)" xlink:href="#linear-gradient"/><radialGradient id="radial-gradient" cx="203" cy="337.02" r="176.41" gradientTransform="translate(0 252.95) scale(1 0.25)" gradientUnits="userSpaceOnUse"><stop offset="0" stop-color="#9463d3"/><stop offset="1" stop-color="#7282fb"/></radialGradient><linearGradient id="linear-gradient-3" x1="203" y1="316.48" x2="203" y2="74.75" xlink:href="#linear-gradient"/><linearGradient id="linear-gradient-4" x1="203" y1="316.48" x2="203" y2="74.75" xlink:href="#linear-gradient"/><linearGradient id="linear-gradient-5" x1="122.22" y1="195.61" x2="132.39" y2="195.61" gradientUnits="userSpaceOnUse"><stop offset="0" stop-color="#592b8d"/><stop offset="1" stop-color="#46217c"/></linearGradient><linearGradient id="linear-gradient-6" x1="238.16" y1="195.61" x2="248.33" y2="195.61" gradientTransform="matrix(1, 0, 0, -1, 35.44, 391.23)" xlink:href="#linear-gradient-5"/><linearGradient id="linear-gradient-7" x1="118.81" y1="366.6" x2="279.53" y2="286.9" gradientUnits="userSpaceOnUse"><stop offset="0" stop-color="#9463d3"/><stop offset="1" stop-color="#004a87"/></linearGradient><linearGradient id="linear-gradient-8" x1="77.44" y1="227.5" x2="280.79" y2="382" xlink:href="#linear-gradient-7"/><linearGradient id="linear-gradient-9" x1="26.67" y1="270.16" x2="125.9" y2="293.38" gradientTransform="translate(-17.26 9.09) rotate(-3.59)" gradientUnits="userSpaceOnUse"><stop offset="0" stop-color="#9463d3"/><stop offset="1" stop-color="#72b8fb"/></linearGradient><linearGradient id="linear-gradient-10" x1="278.34" y1="353.94" x2="394.28" y2="232.51" gradientTransform="matrix(1, 0.08, -0.08, 1, 18.21, -39.3)" gradientUnits="userSpaceOnUse"><stop offset="0" stop-color="#9463d3"/><stop offset="1" stop-color="#4fb8fb"/></linearGradient><linearGradient id="linear-gradient-11" x1="261.57" y1="353.14" x2="331.02" y2="241.66" gradientUnits="userSpaceOnUse"><stop offset="0" stop-color="#2b3990"/><stop offset="1" stop-color="#1b75bc"/></linearGradient><linearGradient id="linear-gradient-12" x1="-308.86" y1="447.89" x2="-232.56" y2="325.43" gradientTransform="matrix(-0.91, 0.42, 0.42, 0.91, -282.14, 77.09)" xlink:href="#linear-gradient-11"/><linearGradient id="linear-gradient-13" x1="-325.14" y1="437.74" x2="-248.85" y2="315.28" gradientTransform="matrix(-0.91, 0.42, 0.42, 0.91, -282.14, 77.09)" xlink:href="#linear-gradient-11"/><linearGradient id="linear-gradient-14" x1="107.24" y1="280.08" x2="193.57" y2="280.08" gradientTransform="translate(-40.39 28.17) rotate(-9.62)" xlink:href="#radial-gradient"/><linearGradient id="linear-gradient-15" x1="224.27" y1="284.31" x2="299.92" y2="284.31" gradientTransform="translate(78.61 -59.26) rotate(14.89)" xlink:href="#radial-gradient"/><linearGradient id="linear-gradient-16" x1="106.8" y1="87.62" x2="106.8" y2="73.34" xlink:href="#linear-gradient-5"/><linearGradient id="linear-gradient-17" x1="170.93" y1="87.62" x2="170.93" y2="73.34" gradientUnits="userSpaceOnUse"><stop offset="0" stop-color="#592b8d"/><stop offset="1" stop-color="#592b8d"/></linearGradient><linearGradient id="linear-gradient-18" x1="235.07" y1="87.62" x2="235.07" y2="73.34" xlink:href="#linear-gradient-17"/><linearGradient id="linear-gradient-19" x1="299.2" y1="87.62" x2="299.2" y2="73.34" xlink:href="#linear-gradient-17"/><linearGradient id="linear-gradient-20" x1="132.39" y1="27.64" x2="132.39" y2="60.04" xlink:href="#linear-gradient-17"/><linearGradient id="linear-gradient-21" x1="222.27" y1="27.65" x2="222.27" y2="60.04" xlink:href="#linear-gradient-17"/><linearGradient id="linear-gradient-22" x1="172.08" y1="44.36" x2="197.03" y2="44.36" xlink:href="#linear-gradient-17"/><linearGradient id="linear-gradient-23" x1="274.64" y1="27.64" x2="274.64" y2="60.04" xlink:href="#linear-gradient-17"/><linearGradient id="linear-gradient-24" x1="90.23" y1="-38.87" x2="303.81" y2="71.44" gradientUnits="userSpaceOnUse"><stop offset="0" stop-color="#f1ca30"/><stop offset="1" stop-color="#fff"/></linearGradient><linearGradient id="linear-gradient-25" x1="238.05" y1="346.68" x2="256.15" y2="346.68" gradientUnits="userSpaceOnUse"><stop offset="0" stop-color="#2b3990"/><stop offset="1" stop-color="#8472e6"/></linearGradient><linearGradient id="linear-gradient-26" x1="278.53" y1="341.1" x2="296.64" y2="341.1" xlink:href="#linear-gradient-25"/><linearGradient id="linear-gradient-27" x1="319.9" y1="346.53" x2="338.01" y2="346.53" xlink:href="#linear-gradient-25"/><linearGradient id="linear-gradient-28" x1="131.22" y1="349.02" x2="183.24" y2="349.02" xlink:href="#linear-gradient-25"/><linearGradient id="linear-gradient-29" x1="666.69" y1="328.99" x2="697.53" y2="298.96" gradientTransform="matrix(-1, 0, 0, 1, 832.57, 0)" gradientUnits="userSpaceOnUse"><stop offset="0" stop-color="#27aae1"/><stop offset="1" stop-color="#592b8d"/></linearGradient><linearGradient id="linear-gradient-30" x1="136.08" y1="321.49" x2="145.48" y2="321.49" xlink:href="#linear-gradient-17"/><linearGradient id="linear-gradient-31" x1="139.85" y1="333.13" x2="170.54" y2="303.24" gradientTransform="matrix(1, 0, 0, 1, 0, 0)" xlink:href="#linear-gradient-29"/><linearGradient id="linear-gradient-32" x1="153.14" y1="317.04" x2="158.49" y2="317.04" xlink:href="#linear-gradient-17"/><linearGradient id="linear-gradient-33" x1="100.22" y1="290.1" x2="187.06" y2="356.99" xlink:href="#linear-gradient-24"/><linearGradient id="linear-gradient-34" x1="164.45" y1="170.4" x2="367.85" y2="299.49" xlink:href="#linear-gradient-17"/><linearGradient id="linear-gradient-35" x1="380.95" y1="400.46" x2="154.66" y2="39.17" gradientUnits="userSpaceOnUse"><stop offset="0" stop-color="#f1ca30"/><stop offset="0.1" stop-color="#f3d14c"/><stop offset="0.34" stop-color="#f7e18b"/><stop offset="0.56" stop-color="#fbeebd"/><stop offset="0.75" stop-color="#fdf7e1"/><stop offset="0.9" stop-color="#fefdf7"/><stop offset="1" stop-color="#fff"/></linearGradient></defs><title>setupCompany</title><g class="cls-1"><g id="Layer_2" data-name="Layer 2"><g id="Layer_1-2" data-name="Layer 1"><g class="cls-2"><path class="cls-3" d="M390.3,204.37c-15-18.31-35.7-31.09-47.43-52-13.73-24.48-12.62-55.64-23.46-81.78C306.67,39.85,278,19.11,247.69,11.93s-62.17-2.23-91.87,7.61C130.75,27.85,105.5,40.6,90.15,63.69,69.64,94.54,69.82,139.28,44.27,165.33c-8.94,9.11-20.36,15.06-28.94,24.57C-3.74,211-4.27,246.75,9.61,272.21S49,313.65,75.39,321s54,7,81.28,6.67l3.28,6.67a893.91,893.91,0,0,0,162.19,1.49c27.21-2.23,57-7.14,75-29.42C419.73,278.35,413.08,232.24,390.3,204.37Z"/></g><g class="cls-4"><path class="cls-5" d="M20.8,204.37c15-18.31,35.7-31.09,47.42-52C82,127.89,80.85,96.73,91.68,70.59c12.74-30.74,41.39-51.48,71.73-58.66s62.16-2.23,91.86,7.61c25.08,8.31,50.33,21.06,65.67,44.15,20.51,30.85,20.33,75.59,45.89,101.64,8.94,9.11,20.35,15.06,28.94,24.57,19.07,21.14,19.6,56.85,5.71,82.31S362.1,313.65,335.7,321s-54,7-81.27,6.67l-3.28,6.67A893.92,893.92,0,0,1,89,335.8c-27.21-2.23-57-7.14-75-29.42C-8.63,278.35-2,232.24,20.8,204.37Z"/></g><ellipse class="cls-6" cx="203" cy="337.02" rx="164.58" ry="21.12"/><polygon class="cls-7" points="274.59 213.93 274.59 269.87 131.41 93.11 131.41 37.2 274.59 213.93"/><polygon class="cls-8" points="274.59 276.37 274.59 295.95 131.41 119.22 131.41 99.64 274.59 276.37"/><rect class="cls-9" x="122.22" y="64.97" width="10.17" height="261.3"/><rect class="cls-10" x="122.22" y="64.97" width="4.69" height="261.3"/><rect class="cls-11" x="273.6" y="64.97" width="10.17" height="261.3" transform="translate(557.38 391.23) rotate(180)"/><rect class="cls-10" x="279.08" y="64.97" width="4.69" height="261.3" transform="translate(562.85 391.23) rotate(180)"/><polygon class="cls-12" points="371.28 215.38 372.69 219.72 377.26 219.72 373.56 222.41 374.98 226.76 371.28 224.07 367.58 226.76 368.99 222.41 365.3 219.72 369.87 219.72 371.28 215.38"/><polygon class="cls-12" points="81.41 214.59 83.1 219.78 88.56 219.78 84.14 222.99 85.83 228.18 81.41 224.97 77 228.18 78.69 222.99 74.27 219.78 79.73 219.78 81.41 214.59"/><polygon class="cls-12" points="101.16 108 102.58 112.35 107.14 112.35 103.45 115.03 104.86 119.38 101.16 116.7 97.47 119.38 98.88 115.03 95.18 112.35 99.75 112.35 101.16 108"/><polygon class="cls-12" points="334.7 228.68 335.79 232.03 339.32 232.03 336.47 234.1 337.56 237.45 334.7 235.38 331.85 237.45 332.94 234.1 330.09 232.03 333.62 232.03 334.7 228.68"/><g class="cls-13"><path class="cls-14" d="M70.67,125.25l27.22-.18a4.49,4.49,0,0,1,4.51,4.44l.18,27.22a4.5,4.5,0,0,1-4.45,4.51l-27.22.18a4.49,4.49,0,0,1-4.5-4.45l-.18-27.22A4.47,4.47,0,0,1,70.67,125.25Z"/></g><rect class="cls-15" x="62.17" y="120.46" width="36.17" height="36.17" rx="4.47" transform="translate(-0.92 0.54) rotate(-0.38)"/><path class="cls-16" d="M73.83,128.85a6.3,6.3,0,0,1,6.36,6.23A6.3,6.3,0,1,1,92.78,135a6.18,6.18,0,0,1-1.08,3.59l-.08.12a6.2,6.2,0,0,1-1.39,1.41l-9.89,10.09-10.1-9.9a6.11,6.11,0,0,1-1.41-1.37l-.08-.13a6.23,6.23,0,0,1-1.16-3.56A6.3,6.3,0,0,1,73.83,128.85Z"/><path class="cls-12" d="M339.15,166.68a4.89,4.89,0,1,1-4.87-4.9A4.88,4.88,0,0,1,339.15,166.68Z"/><path class="cls-12" d="M305.79,170.33a3.85,3.85,0,1,1-3.84-3.86A3.85,3.85,0,0,1,305.79,170.33Z"/><path class="cls-12" d="M96,178.6a4.89,4.89,0,1,1-4.87-4.9A4.9,4.9,0,0,1,96,178.6Z"/><path class="cls-12" d="M79.8,193a3,3,0,1,1-3-3.05A3.05,3.05,0,0,1,79.8,193Z"/><path class="cls-12" d="M107.77,199.24a6,6,0,1,1-6-6A6,6,0,0,1,107.77,199.24Z"/><path class="cls-17" d="M105,338.78H302.16s-10.56-54-57.5-64.54S216.49,313,160.17,298.88,105,338.78,105,338.78Z"/><path class="cls-18" d="M298.63,338.78H112.44s10-59.12,54.31-70.69,26.6,42.41,79.8,27S298.63,338.78,298.63,338.78Z"/><path class="cls-19" d="M157.06,322.74c-6.77,8.11-22.38,20.53-32.94,21-8.67.38-21.57-5.55-21.58-21.91,0-12.88-1.83-17-16.62-20.43S56,289,64.91,272.28,48,250,57.91,238.2c9.51-11.34,13.78-.36,27.86,3.87s17-7.49,30.31,2.19c12.59,9.18,5.15,29.08,24.84,29.12,13.93,0,26.67,3.76,30,12.95S163.38,315.18,157.06,322.74Z"/><path class="cls-20" d="M120.9,268.69c0-1-1.54-.91-1.58.1q-.41,11,0,22Q104.11,279,89.74,266.15s0,0,0-.07A29.48,29.48,0,0,1,91,250.73c.35-.94-1.07-1.65-1.42-.69a31.22,31.22,0,0,0-1.66,14.46c-1.51-1.36-3-2.71-4.52-4.09a227,227,0,0,1-18.16-18.28c-.65-.76-2,.1-1.32.87,8.68,10.06,18.61,19.1,28.66,27.82a35.72,35.72,0,0,0-12.09,3.81c-.91.47,0,1.79.86,1.32a33.5,33.5,0,0,1,12.2-3.66.75.75,0,0,0,.46-.23l3,2.59c5.35,4.6,10.81,9.09,16.33,13.49q-8,2.37-15.82,5.21c-1,.35-.46,1.85.5,1.5q8.3-3,16.78-5.51h0q9.14,7.23,18.58,14.08l0,0q-8,2.37-15.83,5.22a.79.79,0,0,0,.49,1.5q8.3-3,16.78-5.51a.64.64,0,0,0,.14-.08q9.65,6.94,19.57,13.49c.85.56,1.53-.86.69-1.42-4-2.63-7.94-5.33-11.86-8.06a.79.79,0,0,0,0-.22A29.48,29.48,0,0,1,144.67,293c.34-.94-1.07-1.65-1.42-.69a31,31,0,0,0-1.57,15q-10.56-7.41-20.77-15.29a.27.27,0,0,0,0-.13Q120.47,280.31,120.9,268.69Z"/><path class="cls-21" d="M355.17,248.28s8.93,16.94-6.72,24.93-.6,18-16.28,35.44-29,36.81-49.35,33.55S246.29,330.86,256.73,318s20.78-19.65,32-34.35S338.44,237.1,355.17,248.28Z"/><path class="cls-20" d="M348.57,252.89a78,78,0,0,0-15.89,13.28,34.54,34.54,0,0,0,.48-6.66c0-1.12-2-1.9-2-.77A32.3,32.3,0,0,1,329.84,269a.7.7,0,0,0,0,.38C320.72,279.93,313.54,292,305,303c-.57-3-1-6-1.34-8.92-.13-1.16-2.12-1.48-2-.32q.6,5.55,1.78,11.21a54.54,54.54,0,0,1-6.29,7c-2.75,2.43-6.33,3.69-9.66,5.46-6.48,3.42-9.47,10-15.23,14.16-.85.6.79,2.11,1.63,1.51,3.36-2.4,5.75-5.63,8.43-8.62a27,27,0,0,1,7.6-5.8,1,1,0,0,0,.81.09,21.53,21.53,0,0,1,11.87-.14c1.3.32,1-1.5-.31-1.81A25.58,25.58,0,0,0,295,316c5.22-3.18,8.81-7.89,12.42-12.59,4.39-5.71,8.44-11.68,12.6-17.57l.31-.44a.5.5,0,0,0,.17,0q5.82-1.16,11.92-1.75c1.18-.11.38-2-.81-1.84q-4.92.48-9.66,1.34c7.83-10.89,16.39-21.34,28.23-28.7C351.1,253.85,349.45,252.35,348.57,252.89Z"/><path class="cls-22" d="M357,287.85c-.14-.39-.3-.76-.46-1.12l0-.11h0c-3.63-7.85-11.21-4.86-13.14-3.94,1.5-2.47,2.95-5,4.39-7.45a.61.61,0,0,0,.08-.53c1.49-1.17,7.88-6.8,2.26-13.62h0l-.1-.11c-.24-.29-.5-.58-.79-.87a5.44,5.44,0,0,0-.49.43l0,0A10.37,10.37,0,0,0,347,274.19a.81.81,0,0,0-.73.4q-1.14,2-2.3,3.93c.42-3.07-.25-7.07-5.42-9.24v0l-.12,0c-.35-.14-.73-.28-1.13-.41,0,0-.09.22-.22.6l0,0h0a10.35,10.35,0,0,0,4.71,12.74c-1.4,2.3-2.85,4.58-4.37,6.8a8.64,8.64,0,0,0-2.26-6.16h0l-.09-.11c-.25-.29-.51-.58-.8-.88,0,0-.19.15-.48.42l0,0h0A10.39,10.39,0,0,0,332.11,296a61.16,61.16,0,0,1-7.73,7.79c-.27.23-.56.44-.84.66,1.39-3.13,2.08-7.8-3.09-11.62h0l0,0c-.36-.26-.74-.53-1.16-.78,0,0-5.91,7.52,1,14.78a39.43,39.43,0,0,1-13.53,5.43c2.85-1.95,6.17-5.73,3.49-11.86h0l-.05-.11c-.17-.38-.36-.77-.58-1.17,0,0-.22.09-.57.27l-.1.05a11.14,11.14,0,0,0-5.77,13.4,48.11,48.11,0,0,1-13.87-.54h0c3.14-1.39,6.86-4.42,5.53-10.77h0l0-.08c-.1-.42-.2-.85-.33-1.3,0,0-9.25,1.65-9.15,11.38-7.94-1.65-15.83-3.76-23.88-3.47,3.26-2.72,7.45-8.08,2.83-15.56h0l-.1-.15c-.27-.42-.56-.86-.88-1.29,0,0-10.2,5.9-5.58,17.34q-1.32.16-2.64.45a33.41,33.41,0,0,0-9.72,3.85c2.69-3.57,5-9.32-.47-15.71h0l-.11-.11c-.36-.41-.74-.83-1.16-1.25a7.89,7.89,0,0,0-.72.65h0c-2.17,2.15-8.17,9.42-2,19.11A2,2,0,0,1,242,317c6.38,9.71,15.51,7.13,18.37,6h0c.55-.22.87-.39.87-.39-.21-.55-.44-1.06-.67-1.56l-.07-.15h0c-3.76-7.77-10.21-7.78-14.57-6.66a34.49,34.49,0,0,1,12.41-4.44l.11.22.56-.32c.23,0,.48,0,.71-.06,5.25,13,17.45,8.82,17.45,8.82-.12-.55-.26-1.07-.4-1.56l0-.13h0a11.81,11.81,0,0,0-4.16-6.33c4.3.76,8.56,1.83,12.84,2.72,0,.07,0,.14,0,.21s.21,0,.57-.09l.51.11c.33,9.6,7.79,11.32,10.2,11.62h0c.46.06.74.07.74.07.06-.45.1-.88.12-1.3v-.12h0c.3-5.73-2.9-8.29-5.93-9.42a47.84,47.84,0,0,0,6.23.47,43.5,43.5,0,0,0,5.39-.29,11.11,11.11,0,0,0,10.09,10.3h0a6.27,6.27,0,0,0,.73.06,12.17,12.17,0,0,0,.13-1.3v-.12h0c.31-6.2-3.46-8.68-6.68-9.66a41.87,41.87,0,0,0,13.8-5.85l0,0c2.1,8,9,8.6,11.25,8.6h.07c.43,0,.67,0,.67,0,0-.47,0-.91,0-1.33V315h0c-.55-7.23-6-8.71-9.46-8.91a48.87,48.87,0,0,0,4.65-3.95,65.42,65.42,0,0,0,5.19-5.6c5.29,8.81,13.86,4.55,13.86,4.55-.14-.4-.3-.76-.46-1.11l0-.12h0c-3.39-7.32-10.21-5.21-12.67-4.15A118.34,118.34,0,0,0,343,283.17C348.3,292.15,357,287.85,357,287.85Z"/><path class="cls-23" d="M90.11,294.89l.06-.07h0c6.65-8,14.77-.11,14.77-.11-6.58,6.75-13.1,3-15,1.66l-.05,0a6.51,6.51,0,0,1-.52-.4C89.59,295.55,89.85,295.21,90.11,294.89Z"/><path class="cls-24" d="M103.63,310.56h0c2.55-5.49,6.93-5.92,10.16-5.3a40.8,40.8,0,0,1-9.25-11.32l-.08,0,0-.23a48.69,48.69,0,0,1-3.46-8A64.6,64.6,0,0,1,99,278.58c-8.58,5.19-14-2.38-14-2.38.31-.28.61-.53.9-.76l.1-.08h0c6.25-4.77,11.17.15,12.82,2.19a114.49,114.49,0,0,1-1.75-14.8c-8.65,5.35-14.17-2.3-14.17-2.3.31-.27.61-.52.91-.76l.09-.07h0c6.69-5.12,11.88.91,13.12,2.58-.17-2.82-.28-5.63-.4-8.43a.59.59,0,0,1,.18-.49c-.76-1.69-3.71-9.45,4.24-12.79h0l.14,0c.34-.13.69-.27,1.08-.39a5.83,5.83,0,0,1,.23.6v0a10.11,10.11,0,0,1-4.79,12.52.81.81,0,0,1,.45.68c.06,1.48.12,3,.19,4.44,1-2.84,3.44-6,8.89-5.51h.12c.38,0,.76.09,1.17.16,0,0,0,.23-.08.62v0h0a10.1,10.1,0,0,1-9.86,8.86c.16,2.62.38,5.25.68,7.86a8.39,8.39,0,0,1,4.75-4.29h0l.13-.05c.35-.14.7-.27,1.09-.39a5.26,5.26,0,0,1,.22.58l0,.05h0a10.13,10.13,0,0,1-4.84,12.55A60.38,60.38,0,0,0,103.77,289c.13.33.29.63.42,1,.23-3.33,1.76-7.67,8-8.62h0c.42-.06.88-.12,1.35-.14,0,0,1.68,9.18-7.56,12.32a38.77,38.77,0,0,0,9.21,10.84c-1.57-3-2.72-7.76,2.39-11.83h0l.1-.07c.32-.25.66-.5,1-.75,0,0,.15.18.38.5l.06.08A10.87,10.87,0,0,1,118,306.47a47.15,47.15,0,0,0,12.21,5.85h0c-2.07-2.62-3.9-6.93.13-11.81h0l.06-.07a12.59,12.59,0,0,1,.87-1s7.23,5.62,2.71,14c7.61,2.18,15.38,3.94,22.19,7.86-1.57-3.83-2.75-10.37,4.63-14.72h0l.16-.08q.63-.37,1.35-.72s6.11,9.74-3.07,17.51c.71.5,1.4,1,2.07,1.59a32.75,32.75,0,0,1,6.64,7.74c-.7-4.3-.05-10.3,7.55-13.34h0l.14,0c.5-.19,1-.38,1.58-.55,0,0,.14.33.32.89h0c.9,2.85,2.77,11.84-7,17.4a1.94,1.94,0,0,0-1.75,1c-9.93,5.49-16.64-.89-18.59-3.17h0c-.38-.44-.58-.73-.58-.73.43-.38.86-.72,1.29-1l.13-.1h0c6.78-5,12.35-2.08,15.6.87a33.61,33.61,0,0,0-8.69-9.47l-.19.14s-.13-.19-.34-.54c-.19-.13-.39-.25-.59-.37-10.42,8.8-19.07-.32-19.07-.32.35-.43.71-.81,1.06-1.17l.08-.09h0a11.51,11.51,0,0,1,6.47-3.58c-4.05-1.3-8.21-2.31-12.32-3.49,0,.06-.07.12-.11.17s-.17-.11-.45-.33l-.49-.15c-4.65,8.15-11.87,6.24-14.09,5.4h0c-.42-.16-.66-.28-.66-.28.15-.42.31-.81.48-1.18l.05-.11h0c2.35-5.07,6.27-5.83,9.41-5.42a47.69,47.69,0,0,1-5.59-2.43,43.86,43.86,0,0,1-4.52-2.7,10.86,10.86,0,0,1-13.4,4.3h0c-.43-.16-.67-.28-.67-.28.15-.42.31-.81.48-1.18Z"/><path class="cls-25" d="M168.93,346.76c-11,2.16-32.12,2-41.12-4.67-7.39-5.46-14.07-18.94-3.17-32.43,8.58-10.61,9.82-15.23-.08-27.9s-16.36-30.2,2.1-38,.88-29.6,16.94-32.73c15.4-3,11.59,8.89,20.37,21.76s19,5.17,23.5,22c4.26,15.95-15.13,27.38,1.06,40.54C200,304.66,208,316.21,204.58,326S179.17,344.74,168.93,346.76Z"/><path class="cls-20" d="M175.16,278.14c.71-.81-.66-1.77-1.36-1q-7.68,8.81-14.7,18.17-4.64-19.89-7.9-40.06l.05-.05a31.12,31.12,0,0,1,11.26-11.8c.91-.55.21-2.07-.71-1.52a33,33,0,0,0-11,10.81c-.34-2.13-.69-4.26-1-6.39A237.82,237.82,0,0,1,147,219.18c0-1.07-1.7-1.25-1.67-.17.44,14.07,2.6,28.13,5.06,42a37.75,37.75,0,0,0-12.5-4.92c-1.06-.21-1.21,1.45-.17,1.66a35.77,35.77,0,0,1,12.49,5.11.77.77,0,0,0,.53.13l.75,4.12q2,11,4.46,22c-5.44-2.24-10.94-4.34-16.51-6.25-1-.35-1.61,1.22-.59,1.57q8.85,3,17.5,6.64h0q2.72,12,5.92,24v0c-5.44-2.24-11-4.34-16.52-6.25-1-.35-1.61,1.21-.59,1.56q8.85,3,17.5,6.65a.76.76,0,0,0,.16,0q3.31,12.15,7.13,24.15c.32,1,1.84.31,1.51-.7-1.53-4.83-3-9.69-4.39-14.55a1,1,0,0,0,.15-.18A31.2,31.2,0,0,1,178.54,314c.91-.55.22-2.08-.71-1.52a32.94,32.94,0,0,0-11.32,11.34q-3.75-13.14-6.91-26.43s.08,0,.11-.1Q167.06,287.43,175.16,278.14Z"/><path class="cls-26" d="M245.65,341.88c-9.55-2.26-26.34-10.08-31.1-18.66-3.91-7-4.33-20.22,9.26-27,10.7-5.34,13.37-8.58,10.08-22.28s-2.07-30,15.47-29.52,11.47-23.28,25.41-19.94c13.36,3.21,6,11.31,8.33,24.75s13.29,11,10.75,26.08c-2.41,14.27-22,16.34-13.9,32.71,5.76,11.59,7.94,23.71,1.67,30.26S254.54,344,245.65,341.88Z"/><path class="cls-20" d="M275.55,289.43c.86-.39.12-1.65-.73-1.26q-9.33,4.23-18.32,9.14,3.53-17.54,8.25-34.81l.06,0a27.39,27.39,0,0,1,13.27-5.32c.92-.11.92-1.58,0-1.47a28.82,28.82,0,0,0-12.7,4.62c.51-1.82,1-3.64,1.52-5.46a212.35,212.35,0,0,1,7.66-22.65c.36-.86-.9-1.61-1.26-.74-4.77,11.37-8.15,23.37-11.24,35.33a33,33,0,0,0-8.17-8.46c-.77-.56-1.5.72-.74,1.26a31.24,31.24,0,0,1,8.1,8.62.7.7,0,0,0,.38.29c-.3,1.19-.61,2.37-.91,3.56q-2.4,9.54-4.44,19.16-5.28-5.66-10.89-11c-.68-.65-1.72.38-1,1q6,5.64,11.54,11.66h0q-2.22,10.59-4,21.27v0c-3.53-3.77-7.15-7.44-10.9-11-.68-.64-1.72.39-1,1q6,5.64,11.53,11.65l.12.09q-1.77,10.89-3.09,21.85c-.11.93,1.35.91,1.46,0q.81-6.6,1.79-13.19a.76.76,0,0,0,.18-.09,27.39,27.39,0,0,1,13.27-5.32c.93-.1.93-1.57,0-1.46a28.76,28.76,0,0,0-13.15,4.92q1.78-11.84,4.09-23.58l.12,0Q265.73,293.9,275.55,289.43Z"/><polygon class="cls-27" points="251.07 69.1 219.07 69.1 209.64 52.28 234.79 52.28 251.07 69.1"/><polygon class="cls-27" points="147.13 52.28 122.82 69.1 90.8 69.1 117.72 52.28 147.13 52.28"/><polygon class="cls-27" points="197.35 52.28 186.97 69.1 154.9 69.1 172.1 52.28 197.35 52.28"/><polygon class="cls-28" points="172.25 52.28 154.9 69.1 122.81 69.1 147.03 52.28 172.25 52.28"/><polygon class="cls-28" points="283.19 69.1 251.05 69.1 234.73 52.28 259.86 52.28 283.19 69.1"/><polygon class="cls-27" points="315.19 69.1 283.14 69.1 259.73 52.28 288.99 52.28 315.19 69.1"/><polygon class="cls-28" points="209.69 52.28 219.1 69.1 186.97 69.1 197.35 52.28 209.69 52.28"/><path class="cls-29" d="M122.83,69.1V79.73a4.35,4.35,0,0,1,0,.51c-.23,9.76-7.31,17.58-16,17.58S91,90,90.78,80.24a4.35,4.35,0,0,1,0-.51V69.1Z"/><path class="cls-30" d="M154.9,69.1V79.73a4.35,4.35,0,0,1,0,.51c-.23,9.76-7.31,17.58-16,17.58s-15.78-7.82-16-17.58c0-.17,0-.34,0-.51V69.1Z"/><path class="cls-31" d="M187,69.1V79.73a4.35,4.35,0,0,1,0,.51c-.24,9.76-7.31,17.58-16,17.58s-15.78-7.82-16-17.58c0-.17,0-.34,0-.51V69.1Z"/><path class="cls-30" d="M219,69.1V79.73c0,.17,0,.34,0,.51-.24,9.76-7.32,17.58-16,17.58S187.21,90,187,80.24c0-.17,0-.34,0-.51V69.1Z"/><path class="cls-32" d="M251.1,69.1V79.73c0,.17,0,.34,0,.51-.24,9.76-7.32,17.58-16,17.58s-15.79-7.82-16-17.58a4.35,4.35,0,0,1,0-.51V69.1Z"/><path class="cls-33" d="M315.24,69.1V79.73a4.35,4.35,0,0,1,0,.51c-.23,9.76-7.31,17.58-16,17.58s-15.79-7.82-16-17.58c0-.17,0-.34,0-.51V69.1Z"/><path class="cls-30" d="M283.17,69.1V79.73c0,.17,0,.34,0,.51-.24,9.76-7.32,17.58-16,17.58s-15.79-7.82-16-17.58c0-.17,0-.34,0-.51V69.1Z"/><path class="cls-28" d="M90.78,80.24h0v-.51A4.35,4.35,0,0,0,90.78,80.24Z"/><path class="cls-28" d="M122.83,79.73v.51h0A4.35,4.35,0,0,0,122.83,79.73Z"/><path class="cls-34" d="M123.27,36.21c-3.16,0-5.71,3.76-5.71,8.4v7.91h29.67V36.21Z"/><rect class="cls-30" x="147.23" y="36.21" width="24.96" height="16.31"/><rect class="cls-30" x="234.88" y="36.21" width="24.96" height="16.31"/><rect class="cls-35" x="209.79" y="36.21" width="24.96" height="16.31"/><rect class="cls-36" x="172.08" y="36.21" width="24.96" height="16.31"/><rect class="cls-30" x="197.14" y="36.21" width="12.76" height="16.31"/><path class="cls-37" d="M284.34,36.21H259.8V52.52h29.67V43.76C289.47,39.59,287.17,36.21,284.34,36.21Z"/><rect class="cls-38" x="116.93" width="172.14" height="38.75" rx="4.24"/><path class="cls-39" d="M286.57,4.24V34.51a1.76,1.76,0,0,1-1.75,1.74H121.18a1.75,1.75,0,0,1-1.75-1.74V4.24a1.74,1.74,0,0,1,1.75-1.74H284.82A1.75,1.75,0,0,1,286.57,4.24Z"/><path class="cls-38" d="M164.15,21.72v2.16c0,2.59-1.94,4.08-5.69,4.08s-5.68-1.49-5.68-4.08V15.44c0-2.59,1.94-4.08,5.68-4.08s5.69,1.49,5.69,4.08V17h-3.61V15.28c0-1.16-.76-1.6-2-1.6s-2,.44-2,1.6V24c0,1.16.76,1.58,2,1.58s2-.42,2-1.58V21.72Z"/><path class="cls-38" d="M166.16,15.44c0-2.59,2-4.08,5.79-4.08s5.79,1.49,5.79,4.08v8.44c0,2.59-2.05,4.08-5.79,4.08s-5.79-1.49-5.79-4.08ZM170,24c0,1.16.76,1.6,2,1.6s2-.44,2-1.6V15.28c0-1.16-.76-1.6-2-1.6s-2,.44-2,1.6Z"/><path class="cls-38" d="M188.28,23.07l2.6-11.52h5.31V27.77h-3.61V16.14l-2.64,11.63h-3.6L183.49,16.3V27.77h-3.33V11.55h5.31Z"/><path class="cls-38" d="M210.26,15.56v2.11c0,2.59-1.87,4-5.69,4h-1.8v6.09H199V11.55h5.62C208.39,11.55,210.26,13,210.26,15.56Zm-7.49-1.69v5.49h1.8c1.22,0,1.88-.37,1.88-1.53V15.39c0-1.15-.66-1.52-1.88-1.52Z"/><path class="cls-38" d="M224.09,27.77h-3.85l-.66-2.94H214.9l-.66,2.94h-3.5l3.89-16.22h5.58Zm-8.7-5.14h3.67l-1.83-8.21Z"/><path class="cls-38" d="M229.26,16V27.77h-3.44V11.55h4.79l3.92,9.71V11.55h3.4V27.77H234Z"/><path class="cls-38" d="M244.23,22.39l-4.82-10.84h4l2.91,7.39,2.92-7.39h3.64l-4.82,10.84v5.38h-3.82Z"/><path class="cls-40" d="M286.57,4.24V34.51a1.76,1.76,0,0,1-1.75,1.74H259.87c24.64-6.92,25.81-28,4.55-25.54C153.89,23.57,121.18,2.5,121.18,2.5H284.82A1.75,1.75,0,0,1,286.57,4.24Z"/><path class="cls-41" d="M256.15,346.68c0,1-4,1.78-9,1.78s-9-.8-9-1.78,4-1.79,9-1.79S256.15,345.69,256.15,346.68Z"/><path class="cls-42" d="M296.64,341.1c0,1-4.05,1.79-9.05,1.79s-9.06-.8-9.06-1.79,4.06-1.78,9.06-1.78S296.64,340.12,296.64,341.1Z"/><ellipse class="cls-43" cx="328.95" cy="346.53" rx="9.05" ry="1.79"/><path class="cls-44" d="M183.24,349c0,2.34-11.64,4.23-26,4.23s-26-1.89-26-4.23,11.65-4.23,26-4.23S183.24,346.69,183.24,349Z"/><path class="cls-45" d="M132.78,310.77,135.71,348c0,1.66,6.41,3,14.32,3s14.32-1.34,14.32-3l2.93-37.26Z"/><path class="cls-45" d="M167.28,310.77c0,2-7.72,3.62-17.25,3.62A56.27,56.27,0,0,1,136.38,313c-2.26-.61-3.6-1.38-3.6-2.21,0-2,7.73-3.62,17.25-3.62S167.28,308.77,167.28,310.77Z"/><path class="cls-46" d="M150,313.59c-10.32,0-16.28-1.87-16.44-2.82.16-1,6.12-2.82,16.44-2.82s16.28,1.86,16.45,2.82C166.31,311.72,160.35,313.59,150,313.59Z"/><path class="cls-16" d="M165.8,299.54l3.3-3.54,1.63-1.75-.19,2.28-.4,4.93C166.56,301.77,165.8,299.54,165.8,299.54Z"/><path class="cls-47" d="M169.1,296l1.63-1.75-.19,2.28A4.3,4.3,0,0,1,169.1,296Z"/><path class="cls-47" d="M167.48,301.61c-1.19-.53-1.95-1.45-1.68-2.07,1.28,1.92,4.34,1.92,4.34,1.92C169.87,302.07,168.68,302.14,167.48,301.61Z"/><path class="cls-47" d="M148.21,339.44l3-6.75c-.26.62.49,1.54,1.68,2.06s2.39.46,2.66-.15l-3,6.75c-.27.61-1.46.68-2.66.16S147.94,340.05,148.21,339.44Z"/><path class="cls-15" d="M151.19,332.69h0l14.61-33.15c-.27.62.49,1.54,1.68,2.07s2.39.46,2.66-.15L155.53,334.6c-.27.61-1.46.68-2.66.15S150.93,333.31,151.19,332.69Z"/><path class="cls-48" d="M151,305l-1.86-.79a1.58,1.58,0,0,0-.61-.12h-3a1.56,1.56,0,0,0-1.56,1.57v11a1.58,1.58,0,0,0,.52,1.17l.86.77a1.57,1.57,0,0,0,2.52-.62l4-11A1.57,1.57,0,0,0,151,305Z"/><rect class="cls-16" x="146.06" y="304.76" width="5.35" height="14.55" rx="1.95" transform="translate(297.47 624.07) rotate(180)"/><path class="cls-16" d="M151.55,295.34l2.36-4.23,1.16-2.08.36,2.26.78,4.87C152.81,297.33,151.55,295.34,151.55,295.34Z"/><path class="cls-49" d="M153.91,291.11l1.16-2.08.36,2.26A4,4,0,0,1,153.91,291.11Z"/><path class="cls-49" d="M153.67,297c-1.29-.23-2.24-.95-2.12-1.61,1.69,1.56,4.66.82,4.66.82C156.1,296.82,155,297.17,153.67,297Z"/><path class="cls-47" d="M144,338.28l1.28-7.26c-.11.66.84,1.37,2.12,1.6s2.43-.12,2.55-.78l-1.28,7.26c-.12.66-1.26,1-2.55.79S143.86,338.94,144,338.28Z"/><path class="cls-49" d="M145.26,331h0l6.29-35.67c-.12.66.83,1.38,2.12,1.61s2.43-.13,2.54-.79l-6.28,35.68c-.12.66-1.26,1-2.55.78S145.15,331.68,145.26,331Z"/><path class="cls-16" d="M136.08,303.38l1-4.75.48-2.33,1,2.05,2.21,4.41C137.88,304.89,136.08,303.38,136.08,303.38Z"/><path class="cls-50" d="M137.06,298.63l.48-2.33,1,2.05A4.16,4.16,0,0,1,137.06,298.63Z"/><path class="cls-50" d="M138.58,304.27c-1.3.17-2.42-.23-2.5-.89,2.08,1,4.7-.62,4.7-.62C140.86,303.42,139.88,304.1,138.58,304.27Z"/><path class="cls-50" d="M141.73,346.61l-.95-7.31c.09.66,1.21,1.06,2.5.89s2.28-.85,2.2-1.51l1,7.31c.09.67-.89,1.34-2.19,1.51S141.82,347.27,141.73,346.61Z"/><path class="cls-51" d="M140.78,339.3h0l-4.7-35.91c.08.66,1.2,1.06,2.5.89s2.28-.85,2.2-1.51l4.7,35.92c.08.66-.9,1.34-2.2,1.51S140.87,340,140.78,339.3Z"/><path class="cls-52" d="M155,309.35l1.26-.84a1.53,1.53,0,0,1,.83-.25h3a1.49,1.49,0,0,1,1.48,1.49v11.12a1.48,1.48,0,0,1-.49,1.1l-.88.79a1.48,1.48,0,0,1-2.41-.67l-4.5-11.26C153.12,310.2,154.49,309.72,155,309.35Z"/><rect class="cls-53" x="153.14" y="309.76" width="5.35" height="14.55" rx="1.88"/><path class="cls-54" d="M167.28,310.77,164.35,348c0,1.65-6.41,3-14.32,3a55.6,55.6,0,0,1-8.52-.6c-3.51-.55-5.79-1.42-5.79-2.41l-2.93-37.26h.8c.08.39,1.13.94,3,1.45A55.19,55.19,0,0,0,150,313.59c10.33,0,16.28-1.87,16.44-2.82Z"/><path class="cls-55" d="M167.28,310.77,164.35,348c0,1.65-6.41,3-14.32,3a55.6,55.6,0,0,1-8.52-.6c-5.23-6.13,5.42-10.73,12.89-14.66,8.74-4.6,17.48-14.49,4.83-14.26-10.59.19-20-6.38-22.85-8.54A56.27,56.27,0,0,0,150,314.39C159.56,314.39,167.28,312.77,167.28,310.77Z"/><rect class="cls-56" x="280.82" y="243.36" width="5.3" height="98.04"/><polygon class="cls-56" points="277.21 260.58 244.63 346.99 238.51 346.99 272.62 256.52 277.21 260.58"/><polygon class="cls-56" points="328.44 346.99 322.32 346.99 289.74 260.58 294.33 256.52 328.44 346.99"/><path class="cls-57" d="M330.74,203.85H236.21a6.1,6.1,0,0,0-5.84,6.34V281.7a6.11,6.11,0,0,0,5.84,6.34h94.53a6.11,6.11,0,0,0,5.84-6.34V210.19A6.1,6.1,0,0,0,330.74,203.85Z"/><rect class="cls-58" x="238.43" y="210.12" width="90.1" height="69.42"/><path class="cls-56" d="M301,271H324.6a4.09,4.09,0,0,1,4.09,4.09v12.56a0,0,0,0,1,0,0H296.86a0,0,0,0,1,0,0V275.11A4.09,4.09,0,0,1,301,271Z"/><path class="cls-10" d="M303.85,271h23.64a4.09,4.09,0,0,1,4.09,4.09v12.56a0,0,0,0,1,0,0H299.76a0,0,0,0,1,0,0V275.11A4.09,4.09,0,0,1,303.85,271Z"/><g class="cls-59"><rect class="cls-56" x="240.95" y="212.15" width="0.51" height="5.17"/><rect class="cls-56" x="243.76" y="212.15" width="0.51" height="5.17"/><rect class="cls-56" x="246.57" y="212.15" width="0.51" height="5.17"/><rect class="cls-56" x="249.38" y="212.15" width="0.51" height="5.17"/><rect class="cls-56" x="252.19" y="212.15" width="0.51" height="8.71"/><rect class="cls-56" x="255.25" y="212.15" width="0.51" height="5.17"/><rect class="cls-56" x="258.06" y="212.15" width="0.51" height="5.17"/><rect class="cls-56" x="260.87" y="212.15" width="0.51" height="5.17"/><rect class="cls-56" x="263.67" y="212.15" width="0.51" height="5.17"/><rect class="cls-56" x="266.48" y="212.15" width="0.51" height="8.71"/><rect class="cls-56" x="269.55" y="212.15" width="0.51" height="5.17"/><rect class="cls-56" x="272.35" y="212.15" width="0.51" height="5.17"/><rect class="cls-56" x="275.16" y="212.15" width="0.51" height="5.17"/><rect class="cls-56" x="277.97" y="212.15" width="0.51" height="5.17"/><rect class="cls-56" x="280.78" y="212.15" width="0.51" height="8.71"/><rect class="cls-56" x="283.84" y="212.15" width="0.51" height="5.17"/><rect class="cls-56" x="286.65" y="212.15" width="0.51" height="5.17"/><rect class="cls-56" x="289.46" y="212.15" width="0.51" height="5.17"/><rect class="cls-56" x="292.27" y="212.15" width="0.51" height="5.17"/><rect class="cls-56" x="295.08" y="212.15" width="0.51" height="8.71"/><rect class="cls-56" x="298.14" y="212.15" width="0.51" height="5.17"/><rect class="cls-56" x="300.95" y="212.15" width="0.51" height="5.17"/><rect class="cls-56" x="303.76" y="212.15" width="0.51" height="5.17"/><rect class="cls-56" x="306.57" y="212.15" width="0.51" height="5.17"/><rect class="cls-56" x="309.37" y="212.15" width="0.51" height="8.71"/><rect class="cls-56" x="312.44" y="212.15" width="0.51" height="5.17"/><rect class="cls-56" x="315.25" y="212.15" width="0.51" height="5.17"/><rect class="cls-56" x="318.06" y="212.15" width="0.51" height="5.17"/><rect class="cls-56" x="320.86" y="212.15" width="0.51" height="5.17"/><rect class="cls-56" x="323.67" y="212.15" width="0.51" height="8.71"/></g><g class="cls-59"><path class="cls-60" d="M313.11,230.67a1.78,1.78,0,0,0-1.52.91H286.24v-.91h-3.71v.91H257.18a1.78,1.78,0,0,0-1.53-.91,1.94,1.94,0,0,0,0,3.87,1.79,1.79,0,0,0,1.53-.92h15.31a21.34,21.34,0,0,0-8.48,6,24.21,24.21,0,0,0-5.39,12.83h-.9v3.88h3.59v-3.88h-.69a22.11,22.11,0,0,1,4.88-11.48c3.83-4.47,9.55-6.91,17-7.26v.86h3.71v-.86c7.47.35,13.2,2.79,17,7.26a22.05,22.05,0,0,1,4.89,11.48h-.7v3.88h3.6v-3.88h-.9a24.32,24.32,0,0,0-5.4-12.83,21.3,21.3,0,0,0-8.47-6h15.31a1.79,1.79,0,0,0,1.52.92,1.94,1.94,0,0,0,0-3.87Z"/><ellipse class="cls-60" cx="284.57" cy="251.47" rx="10.04" ry="10.14"/></g><path class="cls-61" d="M262.65,203.44a44.8,44.8,0,0,1-16.43,17.21s-1.17,26.6-16.43,46.94L235.66,207l17.21-3.13Z"/><path class="cls-62" d="M212.7,380.27s-1.71-.16-2.26,2.1-.75,5.75-1.31,7.81c-.61,2.25,1.58,4.08,4.51,4.09s3.84.41,5-1.36c1.29-2-.7-4.39-1.28-6.24C216.19,383.1,214.82,380.21,212.7,380.27Z"/><path class="cls-63" d="M214.79,382.12l.81-8.34c-1.68,0-3.36-.09-5-.15l1,9.4s-2.54,5.72,1.78,6.34c1.89.27,5,.41,3-2.24A6.1,6.1,0,0,1,214.79,382.12Z"/><path class="cls-64" d="M213.31,382.57l-.62-8.86-2.13-.08,1,9.4s-2.59,6.44,1.78,6.34C210,387.29,213.31,382.57,213.31,382.57Z"/><path class="cls-65" d="M212.17,390.55c-.66.23-1.66,2.2.28,2.44s5.74.73,5.75-.7S215.94,389.24,212.17,390.55Z"/><path class="cls-50" d="M225,332.34l-8.1,47.34a12,12,0,0,1-7.58-.3l3.08-48.78L207.63,293l0-.35-3.51-37.17a102.16,102.16,0,0,1,13.77.69h0l.34.1c2.6.83,5,1.83,6,2.87C236.92,272.36,225,332.34,225,332.34Z"/><path class="cls-62" d="M201.24,318.67s3.3-.73,4.5,4.5.25,21.4-4,21.07-5.49-11.53-5.19-15.12S197.21,320.49,201.24,318.67Z"/><path class="cls-63" d="M201.33,318.12s2.46,1.73,2.82,2.62c.9,2.21.92,4.43-.47,5.67-.72.64-3.46-.8-3.46-.8Z"/><path class="cls-65" d="M201.85,341.11c-2.82,0-3.79-3.11-3.86-8.67s4.44-6.06,6.24-2.73S204.12,341.12,201.85,341.11Z"/><path class="cls-63" d="M202,334.57c-2.31,0-3.09-2.54-3.15-7.08s3.62-4.94,5.09-2.23S203.89,334.57,202,334.57Z"/><path class="cls-50" d="M218.23,256.22l0,.06-10.63,36.37-.21,1s-1.19,30.19-8.37,36c-3.31,2.67-7.3,1.4-10.15-1.77-12-13.36-9.38-59.16,4.52-70,2.06-1.62,6.31-2.22,10.7-2.34a102.16,102.16,0,0,1,13.77.69h0Z"/><path class="cls-66" d="M207.75,290.83,195.4,321a14.73,14.73,0,0,0-1.28,5.95,4.21,4.21,0,0,0,.59,2.63,3.57,3.57,0,0,0,4.29,0C206.18,323.79,207.75,290.83,207.75,290.83Z"/><polygon class="cls-66" points="209.31 379.38 212.39 330.6 207.58 292.64 207.74 290.82 217.76 331.41 209.31 379.38"/><path class="cls-67" d="M238.72,198.57l20.44-15.22,20.43-26.26a38.39,38.39,0,0,0,1.59-8.8c.05-1.85.7-2.77.73-3.58a.54.54,0,0,1,.94-.36,3.71,3.71,0,0,1,.69,3.53.3.3,0,0,0,.49.32,11.38,11.38,0,0,0,1.43-1.69c1.28-1.78,3.61-2.51,5.64-.24,3.8,4.24.32,5.34-.9,7.44a52.92,52.92,0,0,1-4.73,5.64L272.2,186.93l-20.73,18.59Z"/><path class="cls-50" d="M232.47,216.49s12.39.41,23-11.89l-7.84-13.41-14.41,7.32Z"/><path class="cls-15" d="M271.53,112.07l55,23.15a3.26,3.26,0,0,1,1.74,4.27l-8.35,19.82a3.26,3.26,0,0,1-4.27,1.74l-43.47-18.31c-4.11,2.06-9.21,4.87-9.21,4.87l1.51-8.11-3.78-1.6a3.26,3.26,0,0,1-1.74-4.27l8.35-19.82A3.26,3.26,0,0,1,271.53,112.07Z"/><path class="cls-67" d="M290.15,153.77s3.55-3,3.27-5.87a5.38,5.38,0,0,0-4.61-4.49c-1.33,0-5,4.9-5,4.9S284.6,154.06,290.15,153.77Z"/><path class="cls-68" d="M287.76,134.25a3.26,3.26,0,1,1-1.85-4.23A3.26,3.26,0,0,1,287.76,134.25Z"/><path class="cls-68" d="M297.67,138.13a3.26,3.26,0,1,1-1.85-4.23A3.26,3.26,0,0,1,297.67,138.13Z"/><path class="cls-68" d="M307.58,142a3.26,3.26,0,1,1-1.85-4.23A3.27,3.27,0,0,1,307.58,142Z"/><path class="cls-28" d="M221.07,192.93c-4-.09-12.93-3.33-15.78,2.89-3.41,7.47-19.34,53.78-14.68,58.85,11,11.94,34.06,13.55,37.87,9,7.33-8.85,17.34-47.32,6.27-65.63C234,196.82,229.41,193.11,221.07,192.93Z"/><path class="cls-63" d="M235.08,175.36s3.32-2.19,4.55.73-2.4,6.86-5.09,6.39Z"/><path class="cls-69" d="M235,177c.74-.32,2.06-.64,2.66.79.79,1.87-1.26,4.34-3.06,4.51Z"/><path class="cls-63" d="M214.63,173.83s-3-2.65-4.61,0,1.36,7.15,4.09,7.08Z"/><path class="cls-69" d="M214.12,180.72c-1.75-.43-3.41-3.18-2.36-4.91.81-1.33,2.07-.82,2.75-.39Z"/><path class="cls-62" d="M235.52,164.29s4,7.23.37,12.35-22.42.09-22.42.09-6.3-13.15,1.66-16c0,0-1.41-6.21,7-4.4A25.44,25.44,0,0,1,235.52,164.29Z"/><path class="cls-63" d="M227.47,197.73a6.11,6.11,0,0,1-4.86,2.22,7.41,7.41,0,0,1-4.87-2.87l.57-4.86c.16-1.47.31-2.76.33-3l9.34.7-.25,3.82Z"/><path class="cls-69" d="M227.73,193.76a7.61,7.61,0,0,1-4.44,1.7c-1.48-.11-3.41-1.43-5-3.24.16-1.47.31-2.76.33-3l9.34.7Z"/><path class="cls-63" d="M235.89,167.6c-.32-4.76-19.89-6.23-20.92-1.56,0,0-2.91,16.92-.8,20.13s6.34,7,9.27,7.26,7.7-3,10.25-5.8S235.89,167.6,235.89,167.6Z"/><path class="cls-62" d="M216.31,162.72s2.31,5.62,13,5.58c8.41,0,17.17-8.66,11.88-10.62C234.52,155.21,217.22,153.38,216.31,162.72Z"/><path class="cls-70" d="M220,179.3a1.91,1.91,0,1,1-1.76-2A1.9,1.9,0,0,1,220,179.3Z"/><path class="cls-70" d="M233.66,180.32a1.9,1.9,0,1,1-1.75-2A1.9,1.9,0,0,1,233.66,180.32Z"/><path class="cls-71" d="M224.31,264s-4-8.73-4.83-11.6-21.93-21.1-26.07-21.44C190.85,230.75,224.31,264,224.31,264Z"/><path class="cls-16" d="M218.37,253.25l4,7.22,2,3.54-3.59-1.51L213,259.25C214.36,253.29,218.37,253.25,218.37,253.25Z"/><path class="cls-47" d="M222.35,260.47l2,3.54-3.59-1.51A6.86,6.86,0,0,1,222.35,260.47Z"/><path class="cls-47" d="M214.14,254.87c1.49-1.66,3.38-2.38,4.23-1.62-3.77,1.05-5.39,6-5.39,6C212.13,258.49,212.65,256.53,214.14,254.87Z"/><path class="cls-47" d="M163.22,203.67l9.33,8.38c-.85-.75-2.74,0-4.22,1.63s-2,3.61-1.16,4.37l-9.34-8.39c-.84-.76-.32-2.72,1.16-4.37S162.38,202.91,163.22,203.67Z"/><path class="cls-15" d="M172.55,212.05h0l45.81,41.19c-.85-.76-2.74,0-4.23,1.62s-2,3.62-1.16,4.38l-45.81-41.2c-.85-.76-.33-2.72,1.16-4.37S171.7,211.3,172.55,212.05Z"/><path class="cls-63" d="M199.55,242l-1.71,2.48,3.89,3.38s-.11,7.18,2.26,8.26,7.4,4.09,6.44,1.4-3.59-4.25-3.25-6.19,1-2.26,1-2.26,4.23,3.27,3.39.65-2.67-3.49-3.29-4.55-4.64-1.21-6.09-2.1A8,8,0,0,0,199.55,242Z"/><path class="cls-63" d="M203.14,243.8s-18.33-22.32-23.72-21.23-9.47,8-2.19,12.65a202.38,202.38,0,0,0,24.48,12.84Z"/><path class="cls-63" d="M202.39,195.79c-12.39,4.58-32.75,31.89-29.11,36.45,2.3,2.87,2.61,3.66,11.44-1.71s19.93-19.41,24.78-25.17C212.44,201.86,216.48,190.59,202.39,195.79Z"/><path class="cls-50" d="M198.4,220.37s-2.3-2.08-4.89-4.6c-3.06-3-6.52-6.61-6.95-8.09,0,0,12.86-16.93,21.94-15.27a6.13,6.13,0,0,1,4.3,2.51c2.55,3.89-.82,10.82-2.59,13.27C207.72,211.63,198.4,220.37,198.4,220.37Z"/><path class="cls-72" d="M193.51,215.77c-3.06-3-6.52-6.61-6.95-8.09,0,0,12.86-16.93,21.94-15.27a6.13,6.13,0,0,1,4.3,2.51c-.8,5.19-5.37,10.75-7.81,12.92A110.84,110.84,0,0,1,193.51,215.77Z"/><g class="cls-13"><rect class="cls-14" x="321.93" y="192.33" width="32.09" height="32.09" rx="3.97" transform="translate(-1.38 2.26) rotate(-0.38)"/></g><rect class="cls-15" x="325" y="194.91" width="32.09" height="32.09" rx="3.97" transform="translate(-1.4 2.28) rotate(-0.38)"/><rect class="cls-16" x="345.19" y="208.01" width="5.93" height="11.24" transform="translate(695.21 429.04) rotate(-179.71)"/><path class="cls-16" d="M330.84,211.57h.06v-1.94a1.86,1.86,0,0,1,1.87-1.85l5.22,0s-2.11-3-2.1-4.88c0-1.69.1-4,2.6-3.93,0,0,.91.56.9,3.12,0,2.35,4.83,5.87,4.83,5.87l-.06,11.62a4.28,4.28,0,0,1-2.74,1l-7.56,0a1.93,1.93,0,0,1-1.92-2v-1.17a1.14,1.14,0,0,1-1.13-1.15v-1.37a.69.69,0,0,1-.68-.68v-2A.69.69,0,0,1,330.84,211.57Z"/></g></g></g></svg>