<svg xmlns="http://www.w3.org/2000/svg" xmlns:xlink="http://www.w3.org/1999/xlink" viewBox="0 0 51.66 40.26"><defs><style>.cls-1,.cls-2{fill:none;}.cls-2{clip-rule:evenodd;}.cls-3{clip-path:url(#clip-path);}.cls-4{fill:url(#linear-gradient);}.cls-5{clip-path:url(#clip-path-2);}.cls-6{fill:url(#linear-gradient-2);}.cls-7{clip-path:url(#clip-path-3);}.cls-8{fill:url(#linear-gradient-3);}.cls-9{clip-path:url(#clip-path-4);}.cls-10{fill:url(#linear-gradient-4);}.cls-11{clip-path:url(#clip-path-5);}.cls-12{fill:url(#linear-gradient-5);}.cls-13{clip-path:url(#clip-path-6);}.cls-14{fill:url(#linear-gradient-6);}.cls-15{clip-path:url(#clip-path-7);}.cls-16{fill:url(#linear-gradient-7);}.cls-17{clip-path:url(#clip-path-8);}.cls-18{fill:url(#linear-gradient-8);}.cls-19{clip-path:url(#clip-path-9);}.cls-20{fill:url(#linear-gradient-9);}.cls-21{clip-path:url(#clip-path-10);}.cls-22{fill:url(#linear-gradient-11);}</style><clipPath id="clip-path" transform="translate(0 0.03)"><path class="cls-1" d="M17.62,8.64a3.25,3.25,0,0,0-3-1.46.92.92,0,1,1,0-1.84,5.8,5.8,0,0,1,3,.76V1.94a19,19,0,0,0-4.9,1.33.72.72,0,0,1-.19.11A4.68,4.68,0,0,0,10.6,5a4,4,0,0,0-.7,2.29,4.24,4.24,0,0,0,1.35,3.07,4.66,4.66,0,0,0,3.21,1.27.92.92,0,1,1,0,1.84,6.62,6.62,0,0,1-4.57-1.81c-.17-.16-.32-.32-.47-.49a7.2,7.2,0,0,0-3.54,2.37,1,1,0,0,1-1.34.24.9.9,0,0,1-.25-1.28A9.09,9.09,0,0,1,8.44,9.56,5.87,5.87,0,0,1,8.1,6.1,16.21,16.21,0,0,0,6.75,7.36a16.72,16.72,0,0,0,0,23.49c.06.06.12.13.19.19a5.9,5.9,0,0,1,1-3.87A8.44,8.44,0,0,1,5.84,23a.93.93,0,0,1,.8-1,1,1,0,0,1,1.1.76,6.3,6.3,0,0,0,1.45,3,6.62,6.62,0,0,1,2-1.1,1,1,0,0,1,1.23.55.92.92,0,0,1-.57,1.18,4.41,4.41,0,0,0-2.57,2.24A4.11,4.11,0,0,0,9.11,32a4.34,4.34,0,0,0,.56,1,4.22,4.22,0,0,0,.74.78,18.61,18.61,0,0,0,7.21,2.51V33.14a7.54,7.54,0,0,1-3.2-.7,6.26,6.26,0,0,1-2.91-2.78.9.9,0,0,1,.43-1.22,1,1,0,0,1,1.29.4,4.32,4.32,0,0,0,2,2,5.54,5.54,0,0,0,2.34.51V23.36a3.76,3.76,0,0,0-4.19-.81,1,1,0,0,1-1.31-.35A.89.89,0,0,1,12.49,21a5.63,5.63,0,0,1,5.13.15V16.79a5.08,5.08,0,0,0-4.37,1.57l-.3.24a.89.89,0,0,1-.3.24C10.78,20.33,8.49,21.62,3.11,20a.89.89,0,0,1-.62-1.15,1,1,0,0,1,1.2-.59c4,1.22,5.89.52,7.33-.5a5.53,5.53,0,0,0-2.65-2.39.9.9,0,0,1-.46-1.22,1,1,0,0,1,1.28-.44,7.56,7.56,0,0,1,3.33,2.86,6.2,6.2,0,0,1,5.1-1.6Zm.84,29.55a20.44,20.44,0,0,1-13.13-6.1,18.48,18.48,0,0,1,0-26A20.45,20.45,0,0,1,18.51,0a.94.94,0,0,1,1,.84s0,.05,0,.07h0V37.28a1,1,0,0,1-1,.92Z"/></clipPath><linearGradient id="linear-gradient" x1="9.77" y1="43" x2="9.77" y2="-4.49" gradientUnits="userSpaceOnUse"><stop offset="0" stop-color="#5d4ea1"/><stop offset="1" stop-color="#a85da5"/></linearGradient><clipPath id="clip-path-2" transform="translate(0 0.03)"><path class="cls-1" d="M34.94,7.34A18.45,18.45,0,0,0,24,1.94V36.27a18.46,18.46,0,0,0,10.91-5.41,16.73,16.73,0,0,0,0-23.52M23.2,0A20.48,20.48,0,0,1,36.35,6.1a18.49,18.49,0,0,1,0,26,20.49,20.49,0,0,1-13.21,6.1,1,1,0,0,1-1-.85v-.06h0V.92a.94.94,0,0,1,1-.92Z"/></clipPath><linearGradient id="linear-gradient-2" x1="31.9" y1="43" x2="31.9" y2="-4.49" xlink:href="#linear-gradient"/><clipPath id="clip-path-3" transform="translate(0 0.03)"><path class="cls-1" d="M23,7.09a.94.94,0,0,1-.86-1,1,1,0,0,1,1.06-.82,14.93,14.93,0,0,1,9.3,4.56,13.41,13.41,0,0,1,0,18.56,14.88,14.88,0,0,1-9.3,4.56,1,1,0,0,1-1.06-.81.93.93,0,0,1,.86-1,12.83,12.83,0,0,0,8.06-4A11.65,11.65,0,0,0,31,11,12.87,12.87,0,0,0,23,7.09"/></clipPath><linearGradient id="linear-gradient-3" x1="29.13" y1="43" x2="29.13" y2="-4.49" xlink:href="#linear-gradient"/><clipPath id="clip-path-4" transform="translate(0 0.03)"><path class="cls-1" d="M22.9,12.36a.91.91,0,0,1-.77-1.06,1,1,0,0,1,1.11-.74,9.22,9.22,0,0,1,5.35,3,8.34,8.34,0,0,1,0,11.09,9.21,9.21,0,0,1-5.35,3,1,1,0,0,1-1.11-.73.92.92,0,0,1,.77-1.07,7.31,7.31,0,0,0,4.22-2.36,6.63,6.63,0,0,0,0-8.75,7.32,7.32,0,0,0-4.22-2.37"/></clipPath><linearGradient id="linear-gradient-4" x1="26.36" y1="43" x2="26.36" y2="-4.49" xlink:href="#linear-gradient"/><clipPath id="clip-path-5" transform="translate(0 0.03)"><path class="cls-2" d="M34.14,11.94A2.06,2.06,0,1,1,32,14a2.11,2.11,0,0,1,2.17-2.06"/></clipPath><linearGradient id="linear-gradient-5" x1="34.14" y1="43" x2="34.14" y2="-4.49" xlink:href="#linear-gradient"/><clipPath id="clip-path-6" transform="translate(0 0.03)"><path class="cls-2" d="M27.85,22a2.07,2.07,0,1,1-2.17,2.07A2.12,2.12,0,0,1,27.85,22"/></clipPath><linearGradient id="linear-gradient-6" x1="27.85" y1="43" x2="27.85" y2="-4.49" xlink:href="#linear-gradient"/><clipPath id="clip-path-7" transform="translate(0 0.03)"><path class="cls-2" d="M34.86,30.18a2.06,2.06,0,1,1-2.17,2.06,2.11,2.11,0,0,1,2.17-2.06"/></clipPath><linearGradient id="linear-gradient-7" x1="34.86" y1="43" x2="34.86" y2="-4.49" xlink:href="#linear-gradient"/><clipPath id="clip-path-8" transform="translate(0 0.03)"><path class="cls-2" d="M28.65.09a2.11,2.11,0,0,1,2.17,2.06,2.17,2.17,0,0,1-4.34,0A2.11,2.11,0,0,1,28.65.09"/></clipPath><linearGradient id="linear-gradient-8" x1="28.65" y1="43" x2="28.65" y2="-4.49" xlink:href="#linear-gradient"/><clipPath id="clip-path-9" transform="translate(0 0.03)"><path class="cls-2" d="M23.07,9.4a2.06,2.06,0,1,1-2.16,2.06A2.11,2.11,0,0,1,23.07,9.4"/></clipPath><linearGradient id="linear-gradient-9" x1="23.07" y1="43" x2="23.07" y2="-4.49" xlink:href="#linear-gradient"/><clipPath id="clip-path-10" transform="translate(0 0.03)"><path class="cls-2" d="M23.07,29.79a2.06,2.06,0,1,1-2.16,2.06,2.11,2.11,0,0,1,2.16-2.06"/></clipPath><linearGradient id="linear-gradient-11" x1="41.71" y1="34.25" x2="51.66" y2="34.25" xlink:href="#linear-gradient"/></defs><title>logo_3_raw</title><g id="Layer_2" data-name="Layer 2"><g id="Layer_1-2" data-name="Layer 1"><g class="cls-3"><rect class="cls-4" width="19.55" height="38.23"/></g><g class="cls-5"><rect class="cls-6" x="22.11" y="0.03" width="19.59" height="38.24"/></g><g class="cls-7"><rect class="cls-8" x="22.06" y="5.24" width="14.14" height="27.78"/></g><g class="cls-9"><rect class="cls-10" x="22.03" y="10.5" width="8.67" height="17.26"/></g><g class="cls-11"><rect class="cls-12" x="31.97" y="11.97" width="4.33" height="4.12"/></g><g class="cls-13"><rect class="cls-14" x="25.68" y="22.04" width="4.33" height="4.12"/></g><g class="cls-15"><rect class="cls-16" x="32.69" y="30.21" width="4.33" height="4.12"/></g><g class="cls-17"><rect class="cls-18" x="26.48" y="0.12" width="4.33" height="4.12"/></g><g class="cls-19"><rect class="cls-20" x="20.91" y="9.43" width="4.33" height="4.12"/></g><g class="cls-21"><rect class="cls-20" x="20.91" y="29.82" width="4.33" height="4.12"/></g><path class="cls-22" d="M51.66,36.36c0,2.28-2,3.87-5,3.87a8.75,8.75,0,0,1-4.9-1.45L43,36.4a4.74,4.74,0,0,0,3.33,1.47c1.37,0,2.13-.54,2.13-1.47S47.73,35,46.34,35H44.25V33.31l2.91-2.65H42.37l0-2.38H51v1.79l-3.35,3,.62.08C50.28,33.41,51.66,34.56,51.66,36.36Z" transform="translate(0 0.03)"/></g></g></svg>