<svg xmlns="http://www.w3.org/2000/svg" xmlns:xlink="http://www.w3.org/1999/xlink" viewBox="0 0 704 540.84"><defs><style>.cls-1{mask:url(#mask);filter:url(#luminosity-noclip-4);}.cls-2,.cls-4,.cls-6{mix-blend-mode:multiply;}.cls-2{fill:url(#linear-gradient);}.cls-3{mask:url(#mask-2);filter:url(#luminosity-noclip-5);}.cls-4{fill:url(#linear-gradient-2);}.cls-5{mask:url(#mask-3);filter:url(#luminosity-noclip-6);}.cls-6{fill:url(#linear-gradient-3);}.cls-7{fill:none;}.cls-8{isolation:isolate;}.cls-9{clip-path:url(#clip-path);}.cls-10{fill:#b0f7f0;}.cls-11,.cls-19{opacity:0.1;}.cls-12,.cls-52,.cls-68,.cls-91{opacity:0.2;}.cls-13{fill:#3c3c3b;}.cls-14{fill:#f6f6f6;}.cls-15{fill:#ededed;}.cls-16,.cls-73,.cls-89{opacity:0.3;}.cls-17{fill:#2b383d;}.cls-18{fill:#36474f;}.cls-19,.cls-33,.cls-68,.cls-73,.cls-86{fill:#fff;}.cls-20,.cls-59,.cls-86{opacity:0.4;}.cls-21{fill:#ccc;}.cls-22{fill:#485060;}.cls-23{fill:#d3a681;}.cls-24{fill:#ffd2a8;}.cls-25{fill:#444;}.cls-26{fill:#e7e7e9;}.cls-27{fill:#bfbfbf;}.cls-28{fill:#af1924;}.cls-29{fill:#d81e2c;}.cls-30{fill:#c2151b;}.cls-31{fill:#ed1b24;}.cls-32{opacity:0.45;}.cls-34{fill:#5a637a;}.cls-35{fill:#4b5160;}.cls-36{fill:#575e70;}.cls-37{fill:#3f4551;}.cls-38{fill:#aaa;}.cls-39,.cls-50{fill:#575756;}.cls-40{fill:#878787;}.cls-41{fill:#303030;}.cls-42,.cls-89,.cls-91{fill:#1d1d1b;}.cls-43{fill:#3b434f;}.cls-44{opacity:0.5;}.cls-45{fill:#009fe3;}.cls-46{fill:#911d1a;}.cls-47{fill:#b2b2b2;}.cls-48{fill:#fffffb;}.cls-49{fill:#dadada;}.cls-100,.cls-101,.cls-102,.cls-104,.cls-50{fill-rule:evenodd;}.cls-51{fill:#00a19a;}.cls-53{mask:url(#mask-4);}.cls-54,.cls-56,.cls-58{opacity:0.7;mix-blend-mode:screen;}.cls-54{fill:url(#linear-gradient-4);}.cls-55{mask:url(#mask-5);}.cls-56{fill:url(#linear-gradient-5);}.cls-57{mask:url(#mask-6);}.cls-58{fill:url(#linear-gradient-6);}.cls-60{fill:url(#Super_Soft_Black_Vignette);}.cls-61{fill:url(#Super_Soft_Black_Vignette-2);}.cls-62{fill:#4c4c4c;}.cls-63{fill:#063;}.cls-64{fill:#008d36;}.cls-65{fill:#3aaa35;}.cls-66{fill:#7b6a58;}.cls-67{fill:#a48a7b;}.cls-69{fill:#ffb865;}.cls-70{fill:#ff9296;}.cls-71{fill:#dbdcdb;}.cls-72{fill:#c9cc89;}.cls-74{fill:#f44758;}.cls-75{fill:#c1c1c1;}.cls-76{fill:#898989;}.cls-77{fill:#515151;}.cls-78{fill:#9e9e9e;}.cls-79{fill:#e2e2e2;}.cls-80{fill:#a5a4a5;}.cls-81{fill:#aa4ba8;}.cls-82{fill:#d645cc;}.cls-83{fill:#d9e021;}.cls-84{fill:#cccc21;}.cls-85{fill:#36a9e1;}.cls-87{fill:#e8e8e8;}.cls-88{fill:#fcea10;}.cls-90{fill:#f39200;}.cls-92{fill:#ca9e67;}.cls-101,.cls-93{fill:#e30613;}.cls-94{fill:#c95566;}.cls-95{fill:#ea606e;}.cls-96{fill:#ddd;}.cls-97{fill:#514037;}.cls-98{fill:#634e42;}.cls-99{fill:#706f6f;}.cls-100{fill:#be1622;}.cls-103{fill:#e94e1b;}.cls-104{fill:#f3c800;}.cls-105{fill:#d9e5f9;}.cls-106{fill:#c6c6c6;}.cls-107{filter:url(#luminosity-noclip-3);}.cls-108{filter:url(#luminosity-noclip-2);}.cls-109{filter:url(#luminosity-noclip);}</style><filter id="luminosity-noclip" x="-9.32" y="-8462" width="233.57" height="32766" filterUnits="userSpaceOnUse" color-interpolation-filters="sRGB"><feFlood flood-color="#fff" result="bg"/><feBlend in="SourceGraphic" in2="bg"/></filter><mask id="mask" x="-9.32" y="-8462" width="233.57" height="32766" maskUnits="userSpaceOnUse"><g class="cls-109"/></mask><linearGradient id="linear-gradient" x1="415.11" y1="-181.99" x2="404.58" y2="-277.44" gradientTransform="matrix(-2.19, 0, 0, -1.68, 994.58, -242.26)" gradientUnits="userSpaceOnUse"><stop offset="0" stop-color="#fff"/><stop offset="0.09" stop-color="#d4d4d4"/><stop offset="0.17" stop-color="#b4b4b4"/><stop offset="0.24" stop-color="#a0a0a0"/><stop offset="0.29" stop-color="#999"/><stop offset="0.33" stop-color="#878787"/><stop offset="0.42" stop-color="#696969"/><stop offset="0.46" stop-color="#5e5e5e"/><stop offset="0.51" stop-color="#505050"/><stop offset="0.58" stop-color="#444"/><stop offset="0.65" stop-color="#404040"/><stop offset="0.77" stop-color="#262626"/><stop offset="0.81" stop-color="#1f1f1f"/><stop offset="0.86" stop-color="#1a1a1a"/><stop offset="0.89" stop-color="#111"/><stop offset="0.93" stop-color="#0d0d0d"/><stop offset="0.96" stop-color="#040404"/><stop offset="1"/></linearGradient><filter id="luminosity-noclip-2" x="233.33" y="-8462" width="233.57" height="32766" filterUnits="userSpaceOnUse" color-interpolation-filters="sRGB"><feFlood flood-color="#fff" result="bg"/><feBlend in="SourceGraphic" in2="bg"/></filter><mask id="mask-2" x="233.33" y="-8462" width="233.57" height="32766" maskUnits="userSpaceOnUse"><g class="cls-108"/></mask><linearGradient id="linear-gradient-2" x1="304.18" y1="-181.73" x2="293.65" y2="-277.18" xlink:href="#linear-gradient"/><filter id="luminosity-noclip-3" x="475.99" y="-8462" width="233.57" height="32766" filterUnits="userSpaceOnUse" color-interpolation-filters="sRGB"><feFlood flood-color="#fff" result="bg"/><feBlend in="SourceGraphic" in2="bg"/></filter><mask id="mask-3" x="475.99" y="-8462" width="233.57" height="32766" maskUnits="userSpaceOnUse"><g class="cls-107"/></mask><linearGradient id="linear-gradient-3" x1="193.25" y1="-181.48" x2="182.73" y2="-276.92" xlink:href="#linear-gradient"/><clipPath id="clip-path"><rect class="cls-7" width="704" height="577.5"/></clipPath><filter id="luminosity-noclip-4" x="-9.32" y="58.27" width="233.57" height="155.68" filterUnits="userSpaceOnUse" color-interpolation-filters="sRGB"><feFlood flood-color="#fff" result="bg"/><feBlend in="SourceGraphic" in2="bg"/></filter><mask id="mask-4" x="-9.32" y="58.27" width="233.57" height="155.68" maskUnits="userSpaceOnUse"><g class="cls-1"><polygon class="cls-2" points="107.46 213.74 -9.32 213.53 49.21 135.9 107.74 58.27 165.99 136.11 224.25 213.95 107.46 213.74"/></g></mask><linearGradient id="linear-gradient-4" x1="415.11" y1="-181.99" x2="404.58" y2="-277.44" gradientTransform="matrix(-2.19, 0, 0, -1.68, 994.58, -242.26)" gradientUnits="userSpaceOnUse"><stop offset="0.51" stop-color="#fff"/><stop offset="0.61" stop-color="#bcbcbc"/><stop offset="0.71" stop-color="#848482"/><stop offset="0.8" stop-color="#575756"/><stop offset="0.89" stop-color="#373736"/><stop offset="0.95" stop-color="#242422"/><stop offset="1" stop-color="#1d1d1b"/></linearGradient><filter id="luminosity-noclip-5" x="233.33" y="58.27" width="233.57" height="155.68" filterUnits="userSpaceOnUse" color-interpolation-filters="sRGB"><feFlood flood-color="#fff" result="bg"/><feBlend in="SourceGraphic" in2="bg"/></filter><mask id="mask-5" x="233.33" y="58.27" width="233.57" height="155.68" maskUnits="userSpaceOnUse"><g class="cls-3"><polygon class="cls-4" points="350.12 213.74 233.33 213.53 291.87 135.9 350.39 58.27 408.65 136.11 466.9 213.95 350.12 213.74"/></g></mask><linearGradient id="linear-gradient-5" x1="304.18" y1="-181.73" x2="293.65" y2="-277.18" xlink:href="#linear-gradient-4"/><filter id="luminosity-noclip-6" x="475.99" y="58.27" width="233.57" height="155.68" filterUnits="userSpaceOnUse" color-interpolation-filters="sRGB"><feFlood flood-color="#fff" result="bg"/><feBlend in="SourceGraphic" in2="bg"/></filter><mask id="mask-6" x="475.99" y="58.27" width="233.57" height="155.68" maskUnits="userSpaceOnUse"><g class="cls-5"><polygon class="cls-6" points="592.78 213.74 475.99 213.53 534.52 135.9 593.05 58.27 651.3 136.11 709.56 213.95 592.78 213.74"/></g></mask><linearGradient id="linear-gradient-6" x1="193.25" y1="-181.48" x2="182.73" y2="-276.92" xlink:href="#linear-gradient-4"/><radialGradient id="Super_Soft_Black_Vignette" cx="130.26" cy="393.9" r="1.73" gradientUnits="userSpaceOnUse"><stop offset="0.57" stop-color="#161412"/><stop offset="0.8" stop-color="#161412"/><stop offset="1" stop-color="#161412"/></radialGradient><radialGradient id="Super_Soft_Black_Vignette-2" cx="224.37" cy="393.9" r="1.73" xlink:href="#Super_Soft_Black_Vignette"/></defs><title>welcome</title><g class="cls-8"><g id="Layer_1" data-name="Layer 1"><g class="cls-9"><rect class="cls-10" width="704" height="577.5"/><rect class="cls-11" x="20" y="-27.56" width="15" height="652"/><path class="cls-12" d="M191.23,314.63H106.47a1.68,1.68,0,0,0-1.6,1.75v59a1.68,1.68,0,0,0,1.6,1.75h35l-.28,11.62h-4.77a2.52,2.52,0,0,0-2.4,2.61v3h29.61v-3a2.51,2.51,0,0,0-2.4-2.61h-4.77l-.28-11.62h35a1.69,1.69,0,0,0,1.6-1.75v-59A1.69,1.69,0,0,0,191.23,314.63Z"/><rect class="cls-11" x="55.83" y="-27.56" width="15" height="652"/><rect class="cls-11" x="91.67" y="-27.56" width="15" height="652"/><rect class="cls-11" x="127.5" y="-27.56" width="15" height="652"/><rect class="cls-11" x="163.34" y="-27.56" width="15" height="652"/><rect class="cls-11" x="199.17" y="-27.56" width="15" height="652"/><rect class="cls-11" x="235.01" y="-27.56" width="15" height="652"/><rect class="cls-11" x="270.84" y="-27.56" width="15" height="652"/><rect class="cls-11" x="306.68" y="-27.56" width="15" height="652"/><rect class="cls-11" x="342.51" y="-27.56" width="15" height="652"/><rect class="cls-11" x="378.35" y="-27.56" width="15" height="652"/><rect class="cls-11" x="413.68" y="-27.56" width="15" height="652"/><rect class="cls-11" x="450.02" y="-27.56" width="15" height="652"/><rect class="cls-11" x="485.85" y="-27.56" width="15" height="652"/><rect class="cls-11" x="521.69" y="-27.56" width="15" height="652"/><path class="cls-12" d="M225.11,180.07H174.35a1.38,1.38,0,0,0-1.31,1.45v13a1.38,1.38,0,0,0,1.31,1.45h50.76a1.39,1.39,0,0,0,1.31-1.45v-13A1.39,1.39,0,0,0,225.11,180.07Z"/><path class="cls-13" d="M226.93,193.92H176.17a1.39,1.39,0,0,1-1.31-1.45V179.42a1.39,1.39,0,0,1,1.31-1.45h50.76a1.39,1.39,0,0,1,1.31,1.45v13.05A1.39,1.39,0,0,1,226.93,193.92Z"/><path class="cls-14" d="M184.54,181.62h1v8.66h-.85l-2.23-5.94.07,2.18v3.76h-1.08v-8.66h.88l2.3,5.9-.12-2.51Z"/><path class="cls-14" d="M187.19,181.62h3v.85h-1.8v3h1.7v.85h-1.7v3.15h1.82v.85h-3Z"/><path class="cls-14" d="M197,181.62H198l-1.17,8.66H195.7l-1.06-6.39-1.12,6.39h-1.13l-1.3-8.66h1.07l.85,6.64,1.12-6.64h1l1.16,6.64Z"/><path class="cls-14" d="M204.67,181.62h1.14l-1.6,5v3.63h-1.16v-3.63l-1.73-5h1.14l1.17,3.55h0Z"/><path class="cls-14" d="M206.59,184a2.66,2.66,0,0,1,.61-2,2,2,0,0,1,1.39-.43,1.6,1.6,0,0,1,1.7.95,4.19,4.19,0,0,1,.22,1.51v3.81a3.57,3.57,0,0,1-.43,2,1.74,1.74,0,0,1-1.52.62,1.77,1.77,0,0,1-1.53-.62,3.48,3.48,0,0,1-.44-2Zm2.75-.06a3.25,3.25,0,0,0-.15-1.18.6.6,0,0,0-.61-.35.65.65,0,0,0-.64.36,2.7,2.7,0,0,0-.18,1.16v3.89a4,4,0,0,0,.15,1.35.64.64,0,0,0,.64.35.63.63,0,0,0,.64-.36,4,4,0,0,0,.15-1.34Z"/><path class="cls-14" d="M212,181.62h2.08a2,2,0,0,1,1.27.32,1.57,1.57,0,0,1,.47,1.09c0,.21,0,.54,0,1a2.81,2.81,0,0,1-.2,1.12,1,1,0,0,1-.7.59.77.77,0,0,1,.56.34,2.09,2.09,0,0,1,.27.91,16.86,16.86,0,0,1,.08,1.87,6,6,0,0,0,.09,1.44h-1.16a20.1,20.1,0,0,1-.09-2.92q0-.93-.21-1.08a1.08,1.08,0,0,0-.63-.15l-.69,0v4.18H212Zm2.7,2.12c0-.66-.07-1.05-.21-1.15a.92.92,0,0,0-.59-.16h-.73v2.92h.74a.89.89,0,0,0,.49-.11.7.7,0,0,0,.23-.43,5.87,5.87,0,0,0,.07-1Z"/><path class="cls-14" d="M220.32,181.62h1.17l-1.85,4.28,2,4.38H220.4l-1.84-4.14v4.14h-1.17v-8.66h1.16v4.13Z"/><path class="cls-12" d="M201,83.39A40.59,40.59,0,1,0,241.58,124,40.64,40.64,0,0,0,201,83.39Z"/><path class="cls-15" d="M238.74,119.36a38.45,38.45,0,1,1-38.45-38.45A38.44,38.44,0,0,1,238.74,119.36Z"/><path class="cls-13" d="M200.29,160a40.59,40.59,0,1,1,40.59-40.59A40.64,40.64,0,0,1,200.29,160Zm0-76.91a36.32,36.32,0,1,0,36.31,36.32A36.36,36.36,0,0,0,200.29,83Z"/><path class="cls-13" d="M197.1,95.29V86.65a1.37,1.37,0,0,1-.58.38,2.2,2.2,0,0,1-.74.14V86a2.17,2.17,0,0,0,1-.42,2.13,2.13,0,0,0,.7-.91h1.26V95.29Z"/><path class="cls-13" d="M200.6,95.29v-.63a5.13,5.13,0,0,1,.27-1.64,11.78,11.78,0,0,1,.87-1.84l.44-.76c.28-.48.48-.81.61-1a4.08,4.08,0,0,0,.47-2.15c0-.91-.19-1.37-.58-1.37s-.52.26-.6.76a6.2,6.2,0,0,0-.05.82v1.35h-1.55v-.65a6.4,6.4,0,0,1,.38-2.68,1.7,1.7,0,0,1,1-.89,3.25,3.25,0,0,1,.88-.11,1.94,1.94,0,0,1,.93.23,1.81,1.81,0,0,1,.64.65,4.12,4.12,0,0,1,.47,2.09,4.93,4.93,0,0,1-.5,2.27c-.34.65-.67,1.23-1,1.73A8.29,8.29,0,0,0,202.14,94h2.46v1.27Z"/><path class="cls-13" d="M233.5,124a2.07,2.07,0,0,1-1.81.79,2,2,0,0,1-1.75-.72,4.09,4.09,0,0,1-.49-2.27v-.7H231v.74a3.78,3.78,0,0,0,.13,1.22.58.58,0,0,0,.6.34.6.6,0,0,0,.61-.41,4.66,4.66,0,0,0,.16-1.44,3.88,3.88,0,0,0-.2-1.46.79.79,0,0,0-.78-.44H231v-1.23h.44a.81.81,0,0,0,.78-.39,3.83,3.83,0,0,0,0-2.44.62.62,0,0,0-.57-.3.54.54,0,0,0-.54.32,2.83,2.83,0,0,0-.15,1.1v.32h-1.57v-.33a3.59,3.59,0,0,1,.51-2.14,2,2,0,0,1,1.72-.67,2.15,2.15,0,0,1,1.78.7,3.26,3.26,0,0,1,.57,2.11,3.54,3.54,0,0,1-.27,1.47,1.43,1.43,0,0,1-.82.8,1.61,1.61,0,0,1,.85.94,4.81,4.81,0,0,1,.26,1.71A4.12,4.12,0,0,1,233.5,124Z"/><path class="cls-13" d="M199.56,148a1.54,1.54,0,0,1,1.32-.51,1.44,1.44,0,0,1,1.36.75,5.4,5.4,0,0,1,.41,2.42v.58a4.38,4.38,0,0,1-.48,2.3,2,2,0,0,1-1.83.75,2,2,0,0,1-2.13-1.26,6.28,6.28,0,0,1-.28-2.05v-4.38c0-1.54.36-2.52,1.07-2.92a2.93,2.93,0,0,1,1.35-.3,1.9,1.9,0,0,1,1.58.62,3.36,3.36,0,0,1,.5,2.08v.55h-1.51v-.22a5,5,0,0,0-.11-1.29.51.51,0,0,0-.55-.33.55.55,0,0,0-.57.35,4.43,4.43,0,0,0-.13,1.34Zm.17,4.53a.73.73,0,0,0,1.2.07,2.57,2.57,0,0,0,.15-1.06v-1a3.76,3.76,0,0,0-.15-1.27.55.55,0,0,0-.53-.37,1,1,0,0,0-.59.17.57.57,0,0,0-.25.4v1.93A2.66,2.66,0,0,0,199.73,152.52Z"/><path class="cls-13" d="M170.25,124.05a1.91,1.91,0,0,1-1.68.76,2.09,2.09,0,0,1-1.67-.62,3.2,3.2,0,0,1-.53-2.06v-.58h1.53v.22a4.42,4.42,0,0,0,.14,1.32.49.49,0,0,0,.49.33q.36,0,.45-.15a2.53,2.53,0,0,0,.14-.29,4.11,4.11,0,0,0,0-.94v-1.59a1.85,1.85,0,0,1-1,.22,1.62,1.62,0,0,1-1.53-.78,4.88,4.88,0,0,1-.45-2.37v-.39a3.83,3.83,0,0,1,.68-2.67,2.15,2.15,0,0,1,1.59-.55,2.41,2.41,0,0,1,1.52.39,1.86,1.86,0,0,1,.64,1.1,9,9,0,0,1,.15,1.82v4.26A4.59,4.59,0,0,1,170.25,124.05Zm-1.76-4.71a.6.6,0,0,0,.68-.52v-2a3.13,3.13,0,0,0-.14-1.13.52.52,0,0,0-.54-.34.54.54,0,0,0-.55.35,3.11,3.11,0,0,0-.15,1.14v1a3.46,3.46,0,0,0,.15,1.23A.54.54,0,0,0,168.49,119.34Z"/><path class="cls-13" d="M173.37,102.09a1.4,1.4,0,1,1-1.4-1.4A1.4,1.4,0,0,1,173.37,102.09Z"/><path class="cls-13" d="M185.1,90.76a1.4,1.4,0,1,1-1.4-1.4A1.4,1.4,0,0,1,185.1,90.76Z"/><path class="cls-13" d="M173.37,136.79a1.4,1.4,0,1,0-1.4,1.4A1.39,1.39,0,0,0,173.37,136.79Z"/><path class="cls-13" d="M185.1,147.43a1.4,1.4,0,1,0-1.4,1.4A1.4,1.4,0,0,0,185.1,147.43Z"/><path class="cls-13" d="M227.21,102.09a1.4,1.4,0,1,0,1.4-1.4A1.4,1.4,0,0,0,227.21,102.09Z"/><circle class="cls-13" cx="216.88" cy="90.76" r="1.4"/><path class="cls-13" d="M227.21,136.79a1.4,1.4,0,1,1,1.4,1.4A1.4,1.4,0,0,1,227.21,136.79Z"/><path class="cls-13" d="M215.48,147.43a1.4,1.4,0,1,1,1.4,1.4A1.4,1.4,0,0,1,215.48,147.43Z"/><rect class="cls-13" x="203.37" y="119.26" width="2.24" height="16.71" transform="translate(-35.27 102.8) rotate(-26.06)"/><rect x="200.48" y="118.38" width="26.73" height="1.96"/><path d="M203,119.36a2.66,2.66,0,1,1-2.66-2.66A2.66,2.66,0,0,1,203,119.36Z"/><path class="cls-12" d="M326,180.07H275.25a1.39,1.39,0,0,0-1.31,1.45v13a1.39,1.39,0,0,0,1.31,1.45H326a1.38,1.38,0,0,0,1.31-1.45v-13A1.38,1.38,0,0,0,326,180.07Z"/><path class="cls-13" d="M327.83,193.92H277.08a1.39,1.39,0,0,1-1.32-1.45V179.42a1.39,1.39,0,0,1,1.32-1.45h50.75a1.38,1.38,0,0,1,1.31,1.45v13.05A1.38,1.38,0,0,1,327.83,193.92Z"/><path class="cls-14" d="M287.62,181.62h1.17v7.82h1.83v.84h-3Z"/><path class="cls-14" d="M291.4,184a2.66,2.66,0,0,1,.61-2,2,2,0,0,1,1.39-.43,1.6,1.6,0,0,1,1.7.95,4.19,4.19,0,0,1,.22,1.51v3.81a3.49,3.49,0,0,1-.43,2,1.74,1.74,0,0,1-1.52.62,1.77,1.77,0,0,1-1.53-.62,3.48,3.48,0,0,1-.44-2Zm2.75-.06a3.25,3.25,0,0,0-.15-1.18.6.6,0,0,0-.61-.35.65.65,0,0,0-.64.36,2.7,2.7,0,0,0-.18,1.16v3.89a4,4,0,0,0,.15,1.35.64.64,0,0,0,.64.35.63.63,0,0,0,.64-.36,4,4,0,0,0,.15-1.34Z"/><path class="cls-14" d="M299.89,181.62h1v8.66h-.86l-2.22-5.94.07,2.18v3.76h-1.08v-8.66h.88l2.3,5.9-.12-2.51Z"/><path class="cls-14" d="M302.53,181.62h1.87a1.76,1.76,0,0,1,1.56.62,3,3,0,0,1,.43,1.74v3.8a3.07,3.07,0,0,1-.47,1.91,1.9,1.9,0,0,1-1.57.59h-1.83Zm2.7,2.33a2.3,2.3,0,0,0-.22-1.17.78.78,0,0,0-.72-.35h-.6v7h.6a1,1,0,0,0,.53-.12c.27-.17.41-.64.41-1.41Z"/><path class="cls-14" d="M307.77,184a2.66,2.66,0,0,1,.61-2,2,2,0,0,1,1.39-.43,1.6,1.6,0,0,1,1.7.95,4.19,4.19,0,0,1,.22,1.51v3.81a3.49,3.49,0,0,1-.43,2,1.74,1.74,0,0,1-1.52.62,1.77,1.77,0,0,1-1.53-.62,3.48,3.48,0,0,1-.44-2Zm2.76-.06a3,3,0,0,0-.16-1.18.6.6,0,0,0-.61-.35.65.65,0,0,0-.64.36,2.7,2.7,0,0,0-.18,1.16v3.89a3.72,3.72,0,0,0,.16,1.35.62.62,0,0,0,.63.35.63.63,0,0,0,.64-.36,3.94,3.94,0,0,0,.16-1.34Z"/><path class="cls-14" d="M316.26,181.62h1v8.66h-.86l-2.22-5.94.07,2.18v3.76H313.2v-8.66h.88l2.3,5.9-.12-2.51Z"/><path class="cls-12" d="M301.89,83.39A40.59,40.59,0,1,0,342.48,124,40.63,40.63,0,0,0,301.89,83.39Z"/><circle class="cls-15" cx="301.2" cy="119.36" r="38.45" transform="translate(115.83 385.07) rotate(-76.72)"/><path class="cls-13" d="M301.2,160a40.59,40.59,0,1,1,40.58-40.59A40.64,40.64,0,0,1,301.2,160Zm0-76.91a36.32,36.32,0,1,0,36.31,36.32A36.36,36.36,0,0,0,301.2,83Z"/><path class="cls-13" d="M298,95.29V86.65a1.31,1.31,0,0,1-.58.38,2.15,2.15,0,0,1-.74.14V86a2.12,2.12,0,0,0,1-.42,2.15,2.15,0,0,0,.71-.91h1.26V95.29Z"/><path class="cls-13" d="M301.5,95.29v-.63a5.14,5.14,0,0,1,.28-1.64,10.8,10.8,0,0,1,.86-1.84s.17-.28.45-.76a11.28,11.28,0,0,1,.61-1,4.18,4.18,0,0,0,.47-2.15c0-.91-.19-1.37-.58-1.37s-.52.26-.6.76a6.2,6.2,0,0,0-.05.82v1.35h-1.55v-.65a6.44,6.44,0,0,1,.37-2.68,1.72,1.72,0,0,1,1-.89,3.15,3.15,0,0,1,.88-.11,1.87,1.87,0,0,1,.92.23,1.84,1.84,0,0,1,.65.65,4.12,4.12,0,0,1,.47,2.09,4.93,4.93,0,0,1-.5,2.27c-.34.65-.67,1.23-1,1.73A8.48,8.48,0,0,0,303.05,94h2.46v1.27Z"/><path class="cls-13" d="M334.4,124a2.06,2.06,0,0,1-1.81.79,2,2,0,0,1-1.74-.72,4.08,4.08,0,0,1-.5-2.27v-.7h1.52v.74a3.71,3.71,0,0,0,.14,1.22.58.58,0,0,0,.59.34.6.6,0,0,0,.62-.41,4.74,4.74,0,0,0,.15-1.44,3.68,3.68,0,0,0-.2-1.46.77.77,0,0,0-.78-.44h-.46v-1.23h.45a.81.81,0,0,0,.78-.39,2.75,2.75,0,0,0,.21-1.26,2.6,2.6,0,0,0-.18-1.18.59.59,0,0,0-.56-.3.56.56,0,0,0-.55.32,2.83,2.83,0,0,0-.15,1.1v.32h-1.57v-.33a3.51,3.51,0,0,1,.52-2.14,2,2,0,0,1,1.72-.67,2.15,2.15,0,0,1,1.78.7,3.26,3.26,0,0,1,.57,2.11,3.38,3.38,0,0,1-.28,1.47,1.4,1.4,0,0,1-.82.8,1.66,1.66,0,0,1,.86.94,4.81,4.81,0,0,1,.26,1.71A4,4,0,0,1,334.4,124Z"/><path class="cls-13" d="M300.46,148a1.56,1.56,0,0,1,1.33-.51,1.41,1.41,0,0,1,1.35.75,5.26,5.26,0,0,1,.41,2.42v.58a4.38,4.38,0,0,1-.48,2.3,2.49,2.49,0,0,1-3.95-.51,6,6,0,0,1-.28-2.05v-4.38c0-1.54.35-2.52,1.06-2.92a2.94,2.94,0,0,1,1.36-.3,1.92,1.92,0,0,1,1.58.62,3.42,3.42,0,0,1,.5,2.08v.55h-1.52v-.22a4.59,4.59,0,0,0-.11-1.29.5.5,0,0,0-.54-.33.55.55,0,0,0-.57.35,4.34,4.34,0,0,0-.14,1.34Zm.17,4.53a.62.62,0,0,0,.61.35.6.6,0,0,0,.59-.28,2.37,2.37,0,0,0,.16-1.06v-1a3.47,3.47,0,0,0-.16-1.27.54.54,0,0,0-.52-.37,1,1,0,0,0-.59.17.62.62,0,0,0-.26.4v1.93A2.83,2.83,0,0,0,300.63,152.52Z"/><path class="cls-13" d="M271.15,124.05a1.91,1.91,0,0,1-1.68.76,2.08,2.08,0,0,1-1.66-.62,3.2,3.2,0,0,1-.53-2.06v-.58h1.53v.22a4.1,4.1,0,0,0,.14,1.32.48.48,0,0,0,.49.33q.36,0,.45-.15L270,123a4.88,4.88,0,0,0,.05-.94v-1.59a1.86,1.86,0,0,1-1,.22,1.62,1.62,0,0,1-1.53-.78,4.88,4.88,0,0,1-.45-2.37v-.39a3.82,3.82,0,0,1,.69-2.67,2.15,2.15,0,0,1,1.59-.55,2.43,2.43,0,0,1,1.52.39,1.9,1.9,0,0,1,.63,1.1,9,9,0,0,1,.15,1.82v4.26A4.59,4.59,0,0,1,271.15,124.05Zm-1.75-4.71a.6.6,0,0,0,.68-.52v-2a3.37,3.37,0,0,0-.14-1.13.61.61,0,0,0-1.1,0,3.4,3.4,0,0,0-.14,1.14v1a3.78,3.78,0,0,0,.14,1.23A.55.55,0,0,0,269.4,119.34Z"/><path class="cls-13" d="M274.28,102.09a1.4,1.4,0,1,1-1.4-1.4A1.4,1.4,0,0,1,274.28,102.09Z"/><path class="cls-13" d="M286,90.76a1.4,1.4,0,1,1-1.4-1.4A1.4,1.4,0,0,1,286,90.76Z"/><path class="cls-13" d="M274.28,136.79a1.4,1.4,0,1,0-1.4,1.4A1.4,1.4,0,0,0,274.28,136.79Z"/><path class="cls-13" d="M286,147.43a1.4,1.4,0,1,0-1.4,1.4A1.4,1.4,0,0,0,286,147.43Z"/><path class="cls-13" d="M328.12,102.09a1.4,1.4,0,1,0,1.39-1.4A1.4,1.4,0,0,0,328.12,102.09Z"/><circle class="cls-13" cx="317.78" cy="90.76" r="1.4"/><path class="cls-13" d="M328.12,136.79a1.4,1.4,0,1,1,1.39,1.4A1.39,1.39,0,0,1,328.12,136.79Z"/><path class="cls-13" d="M316.38,147.43a1.4,1.4,0,1,1,1.4,1.4A1.4,1.4,0,0,1,316.38,147.43Z"/><rect class="cls-13" x="292.59" y="105.26" width="2.24" height="16.71" transform="translate(23.53 275.41) rotate(-52.06)"/><rect x="301.39" y="118.38" width="26.73" height="1.96"/><path d="M303.85,119.36a2.66,2.66,0,1,1-2.65-2.66A2.66,2.66,0,0,1,303.85,119.36Z"/><path class="cls-12" d="M428.23,194.57v-13a1.39,1.39,0,0,0-1.31-1.45H376.16a1.39,1.39,0,0,0-1.31,1.45v13a1.39,1.39,0,0,0,1.31,1.45h50.76A1.39,1.39,0,0,0,428.23,194.57Z"/><path class="cls-13" d="M428.74,193.92H378a1.39,1.39,0,0,1-1.31-1.45V179.42A1.39,1.39,0,0,1,378,178h50.76a1.38,1.38,0,0,1,1.31,1.45v13.05A1.38,1.38,0,0,1,428.74,193.92Z"/><path class="cls-14" d="M392.31,181.62h2a1.54,1.54,0,0,1,1.66,1,4.25,4.25,0,0,1,.21,1.4,9.41,9.41,0,0,1-.05,1.21,2.11,2.11,0,0,1-.53,1.29,1.81,1.81,0,0,1-1.29.4h-.82v3.4h-1.17Zm2.7,2.45a3.74,3.74,0,0,0-.16-1.27.64.64,0,0,0-.64-.37h-.73V186h.71a.64.64,0,0,0,.65-.38,4.08,4.08,0,0,0,.17-1.42Z"/><path class="cls-14" d="M398.2,181.62h1.4l1.64,8.66h-1.1l-.28-1.65h-1.8l-.26,1.65h-1.11Zm0,6.18h1.52l-.78-4.57h0Z"/><path class="cls-14" d="M402.42,181.62h2.08a2,2,0,0,1,1.27.32,1.61,1.61,0,0,1,.47,1.09c0,.21,0,.54,0,1a2.81,2.81,0,0,1-.2,1.12,1,1,0,0,1-.7.59.77.77,0,0,1,.56.34,2.24,2.24,0,0,1,.27.91,16.86,16.86,0,0,1,.08,1.87,6,6,0,0,0,.09,1.44h-1.16a20.1,20.1,0,0,1-.09-2.92q0-.93-.21-1.08a1.08,1.08,0,0,0-.63-.15l-.69,0v4.18h-1.17Zm2.7,2.12c0-.66-.07-1.05-.21-1.15a.92.92,0,0,0-.59-.16h-.73v2.92h.74a.89.89,0,0,0,.49-.11.7.7,0,0,0,.23-.43,5.87,5.87,0,0,0,.07-1Z"/><path class="cls-14" d="M407.88,181.62H409v8.66h-1.16Z"/><path class="cls-14" d="M410.64,184.3a2.28,2.28,0,0,1-.1-.74,2.48,2.48,0,0,1,.4-1.49,1.74,1.74,0,0,1,1.51-.55,1.5,1.5,0,0,1,1.7,1.21,5.9,5.9,0,0,1,.12,1.31v.51h-1.12V184a4.4,4.4,0,0,0-.09-1.11.78.78,0,0,0-.24-.38.68.68,0,0,0-.37-.09.67.67,0,0,0-.6.27,1.35,1.35,0,0,0-.19.8,1.46,1.46,0,0,0,.17.78,2.58,2.58,0,0,0,.42.47l.27.25.68.62a3.31,3.31,0,0,1,1.21,2.49,3.15,3.15,0,0,1-.39,1.72,1.71,1.71,0,0,1-1.51.59,1.6,1.6,0,0,1-1.71-1,4.6,4.6,0,0,1-.21-1.52v-.89h1.13v.88a3.68,3.68,0,0,0,.16,1.32.6.6,0,0,0,.59.37.79.79,0,0,0,.59-.18.83.83,0,0,0,.19-.53c0-.24,0-.51,0-.81a2.24,2.24,0,0,0-.91-1.69l-.64-.56A3.55,3.55,0,0,1,410.64,184.3Z"/><path class="cls-12" d="M402.8,83.39A40.59,40.59,0,1,0,443.39,124,40.64,40.64,0,0,0,402.8,83.39Z"/><path class="cls-15" d="M440.55,119.36A38.45,38.45,0,1,1,402.1,80.91,38.44,38.44,0,0,1,440.55,119.36Z"/><path class="cls-13" d="M402.1,160a40.59,40.59,0,1,1,40.59-40.59A40.64,40.64,0,0,1,402.1,160Zm0-76.91a36.32,36.32,0,1,0,36.32,36.32A36.36,36.36,0,0,0,402.1,83Z"/><path class="cls-13" d="M398.91,95.29V86.65a1.37,1.37,0,0,1-.58.38,2.2,2.2,0,0,1-.74.14V86a2.17,2.17,0,0,0,1-.42,2.23,2.23,0,0,0,.71-.91h1.26V95.29Z"/><path class="cls-13" d="M402.41,95.29v-.63a4.88,4.88,0,0,1,.28-1.64,10.8,10.8,0,0,1,.86-1.84s.16-.28.44-.76.48-.81.61-1a4.08,4.08,0,0,0,.48-2.15c0-.91-.2-1.37-.59-1.37s-.52.26-.59.76a4.86,4.86,0,0,0,0,.82v1.35H402.3v-.65a6.44,6.44,0,0,1,.37-2.68,1.72,1.72,0,0,1,1-.89,3.12,3.12,0,0,1,.87-.11,1.89,1.89,0,0,1,.93.23,1.74,1.74,0,0,1,.64.65,4,4,0,0,1,.47,2.09,4.81,4.81,0,0,1-.5,2.27,17.75,17.75,0,0,1-1,1.73A8,8,0,0,0,404,94h2.45v1.27Z"/><path class="cls-13" d="M435.31,124a2.07,2.07,0,0,1-1.81.79,2,2,0,0,1-1.74-.72,4,4,0,0,1-.5-2.27v-.7h1.52v.74a3.78,3.78,0,0,0,.13,1.22.58.58,0,0,0,.6.34.59.59,0,0,0,.61-.41,4.37,4.37,0,0,0,.16-1.44,3.88,3.88,0,0,0-.2-1.46.77.77,0,0,0-.78-.44h-.46v-1.23h.45a.81.81,0,0,0,.78-.39,2.75,2.75,0,0,0,.21-1.26,2.6,2.6,0,0,0-.18-1.18.62.62,0,0,0-.57-.3.54.54,0,0,0-.54.32,2.83,2.83,0,0,0-.15,1.1v.32h-1.57v-.33a3.51,3.51,0,0,1,.52-2.14,2,2,0,0,1,1.72-.67,2.14,2.14,0,0,1,1.77.7,3.26,3.26,0,0,1,.57,2.11,3.54,3.54,0,0,1-.27,1.47,1.43,1.43,0,0,1-.82.8,1.66,1.66,0,0,1,.86.94,4.83,4.83,0,0,1,.25,1.71A4.12,4.12,0,0,1,435.31,124Z"/><path class="cls-13" d="M401.37,148a1.54,1.54,0,0,1,1.32-.51,1.43,1.43,0,0,1,1.36.75,5.26,5.26,0,0,1,.41,2.42v.58a4.38,4.38,0,0,1-.48,2.3,2.5,2.5,0,0,1-4-.51,6.28,6.28,0,0,1-.28-2.05v-4.38c0-1.54.36-2.52,1.07-2.92a2.94,2.94,0,0,1,1.36-.3,1.93,1.93,0,0,1,1.58.62,3.43,3.43,0,0,1,.49,2.08v.55h-1.51v-.22a5,5,0,0,0-.11-1.29.5.5,0,0,0-.54-.33.56.56,0,0,0-.58.35,4.43,4.43,0,0,0-.13,1.34Zm.17,4.53a.73.73,0,0,0,1.2.07,2.57,2.57,0,0,0,.15-1.06v-1a3.76,3.76,0,0,0-.15-1.27.55.55,0,0,0-.53-.37,1,1,0,0,0-.59.17.6.6,0,0,0-.25.4v1.93A2.66,2.66,0,0,0,401.54,152.52Z"/><path class="cls-13" d="M372.06,124.05a1.91,1.91,0,0,1-1.68.76,2.06,2.06,0,0,1-1.66-.62,3.2,3.2,0,0,1-.54-2.06v-.58h1.53v.22a4.42,4.42,0,0,0,.14,1.32.49.49,0,0,0,.49.33q.38,0,.45-.15a1.53,1.53,0,0,0,.14-.29A3.84,3.84,0,0,0,371,122v-1.59a1.89,1.89,0,0,1-1,.22,1.62,1.62,0,0,1-1.53-.78,4.88,4.88,0,0,1-.45-2.37v-.39a3.88,3.88,0,0,1,.68-2.67,2.17,2.17,0,0,1,1.59-.55,2.41,2.41,0,0,1,1.52.39,1.86,1.86,0,0,1,.64,1.1,9,9,0,0,1,.15,1.82v4.26A4.59,4.59,0,0,1,372.06,124.05Zm-1.76-4.71a.61.61,0,0,0,.69-.52v-2a3.08,3.08,0,0,0-.15-1.13.52.52,0,0,0-.54-.34.54.54,0,0,0-.55.35,3.4,3.4,0,0,0-.14,1.14v1a3.52,3.52,0,0,0,.14,1.23A.54.54,0,0,0,370.3,119.34Z"/><path class="cls-13" d="M375.18,102.09a1.4,1.4,0,1,1-1.39-1.4A1.4,1.4,0,0,1,375.18,102.09Z"/><path class="cls-13" d="M386.91,90.76a1.4,1.4,0,1,1-1.4-1.4A1.4,1.4,0,0,1,386.91,90.76Z"/><path class="cls-13" d="M375.18,136.79a1.4,1.4,0,1,0-2.8,0,1.4,1.4,0,1,0,2.8,0Z"/><path class="cls-13" d="M386.91,147.43a1.4,1.4,0,1,0-1.4,1.4A1.4,1.4,0,0,0,386.91,147.43Z"/><path class="cls-13" d="M429,102.09a1.4,1.4,0,1,0,1.4-1.4A1.4,1.4,0,0,0,429,102.09Z"/><path class="cls-13" d="M417.29,90.76a1.4,1.4,0,1,0,1.4-1.4A1.4,1.4,0,0,0,417.29,90.76Z"/><path class="cls-13" d="M429,136.79a1.4,1.4,0,1,1,1.4,1.4A1.4,1.4,0,0,1,429,136.79Z"/><path class="cls-13" d="M417.29,147.43a1.4,1.4,0,1,1,1.4,1.4A1.4,1.4,0,0,1,417.29,147.43Z"/><rect class="cls-13" x="397.2" y="102.43" width="2.24" height="16.71" transform="translate(-11.75 163.45) rotate(-22.86)"/><rect x="402.3" y="118.38" width="26.72" height="1.96"/><path d="M404.76,119.36a2.66,2.66,0,1,1-2.66-2.66A2.66,2.66,0,0,1,404.76,119.36Z"/><path class="cls-12" d="M527.83,180.07H477.07a1.38,1.38,0,0,0-1.31,1.45v13a1.38,1.38,0,0,0,1.31,1.45h50.76a1.38,1.38,0,0,0,1.3-1.45v-13A1.38,1.38,0,0,0,527.83,180.07Z"/><path class="cls-13" d="M529.65,193.92H478.89a1.38,1.38,0,0,1-1.31-1.45V179.42a1.38,1.38,0,0,1,1.31-1.45h50.76a1.39,1.39,0,0,1,1.31,1.45v13.05A1.39,1.39,0,0,1,529.65,193.92Z"/><path class="cls-14" d="M492.73,181.62H496v.85h-1v7.81h-1.16v-7.81h-1.09Z"/><path class="cls-14" d="M496.86,184a2.7,2.7,0,0,1,.6-2,2,2,0,0,1,1.39-.43,1.62,1.62,0,0,1,1.71.95,4.42,4.42,0,0,1,.22,1.51v3.81a3.48,3.48,0,0,1-.44,2,2.17,2.17,0,0,1-3,0,3.4,3.4,0,0,1-.44-2Zm2.75-.06a3.25,3.25,0,0,0-.15-1.18.61.61,0,0,0-.62-.35.66.66,0,0,0-.64.36,2.7,2.7,0,0,0-.18,1.16v3.89a3.72,3.72,0,0,0,.16,1.35.64.64,0,0,0,.64.35.61.61,0,0,0,.63-.36,3.69,3.69,0,0,0,.16-1.34Z"/><path class="cls-14" d="M505.21,181.62h1.17l-1.84,4.28,2,4.38H505.3l-1.84-4.14v4.14h-1.18v-8.66h1.17v4.13Z"/><path class="cls-14" d="M510,181.62h1.14l-1.6,5v3.63h-1.16v-3.63l-1.73-5h1.13l1.17,3.55h0Z"/><path class="cls-14" d="M511.89,184a2.66,2.66,0,0,1,.61-2,2,2,0,0,1,1.39-.43,1.61,1.61,0,0,1,1.7.95,4.19,4.19,0,0,1,.22,1.51v3.81a3.48,3.48,0,0,1-.44,2,1.72,1.72,0,0,1-1.51.62,1.75,1.75,0,0,1-1.53-.62,3.4,3.4,0,0,1-.44-2Zm2.75-.06a3.25,3.25,0,0,0-.15-1.18.61.61,0,0,0-.61-.35.66.66,0,0,0-.65.36,2.7,2.7,0,0,0-.18,1.16v3.89a4,4,0,0,0,.16,1.35.64.64,0,0,0,.64.35.62.62,0,0,0,.63-.36,3.69,3.69,0,0,0,.16-1.34Z"/><path class="cls-12" d="M503.7,83.39A40.59,40.59,0,1,0,544.29,124,40.64,40.64,0,0,0,503.7,83.39Z"/><path class="cls-15" d="M541.46,119.36A38.45,38.45,0,1,1,503,80.91,38.44,38.44,0,0,1,541.46,119.36Z"/><path class="cls-13" d="M503,160a40.59,40.59,0,1,1,40.58-40.59A40.64,40.64,0,0,1,503,160ZM503,83a36.32,36.32,0,1,0,36.31,36.32A36.36,36.36,0,0,0,503,83Z"/><path class="cls-13" d="M499.82,95.29V86.65a1.37,1.37,0,0,1-.58.38,2.2,2.2,0,0,1-.74.14V86a2.09,2.09,0,0,0,1-.42,2.15,2.15,0,0,0,.71-.91h1.26V95.29Z"/><path class="cls-13" d="M503.32,95.29v-.63a5.13,5.13,0,0,1,.27-1.64,11.63,11.63,0,0,1,.86-1.84s.17-.28.45-.76.48-.81.61-1a4.18,4.18,0,0,0,.47-2.15c0-.91-.19-1.37-.58-1.37s-.52.26-.6.76a6.2,6.2,0,0,0-.05.82v1.35H503.2v-.65a6.4,6.4,0,0,1,.38-2.68,1.68,1.68,0,0,1,1-.89,3.2,3.2,0,0,1,.88-.11,1.94,1.94,0,0,1,.93.23,1.81,1.81,0,0,1,.64.65,4.12,4.12,0,0,1,.47,2.09,4.93,4.93,0,0,1-.5,2.27c-.34.65-.67,1.23-1,1.73A8.48,8.48,0,0,0,504.86,94h2.46v1.27Z"/><path class="cls-13" d="M536.21,124a2,2,0,0,1-1.8.79,2,2,0,0,1-1.75-.72,4.08,4.08,0,0,1-.5-2.27v-.7h1.52v.74a3.71,3.71,0,0,0,.14,1.22.58.58,0,0,0,.59.34A.6.6,0,0,0,535,123a4.74,4.74,0,0,0,.15-1.44,3.92,3.92,0,0,0-.19-1.46.79.79,0,0,0-.79-.44h-.46v-1.23h.45a.81.81,0,0,0,.78-.39,2.75,2.75,0,0,0,.21-1.26,2.79,2.79,0,0,0-.17-1.18.62.62,0,0,0-.57-.3.54.54,0,0,0-.54.32,2.79,2.79,0,0,0-.16,1.1v.32h-1.56v-.33a3.59,3.59,0,0,1,.51-2.14,2,2,0,0,1,1.72-.67,2.15,2.15,0,0,1,1.78.7,3.26,3.26,0,0,1,.57,2.11,3.54,3.54,0,0,1-.27,1.47,1.45,1.45,0,0,1-.83.8,1.63,1.63,0,0,1,.86.94,4.81,4.81,0,0,1,.26,1.71A4,4,0,0,1,536.21,124Z"/><path class="cls-13" d="M502.27,148a1.57,1.57,0,0,1,1.33-.51,1.44,1.44,0,0,1,1.36.75,5.4,5.4,0,0,1,.41,2.42v.58a4.28,4.28,0,0,1-.49,2.3,2.49,2.49,0,0,1-3.95-.51,6,6,0,0,1-.28-2.05v-4.38c0-1.54.36-2.52,1.07-2.92a2.9,2.9,0,0,1,1.35-.3,1.92,1.92,0,0,1,1.58.62,3.42,3.42,0,0,1,.5,2.08v.55h-1.51v-.22a5,5,0,0,0-.11-1.29.52.52,0,0,0-.55-.33.55.55,0,0,0-.57.35,4.34,4.34,0,0,0-.14,1.34Zm.18,4.53a.72.72,0,0,0,1.19.07,2.37,2.37,0,0,0,.16-1.06v-1a3.47,3.47,0,0,0-.16-1.27.53.53,0,0,0-.52-.37,1,1,0,0,0-.59.17.62.62,0,0,0-.26.4v1.93A2.63,2.63,0,0,0,502.45,152.52Z"/><path class="cls-13" d="M473,124.05a1.88,1.88,0,0,1-1.67.76,2.09,2.09,0,0,1-1.67-.62,3.2,3.2,0,0,1-.53-2.06v-.58h1.53v.22a4.1,4.1,0,0,0,.14,1.32.48.48,0,0,0,.49.33q.36,0,.45-.15l.14-.29a4.88,4.88,0,0,0,.05-.94v-1.59a1.85,1.85,0,0,1-1,.22,1.62,1.62,0,0,1-1.53-.78,4.88,4.88,0,0,1-.45-2.37v-.39a3.83,3.83,0,0,1,.68-2.67,2.15,2.15,0,0,1,1.59-.55,2.43,2.43,0,0,1,1.52.39,1.9,1.9,0,0,1,.63,1.1,9,9,0,0,1,.15,1.82v4.26A4.59,4.59,0,0,1,473,124.05Zm-1.75-4.71a.6.6,0,0,0,.68-.52v-2a3.37,3.37,0,0,0-.14-1.13.53.53,0,0,0-.55-.34.52.52,0,0,0-.54.35,3.11,3.11,0,0,0-.15,1.14v1a3.78,3.78,0,0,0,.14,1.23A.55.55,0,0,0,471.21,119.34Z"/><path class="cls-13" d="M476.09,102.09a1.4,1.4,0,1,1-1.4-1.4A1.4,1.4,0,0,1,476.09,102.09Z"/><path class="cls-13" d="M487.82,90.76a1.4,1.4,0,1,1-1.4-1.4A1.4,1.4,0,0,1,487.82,90.76Z"/><path class="cls-13" d="M476.09,136.79a1.4,1.4,0,1,0-1.4,1.4A1.4,1.4,0,0,0,476.09,136.79Z"/><path class="cls-13" d="M487.82,147.43a1.4,1.4,0,1,0-1.4,1.4A1.4,1.4,0,0,0,487.82,147.43Z"/><path class="cls-13" d="M529.93,102.09a1.4,1.4,0,1,0,1.4-1.4A1.4,1.4,0,0,0,529.93,102.09Z"/><path class="cls-13" d="M518.2,90.76a1.4,1.4,0,1,0,1.4-1.4A1.4,1.4,0,0,0,518.2,90.76Z"/><path class="cls-13" d="M529.93,136.79a1.4,1.4,0,1,1,1.4,1.4A1.39,1.39,0,0,1,529.93,136.79Z"/><path class="cls-13" d="M518.2,147.43a1.4,1.4,0,1,1,1.4,1.4A1.4,1.4,0,0,1,518.2,147.43Z"/><rect class="cls-13" x="489.72" y="125.7" width="16.71" height="2.24" transform="translate(116.1 470.71) rotate(-56.28)"/><rect x="503.2" y="118.38" width="26.72" height="1.96"/><path d="M505.67,119.36A2.66,2.66,0,1,1,503,116.7,2.66,2.66,0,0,1,505.67,119.36Z"/><rect class="cls-11" x="557.52" y="-27.56" width="15" height="652"/><rect class="cls-11" x="593.36" y="-27.56" width="15" height="652"/><rect class="cls-11" x="629.19" y="-27.56" width="15" height="652"/><rect class="cls-11" x="665.03" y="-27.56" width="15" height="652"/><rect class="cls-11" x="700.86" y="-27.56" width="15" height="652"/><polygon class="cls-12" points="538.33 325.88 511.25 341.1 511.25 403.43 543.99 399.87 538.33 325.88"/><polygon class="cls-12" points="609.69 339.38 586.5 351.85 586.5 414.18 619.24 410.62 609.69 339.38"/><path class="cls-16" d="M274.86,357.05H175.09a7.73,7.73,0,0,0-5.59,2.41,8.5,8.5,0,0,0-2.35,5.9V484.21a8.13,8.13,0,0,0,7.94,8.31h99.77c.24,0,.49,0,.72,0a8.18,8.18,0,0,0,7.22-8.28V365.36A8.13,8.13,0,0,0,274.86,357.05Z"/><path class="cls-17" d="M271,356.62V475.47a8.18,8.18,0,0,1-7.23,8.28c-.22,0-.47,0-.71,0H163.3a8.13,8.13,0,0,1-7.94-8.31V356.62a8.5,8.5,0,0,1,2.35-5.9,7.73,7.73,0,0,1,5.59-2.41h99.77A8.14,8.14,0,0,1,271,356.62Z"/><path class="cls-18" d="M262.75,356.62V475.47a8.46,8.46,0,0,1-1.6,5,7.79,7.79,0,0,1-6.34,3.33H163.3a8.13,8.13,0,0,1-7.94-8.31V356.62a8.5,8.5,0,0,1,2.35-5.9,7.73,7.73,0,0,1,5.59-2.41h91.51A8.14,8.14,0,0,1,262.75,356.62Z"/><path class="cls-19" d="M263.78,483.75c-.22,0-.47,0-.71,0H163.3a8.13,8.13,0,0,1-7.94-8.31V356.62a8.5,8.5,0,0,1,2.35-5.9L261.15,480.45Z"/><path class="cls-12" d="M416,411.76,403.29,323c0-3-5.45-5.77-8.42-6.18l-14.18-2-3.05-.79-6.12-5.68-1.09-1h-7.16l-6.75-9.12-.73-1.16h-.33c0-1.56,0-3,.05-4.4a75.15,75.15,0,0,0,7.66-18.79c6.37-.24,11-16.73,6.53-21.25.34.19.48.2-.61-.51-.47,0-3.09.14-5.49,5.22,3.95-8.37,6.75-6.62,6-18.2-.56-8.31-2.35-18.62-8.87-24.54-12.33-11.18-37.56-13.84-50.48-2.48-23.13,3.23-16,32.11-11,45-2.05-5.27-4.47-5.2-4.47-5.2h0c-6.25,3-.88,21.68,5.62,21.93a79.14,79.14,0,0,0,5.8,15.42c.06,2.5.07,5.11.1,7.77h-.42l-.06.13-.12-.13-6.07,10.28h-5.87v0l-1.2,1.08-5.76,5.17-.28.25-3.24.84-14.65,2.08c-3,.42-8.42,3.19-8.42,6.19l-13.61,88.79h20.37l-5,28,12.69.61,1.34-28.61H385.29l-.51,24.75,9.44,1.83-2.13-26.58ZM346.7,240.33c.74-.08,1.48-.2,2.2-.33C348.18,240.13,347.44,240.25,346.7,240.33ZM318,231.67a27,27,0,0,1-3.2-3.22A27,27,0,0,0,318,231.67Z"/><path class="cls-12" d="M456.22,411.76,443.51,323c0-3-5.44-5.77-8.41-6.18l-14.18-2-3.05-.79-6.13-5.68-1.08-1H403.5l-6.75-9.12-.74-1.16h-.33c0-1.56,0-3,.06-4.4a74.73,74.73,0,0,0,7.65-18.79c6.38-.24,11.05-16.73,6.53-21.25.34.19.48.2-.61-.51-.47,0-3.09.14-5.48,5.22,3.95-8.37,6.74-6.62,6-18.2-.56-8.31-2.35-18.62-8.88-24.54-12.32-11.18-37.56-13.84-50.48-2.48-23.12,3.23-16,32.11-11,45-2.06-5.27-4.48-5.2-4.48-5.2h0c-6.25,3-.87,21.68,5.63,21.93a78.51,78.51,0,0,0,5.8,15.42c.06,2.5.06,5.11.1,7.77h-.42l-.06.13-.12-.13-6.07,10.28H334v0l-1.2,1.08L327,313.61l-.28.25-3.24.84-14.65,2.08c-3,.42-8.42,3.19-8.42,6.19L286.8,411.76h20.37l-5,28,12.69.61,1.34-28.61H425.51l-.5,24.75,9.44,1.83-2.13-26.58Zm-69.3-171.43c.75-.08,1.48-.2,2.21-.33C388.4,240.13,387.67,240.25,386.92,240.33Zm-28.67-8.66a27.7,27.7,0,0,1-3.19-3.22A27.7,27.7,0,0,0,358.25,231.67Z"/><rect class="cls-20" x="-36" y="410.21" width="789" height="172.13"/><path class="cls-12" d="M52.94,372.17H52c.45-.56.89-1.13,1.33-1.73,5.71-7.88,4.92-18.19,4.92-18.19a32.68,32.68,0,0,0-11.65,6A32.65,32.65,0,0,0,41.33,346,32,32,0,0,0,34,360.25a32.92,32.92,0,0,0-11.06-6.62s-1.46,10.24,3.72,18.48l0,.06h-.42A2.81,2.81,0,0,0,23.47,375v7.95a2.81,2.81,0,0,0,2.15,2.72l1.6,21.59H52l1.59-21.59a2.81,2.81,0,0,0,2.15-2.72V375A2.8,2.8,0,0,0,52.94,372.17Z"/><polygon class="cls-21" points="387.15 305.84 318.06 305.84 326.57 289.05 376.5 289.05 387.15 305.84"/><rect class="cls-22" x="314.45" y="299.33" width="76.7" height="13.58"/><path class="cls-23" d="M376.12,299.52c0,16.35-17,27-32.16,23.17-20.79-5.28-16-30.74-17.33-46.84l49.75,0S376.12,287.18,376.12,299.52Z"/><path class="cls-24" d="M389.8,244.1c-.47,0-3.09.14-5.49,5.22-.75-14-.72-20-14.69-17.33-11.55,2.19-26.4-2.39-34.07-11.55,0,0-15.79-.18-15.62,28.69-2.05-5.27-4.47-5.19-4.47-5.19h0c-6.25,3-.87,21.68,5.63,21.93,3.91,14.82,13.52,34.83,31.27,35h.26c17.74-.21,27.35-20.22,31.26-35,6.64-.25,11.44-18.15,5.92-21.76C389.33,244.08,392,245.5,389.8,244.1Z"/><path class="cls-25" d="M335.55,220.44c7.67,9.16,22.52,13.74,34.07,11.55,14-2.66,13.94,3.32,14.69,17.33,4-8.37,6.75-6.62,6-18.2-.56-8.31-2.35-18.62-8.88-24.54-12.32-11.18-37.56-13.84-50.48-2.48-23.12,3.23-16,32.11-11,45C319.76,220.26,335.55,220.44,335.55,220.44Z"/><rect class="cls-26" x="315.52" y="310.25" width="77.73" height="51.64"/><polygon class="cls-27" points="364.01 362.07 353.57 362.07 353.57 309.54 361.67 308.66 362.6 308.56 362.16 310.25 361.97 310.98 359.32 321.16 358.98 322.46 358.15 325.65 361.53 346.67 361.64 347.33 361.64 347.34 362.49 352.61 362.6 353.33 363.98 361.89 364.01 362.07"/><polygon class="cls-27" points="351.78 309.54 351.78 362.07 341.34 362.07 341.37 361.89 342.78 353.07 342.91 352.29 343.62 347.88 343.63 347.81 344.04 345.27 347.19 325.65 346.36 322.44 346.02 321.14 343.37 310.98 343.18 310.25 342.74 308.56 343.65 308.66 351.78 309.54"/><polygon class="cls-28" points="361.67 308.66 361.26 310.25 361.07 310.98 358.68 320.17 358.37 321.35 357.25 325.65 352.66 325.65 352.66 309.63 352.67 309.63 353.57 309.54 361.67 308.66"/><polygon class="cls-29" points="352.66 309.63 352.66 325.65 348.08 325.65 346.96 321.36 346.65 320.18 344.26 310.98 344.07 310.25 343.65 308.66 351.78 309.54 352.66 309.63"/><polygon class="cls-30" points="352.66 362.07 363.1 362.07 357.25 325.65 352.66 324.57 352.66 362.07"/><polygon class="cls-31" points="348.08 325.65 342.22 362.07 352.66 362.07 352.66 324.57 348.08 325.65"/><g class="cls-32"><polygon class="cls-27" points="353.48 309.72 353.18 310.25 352.78 310.98 352.73 311.07 352.67 311.18 352.66 311.19 351.78 312.76 346.96 321.36 346.36 322.44 341.61 330.91 324.52 315.06 320.11 310.98 319.65 310.56 319.33 310.25 318.24 309.25 314.16 305.47 315.88 305.65 316.54 305.72 318.63 305.95 342.74 308.56 343.65 308.66 351.78 309.54 352.66 309.63 352.67 309.63 353.48 309.72"/></g><g class="cls-32"><polygon class="cls-27" points="391.17 305.47 386 310.25 386 310.25 386 310.26 385.44 310.77 385.22 310.98 381.97 313.99 363.72 330.91 358.98 322.46 358.37 321.35 353.57 312.79 352.67 311.18 352.66 311.17 352.6 311.07 352.55 310.98 352.15 310.25 351.85 309.72 352.66 309.63 352.67 309.63 353.57 309.54 361.67 308.66 362.6 308.56 387.02 305.92 388.73 305.73 388.99 305.7 391.17 305.47"/></g><polygon class="cls-33" points="353.48 309.72 353.13 310.25 352.67 310.97 352.66 310.98 352.6 311.07 351.78 312.33 346.65 320.18 346.02 321.14 341.41 328.2 323.17 312.99 320.77 310.98 319.9 310.25 318.95 309.46 317.69 308.41 314.16 305.47 315.88 305.65 316.54 305.72 326.39 289.05 342.42 306.54 344.96 307.76 351.78 309.54 352.66 309.63 352.67 309.63 353.48 309.72"/><polygon class="cls-33" points="391.17 305.47 386.69 309.2 386.2 309.61 385.43 310.25 384.56 310.98 383.08 312.21 363.93 328.2 359.32 321.16 358.68 320.17 353.57 312.35 352.73 311.07 352.67 310.98 352.67 310.97 352.66 310.96 352.2 310.25 351.85 309.72 352.66 309.63 352.67 309.63 353.57 309.54 359.97 307.99 362.32 306.99 376.71 289.51 388.73 305.73 388.99 305.7 391.17 305.47"/><path class="cls-34" d="M354.29,403.75h-87L280.9,315c0-3,5.44-5.77,8.42-6.19L304,306.69l3.52-.91,7.25-1.87,1.14,1.74,1.81,2.76.55.83.66,1,.48.73,26.87,40.9,6.08,9.26.49.75,1.47,2.24Z"/><polygon class="cls-35" points="352.66 361.84 315.52 328.86 314.8 328.23 315.52 327.55 321.5 321.86 315.52 322.13 308.42 322.44 307.36 319.55 302.98 307.59 303.97 306.69 307.49 305.78 313.25 300.61 316.54 305.72 318.94 309.45 318.95 309.46 319.46 310.25 319.65 310.56 319.65 310.56 319.93 310.98 346.25 351.88 352.02 360.85 352.66 361.84"/><polygon class="cls-34" points="357.31 365.64 353.13 361.71 352.68 361.59 352.07 361 316.96 327.75 323.5 321.19 315.52 321.31 310.18 321.38 307.36 313.52 305.25 307.61 307.49 305.6 313.25 300.43 314.47 299.33 318.63 305.77 321.41 310.07 321.88 310.8 323.17 312.8 324.52 314.88 354.78 361.71 357.31 365.64"/><path class="cls-36" d="M424,315l12.71,88.79h-86.1V364.13l10.24-15.59L386,310.26l.69-1.06,2.3-3.5,1.18-1.79,8.18,2.11,3.06.79,14.18,2C418.56,309.19,424,312,424,315Z"/><polygon class="cls-37" points="397.33 321.74 383.89 321.55 390.49 328.27 350.86 363.88 360.85 348.54 385.44 310.77 386.2 309.61 388.73 305.73 392.23 300.35 398.35 306.02 401.41 306.81 402.31 307.64 397.33 321.74"/><polygon class="cls-34" points="395.2 320.88 382.59 320.69 388.78 327.11 350.86 363.88 350.61 364.13 381.97 313.99 381.98 313.99 383.08 312.21 387.02 305.92 391.14 299.33 392.23 300.35 398.35 306.02 399.86 307.43 395.2 320.88"/><polygon class="cls-38" points="375.18 358.08 383.99 346.34 394.61 358.08 375.18 358.08"/><polygon class="cls-33" points="375.18 358.08 383.99 346.34 392.79 358.08 375.18 358.08"/><polygon class="cls-33" points="373.95 357.09 379.6 347.82 388.81 355.76 373.95 357.09"/><path class="cls-13" d="M356.86,368.44a2.57,2.57,0,1,1-2.57-2.57A2.57,2.57,0,0,1,356.86,368.44Z"/><path class="cls-39" d="M356.31,368.44a2,2,0,1,1-2-2A2,2,0,0,1,356.31,368.44Z"/><path class="cls-40" d="M355.66,367a2,2,0,0,1-2.85,2.85,2,2,0,1,0,2.85-2.85Z"/><path class="cls-13" d="M352.39,368.56a2,2,0,0,1,3.39-1.49,2,2,0,0,0-3.5,1.37,2,2,0,0,0,.65,1.48A2,2,0,0,1,352.39,368.56Z"/><path class="cls-41" d="M354.43,368.1a.22.22,0,0,1-.32,0,.24.24,0,0,1,0-.33.25.25,0,0,1,.33,0A.22.22,0,0,1,354.43,368.1Z"/><path class="cls-41" d="M355,368.56a.23.23,0,1,1-.35-.31.23.23,0,0,1,.32,0A.24.24,0,0,1,355,368.56Z"/><path class="cls-41" d="M354.51,369.08a.23.23,0,0,1-.33,0,.22.22,0,0,1,0-.32.22.22,0,0,1,.32,0A.24.24,0,0,1,354.51,369.08Z"/><path class="cls-41" d="M354,368.63a.22.22,0,0,1-.32,0,.22.22,0,0,1,0-.32.23.23,0,1,1,.35.3Z"/><path class="cls-13" d="M354.84,368.4c0,.07-.07.13-.18.14l-.71,0c-.11,0-.2,0-.2-.11h0c0-.07.07-.13.18-.14l.72,0c.1,0,.19,0,.19.11Z"/><path class="cls-42" d="M354.34,369c-.07,0-.13-.08-.14-.18l-.05-.72c0-.1,0-.19.1-.2h0c.07,0,.13.08.14.18l.05.72c0,.11,0,.19-.1.2Z"/><path class="cls-13" d="M356.86,395.51a2.57,2.57,0,1,1-2.57-2.56A2.57,2.57,0,0,1,356.86,395.51Z"/><path class="cls-39" d="M356.31,395.51a2,2,0,1,1-2-2A2,2,0,0,1,356.31,395.51Z"/><path class="cls-40" d="M355.66,394a2,2,0,0,1-2.85,2.85,2,2,0,1,0,2.85-2.85Z"/><path class="cls-13" d="M352.39,395.63a2,2,0,0,1,2-2,2,2,0,0,1,1.37.54,2,2,0,0,0-1.49-.66,2,2,0,0,0-2,2,2,2,0,0,0,.65,1.48A2,2,0,0,1,352.39,395.63Z"/><path class="cls-41" d="M354.43,395.17a.22.22,0,0,1-.32,0,.24.24,0,0,1,0-.33.25.25,0,0,1,.33,0A.22.22,0,0,1,354.43,395.17Z"/><path class="cls-41" d="M355,395.63a.23.23,0,0,1-.35-.3.22.22,0,0,1,.32,0A.24.24,0,0,1,355,395.63Z"/><path class="cls-41" d="M354.51,396.15a.24.24,0,0,1-.33,0,.23.23,0,0,1,0-.33.22.22,0,0,1,.32,0A.24.24,0,0,1,354.51,396.15Z"/><path class="cls-41" d="M354,395.7a.23.23,0,0,1-.35-.3.23.23,0,1,1,.35.3Z"/><path class="cls-13" d="M354.84,395.47c0,.07-.07.13-.18.14l-.71.05c-.11,0-.2,0-.2-.11h0c0-.07.07-.13.18-.14l.72-.05c.1,0,.19,0,.19.11Z"/><path class="cls-42" d="M354.34,396.06c-.07,0-.13-.08-.14-.18l-.05-.72c0-.1,0-.19.1-.19h0c.07,0,.13.07.14.17l.05.72c0,.1,0,.19-.1.2Z"/><rect class="cls-43" x="372.59" y="354.46" width="22.65" height="4.98"/><rect class="cls-34" x="372.23" y="353.83" width="22.65" height="4.98"/><polygon class="cls-44" points="299.82 336.07 282.63 431.75 295.32 432.36 299.82 336.07"/><polygon class="cls-44" points="407.38 336.07 414.94 430.33 405.5 428.5 407.38 336.07"/><path class="cls-16" d="M329.56,347.38l0-.08s0-.09,0-.13a.42.42,0,0,1,0,.12.9.9,0,0,0-.79-.65H305.27a1.06,1.06,0,0,0-.89,1.17v14.61a.88.88,0,0,0,.27.64.85.85,0,0,0,.63.27h23.46a.89.89,0,0,0,.9-.89V347.83A1.33,1.33,0,0,0,329.56,347.38Zm.07.43a1.35,1.35,0,0,0-.07-.41A1.35,1.35,0,0,1,329.63,347.81Z"/><path class="cls-45" d="M329.61,345.63H306.15a1.05,1.05,0,0,0-.9,1.16V350H330.5v-3.16A1.05,1.05,0,0,0,329.61,345.63Zm-9.79,1.2h-3.88a.28.28,0,1,1,0-.56h3.88a.28.28,0,1,1,0,.56Z"/><path class="cls-46" d="M319.82,346.27h-3.88a.27.27,0,0,0-.25.41.2.2,0,0,1,0-.11.28.28,0,0,1,.29-.28h3.88a.28.28,0,0,1,.25.15A.29.29,0,0,0,319.82,346.27Z"/><path class="cls-46" d="M330.36,346.16a1.42,1.42,0,0,1,.14.63V350H305.26v0h25.25v-3.15A1.49,1.49,0,0,0,330.36,346.16Z"/><path class="cls-47" d="M305.26,350v11.46a.9.9,0,0,0,.9.9h23.46a.89.89,0,0,0,.89-.9V350Z"/><path class="cls-48" d="M305.25,350v11.46a.9.9,0,0,0,.9.9h23.46a.89.89,0,0,0,.89-.9V350Z"/><rect class="cls-49" x="306.52" y="351.06" width="6.69" height="8.5"/><path class="cls-50" d="M312.92,359.56h-6.11c0-1.1.18-2.2.21-3.3,0-.91,1.45-1.12,2.12-1.7,0-.27-.09-.49-.1-.77,0,0-.09,0-.12,0a1.65,1.65,0,0,1-.17-.67c0-.05.1,0,.13,0,.14-1.6,2-1.54,1.9,0,0,0,.12,0,.11.06,0,.29,0,.58-.28.66,0,.25,0,.5-.07.72.73.85,1.94.66,2.11,1.79A29.13,29.13,0,0,1,312.92,359.56Z"/><rect class="cls-42" x="306.24" y="350.29" width="23.28" height="0.39"/><rect class="cls-45" x="313.82" y="351.41" width="15.7" height="1.07"/><rect class="cls-45" x="306.24" y="360.37" width="20.42" height="1.07"/><rect class="cls-40" x="315.16" y="353.28" width="8.48" height="0.48"/><rect class="cls-40" x="315.16" y="354.22" width="10.6" height="0.48"/><rect class="cls-40" x="315.16" y="355.16" width="10.09" height="0.48"/><rect class="cls-40" x="315.16" y="356.1" width="9.34" height="0.48"/><rect class="cls-40" x="315.16" y="357.04" width="10.09" height="0.48"/><rect class="cls-40" x="315.16" y="357.98" width="10.36" height="0.48"/><rect class="cls-40" x="315.16" y="358.92" width="6.21" height="0.48"/><rect x="327.39" y="353.7" width="2.16" height="0.19"/><rect x="327.39" y="354.09" width="2.16" height="0.25"/><rect x="327.39" y="354.48" width="2.16" height="0.32"/><rect x="327.39" y="354.98" width="2.16" height="0.2"/><rect x="327.39" y="355.26" width="2.16" height="0.11"/><rect x="327.39" y="355.64" width="2.16" height="0.46"/><rect x="327.39" y="356.03" width="2.16" height="0.32"/><rect x="327.39" y="356.42" width="2.16" height="0.32"/><rect x="327.39" y="356.97" width="2.16" height="0.17"/><rect x="327.39" y="357.2" width="2.16" height="0.32"/><rect x="327.39" y="357.59" width="2.16" height="0.48"/><rect x="327.39" y="358.21" width="2.16" height="0.09"/><rect x="327.39" y="358.57" width="2.16" height="0.12"/><rect x="327.39" y="358.76" width="2.16" height="0.18"/><rect x="327.39" y="359.31" width="2.16" height="0.16"/><rect x="327.39" y="359.54" width="2.16" height="0.18"/><rect x="327.39" y="360.01" width="2.16" height="0.24"/><rect x="327.39" y="360.19" width="2.16" height="0.45"/><rect x="327.39" y="360.71" width="2.16" height="0.32"/><rect class="cls-45" x="315.2" y="346.02" width="5.34" height="1.02"/><rect class="cls-51" x="-36" y="410.21" width="789" height="168.13"/><g class="cls-52"><path d="M744.25,410.21v7.7H-35.07a4.73,4.73,0,0,1-.93-.09v-7.61Z"/></g><rect class="cls-16" x="-36" y="427.67" width="799" height="25.4"/><rect class="cls-16" x="-36" y="472.39" width="799" height="25.4"/><rect class="cls-16" x="-36" y="522.89" width="799" height="25.4"/><path class="cls-13" d="M740,394.68v17H-39.32a5,5,0,0,1-4.49-2.81,4.87,4.87,0,0,1-.51-2.19v-10a2,2,0,0,1,2-2Z"/><path class="cls-12" d="M-36.74-85.64V3.74a4.13,4.13,0,0,0-4.24,4,4.13,4.13,0,0,0,4.24,4V49.47a4.13,4.13,0,0,0-4.24,4,4.13,4.13,0,0,0,4.24,4V85.73H715V-48Z"/><g class="cls-53"><polygon class="cls-54" points="107.46 213.74 -9.32 213.53 49.21 135.9 107.74 58.27 165.99 136.11 224.25 213.95 107.46 213.74"/></g><path class="cls-47" d="M118.28,72.18H96.94l2.43-9.69,1.65-6.6c.4-1.61,1.27-2.94,1.94-3l1.21-.06,3.24,0,1.73,0,2,0,1.2.06c.65,0,1.51,1.36,1.92,3l1.65,6.6Z"/><path class="cls-40" d="M118.28,72.18H100.19l.08-.32,2.35-9.37,1.65-6.6c.4-1.61,1.27-2.94,1.94-3l1.21-.06,1.72,0,2,0,1.2.06c.65,0,1.51,1.36,1.92,3l1.65,6.6Z"/><path class="cls-33" d="M118.29,72.26c0,.31-4.78.55-10.68.55s-10.67-.24-10.67-.55,4.77-.55,10.67-.55S118.29,72,118.29,72.26Z"/><g class="cls-55"><polygon class="cls-56" points="350.12 213.74 233.33 213.53 291.87 135.9 350.39 58.27 408.65 136.11 466.9 213.95 350.12 213.74"/></g><path class="cls-47" d="M360.94,72.18H339.6L342,62.49l1.65-6.6c.4-1.61,1.27-2.94,1.94-3l1.21-.06,3.24,0,1.73,0,1.95,0,1.2.06c.65,0,1.51,1.36,1.92,3l1.65,6.6Z"/><path class="cls-40" d="M360.94,72.18H342.85l.08-.32,2.35-9.37,1.65-6.6c.4-1.61,1.27-2.94,1.94-3l1.21-.06,1.72,0,1.95,0,1.2.06c.65,0,1.51,1.36,1.92,3l1.65,6.6Z"/><path class="cls-33" d="M360.94,72.26c0,.31-4.77.55-10.67.55s-10.68-.24-10.68-.55,4.78-.55,10.68-.55S360.94,72,360.94,72.26Z"/><g class="cls-57"><polygon class="cls-58" points="592.78 213.74 475.99 213.53 534.52 135.9 593.05 58.27 651.3 136.11 709.56 213.95 592.78 213.74"/></g><path class="cls-47" d="M603.6,72.18H582.26l2.43-9.69,1.65-6.6c.4-1.61,1.27-2.94,1.94-3l1.21-.06,3.23,0,1.74,0,1.95,0,1.2.06c.65,0,1.51,1.36,1.92,3l1.65,6.6Z"/><path class="cls-40" d="M603.6,72.18H585.51l.08-.32,2.35-9.37,1.65-6.6c.4-1.61,1.27-2.94,1.94-3l1.21-.06,1.72,0,1.95,0,1.2.06c.65,0,1.51,1.36,1.92,3l1.65,6.6Z"/><path class="cls-33" d="M603.6,72.26c0,.31-4.78.55-10.67.55s-10.68-.24-10.68-.55,4.78-.55,10.68-.55S603.6,72,603.6,72.26Z"/><path class="cls-16" d="M114.21,55.89l1.65,6.6H99.37l1.65-6.6c.4-1.61,1.27-2.94,1.94-3l1.21-.06,3.24,0,1.73,0,2,0,1.2.06C112.94,53,113.8,54.28,114.21,55.89Z"/><path class="cls-16" d="M356.87,55.89l1.65,6.6H342l1.65-6.6c.4-1.61,1.27-2.94,1.94-3l1.21-.06,3.24,0,1.73,0,1.95,0,1.2.06C355.6,53,356.46,54.28,356.87,55.89Z"/><path class="cls-16" d="M601.18,62.49H584.69l1.65-6.6c.4-1.61,1.27-2.94,1.94-3l1.21-.06,3.23,0,1.74,0,1.95,0,1.2.06c.65,0,1.51,1.36,1.92,3Z"/><rect class="cls-51" x="-44.32" y="-75.74" width="796.09" height="133.73"/><rect class="cls-16" x="-44.32" y="10.44" width="807.32" height="25.4"/><g class="cls-52"><path d="M736,466.34a4,4,0,0,1-4,4H-36v-8H732A4,4,0,0,1,736,466.34Z"/><path d="M736,512.07a4,4,0,0,1-4,4H-36v-8H732A4,4,0,0,1,736,512.07Z"/></g><path class="cls-15" d="M735,462.5a4,4,0,0,1-4,4H-38a4,4,0,0,1-4-4h0a4,4,0,0,1,4-4H731a4,4,0,0,1,4,4Z"/><path class="cls-15" d="M735,508.23a4,4,0,0,1-4,4H-38a4,4,0,0,1-4-4h0a4,4,0,0,1,4-4H731a4,4,0,0,1,4,4Z"/><g class="cls-59"><path d="M262.23,493.34c-.75-2.73-1.9-4.71-4-5.55v-.13a7.89,7.89,0,0,0,5.25-7.32,7.54,7.54,0,0,0-2.74-6.22c-2.11-1.67-5.2-2.33-9.61-2.33a57.92,57.92,0,0,0-8.94.62v29.31h6.65V490h2c2.73,0,4,1,4.8,4.76a37.5,37.5,0,0,0,2.08,6.92h6.87C264.08,500.57,263.15,496.69,262.23,493.34Zm-10.71-8.15h-2.65V477a16.64,16.64,0,0,1,3-.22c3.09,0,4.94,1.41,4.94,4.14S254.87,485.19,251.52,485.19Z"/><path d="M275.11,496.21v-7H286v-5.47H275.11v-6.17H286.7V472H268.37v29.71h18.95v-5.51Z"/><path d="M307.13,496.6c-6,0-9.52-3.74-9.52-9.69,0-6.61,4.14-9.83,9.47-9.83a14.53,14.53,0,0,1,5.64,1.1l1.37-5.33a17.43,17.43,0,0,0-7.32-1.33c-9,0-16.22,5.65-16.22,15.78,0,8.47,5.29,14.86,15.56,14.86a19.12,19.12,0,0,0,7.63-1.28l-1-5.25A16.73,16.73,0,0,1,307.13,496.6Z"/><path d="M324.9,496.21v-7h10.93v-5.47H324.9v-6.17h11.6V472H318.16v29.71h18.95v-5.51Z"/><path d="M359.87,474.17c-2-1.59-4.94-2.38-9.08-2.38a54.09,54.09,0,0,0-9.08.62v29.31h6.66V491.09a16.4,16.4,0,0,0,2.29.14c4,0,7.36-1,9.65-3.13A9.53,9.53,0,0,0,363,481,8.7,8.7,0,0,0,359.87,474.17Zm-9.26,11.9a9.68,9.68,0,0,1-2.24-.18v-8.77a11.57,11.57,0,0,1,2.77-.26c3.35,0,5.25,1.63,5.25,4.36C356.39,484.26,354.18,486.07,350.61,486.07Z"/><path d="M365.08,472v5.64h8v24.07h6.75V477.65h8.11V472Z"/><path d="M391.5,472v29.71h6.74V472Z"/><path d="M417.16,471.52c-8.77,0-14.46,6.66-14.46,15.56,0,8.47,5.16,15.12,14,15.12s14.59-5.9,14.59-15.65C431.26,478.36,426.28,471.52,417.16,471.52ZM417,496.87c-4.5,0-7.23-4.1-7.23-9.92s2.64-10.09,7.18-10.09,7.19,4.58,7.19,9.91C424.17,492.55,421.57,496.87,417,496.87Z"/><path d="M454.11,472v8.68a110.43,110.43,0,0,0,.58,12.39h-.14a86.2,86.2,0,0,0-4.84-10.18L443.53,472h-7.84v29.71h6.17v-9c0-4.85-.09-9-.26-13l.13,0a111,111,0,0,0,5.15,10.49l6.35,11.46h7V472Z"/></g><path class="cls-14" d="M243.71,470.91a59.36,59.36,0,0,1,8.95-.62c4.41,0,7.49.66,9.61,2.34a7.54,7.54,0,0,1,2.73,6.21,7.88,7.88,0,0,1-5.24,7.32v.13c2.07.84,3.21,2.82,4,5.56.93,3.35,1.85,7.22,2.43,8.37h-6.88a37.52,37.52,0,0,1-2.07-6.92c-.79-3.7-2.07-4.71-4.8-4.76h-2v11.68h-6.66Zm6.66,12.78H253c3.35,0,5.34-1.67,5.34-4.27s-1.86-4.1-4.94-4.15a16.55,16.55,0,0,0-3,.22Z"/><path class="cls-14" d="M287.54,487.66H276.61v7h12.21v5.51h-19V470.51H288.2V476H276.61v6.17h10.93Z"/><path class="cls-14" d="M315.23,499.38a19.06,19.06,0,0,1-7.62,1.28c-10.27,0-15.56-6.39-15.56-14.85,0-10.14,7.23-15.78,16.22-15.78a17.5,17.5,0,0,1,7.32,1.32l-1.37,5.33a14.57,14.57,0,0,0-5.64-1.1c-5.33,0-9.48,3.22-9.48,9.83,0,5.95,3.53,9.7,9.52,9.7a16.75,16.75,0,0,0,5.6-1Z"/><path class="cls-14" d="M337.33,487.66H326.4v7h12.21v5.51h-19V470.51H338V476H326.4v6.17h10.93Z"/><path class="cls-14" d="M343.2,470.91a55.43,55.43,0,0,1,9.09-.62c4.14,0,7.09.8,9.08,2.38a8.71,8.71,0,0,1,3.17,6.88,9.49,9.49,0,0,1-2.73,7.05c-2.3,2.16-5.69,3.13-9.66,3.13a16.67,16.67,0,0,1-2.29-.13v10.62H343.2Zm6.66,13.49a10.48,10.48,0,0,0,2.25.17c3.57,0,5.77-1.8,5.77-4.85,0-2.73-1.89-4.36-5.24-4.36a11,11,0,0,0-2.78.27Z"/><path class="cls-14" d="M374.56,476.15h-8v-5.64h22.83v5.64H381.3v24.07h-6.74Z"/><path class="cls-14" d="M399.74,470.51v29.71H393V470.51Z"/><path class="cls-14" d="M432.76,485.06c0,9.74-5.91,15.65-14.59,15.65s-14-6.66-14-15.12c0-8.91,5.68-15.56,14.45-15.56C427.78,470,432.76,476.86,432.76,485.06Zm-21.47.4c0,5.81,2.74,9.91,7.23,9.91s7.14-4.32,7.14-10.09c0-5.34-2.55-9.92-7.18-9.92S411.29,479.68,411.29,485.46Z"/><path class="cls-14" d="M437.18,500.22V470.51H445l6.17,10.89a86.27,86.27,0,0,1,4.85,10.18h.13a110.34,110.34,0,0,1-.57-12.38v-8.69h6.17v29.71h-7l-6.35-11.46a112.26,112.26,0,0,1-5.16-10.49l-.13,0c.18,3.93.27,8.12.27,13v9Z"/><rect class="cls-39" x="128.88" y="388.98" width="2.41" height="1.75"/><rect class="cls-39" x="131.66" y="388.98" width="2.41" height="1.75"/><rect class="cls-39" x="134.44" y="388.98" width="2.41" height="1.75"/><rect class="cls-39" x="137.22" y="388.98" width="2.41" height="1.75"/><rect class="cls-39" x="140" y="388.98" width="2.41" height="1.75"/><rect class="cls-39" x="142.78" y="388.98" width="2.41" height="1.75"/><rect class="cls-39" x="145.57" y="388.98" width="2.41" height="1.75"/><rect class="cls-39" x="148.35" y="388.98" width="2.41" height="1.75"/><rect class="cls-39" x="151.13" y="388.98" width="2.41" height="1.75"/><rect class="cls-39" x="153.91" y="388.98" width="2.41" height="1.75"/><rect class="cls-39" x="156.69" y="388.98" width="2.41" height="1.75"/><rect class="cls-39" x="159.47" y="388.98" width="2.41" height="1.75"/><rect class="cls-39" x="162.25" y="388.98" width="2.41" height="1.75"/><rect class="cls-39" x="165.03" y="388.98" width="2.41" height="1.75"/><rect class="cls-39" x="167.82" y="388.98" width="2.41" height="1.75"/><rect class="cls-39" x="170.6" y="388.98" width="2.41" height="1.75"/><rect class="cls-39" x="173.38" y="388.98" width="2.41" height="1.75"/><rect class="cls-39" x="176.16" y="388.98" width="2.41" height="1.75"/><rect class="cls-39" x="178.94" y="388.98" width="2.41" height="1.75"/><rect class="cls-39" x="181.72" y="388.98" width="2.41" height="1.75"/><rect class="cls-39" x="184.5" y="388.98" width="2.41" height="1.75"/><rect class="cls-39" x="187.28" y="388.98" width="2.41" height="1.75"/><rect class="cls-39" x="190.06" y="388.98" width="2.41" height="1.75"/><rect class="cls-39" x="192.85" y="388.98" width="2.41" height="1.75"/><rect class="cls-39" x="195.63" y="388.98" width="2.41" height="1.75"/><rect class="cls-39" x="198.41" y="388.98" width="2.41" height="1.75"/><rect class="cls-39" x="201.19" y="388.98" width="2.41" height="1.75"/><rect class="cls-39" x="203.97" y="388.98" width="2.41" height="1.75"/><rect class="cls-39" x="206.75" y="388.98" width="2.41" height="1.75"/><rect class="cls-39" x="209.53" y="388.98" width="2.41" height="1.75"/><rect class="cls-39" x="212.31" y="388.98" width="2.41" height="1.75"/><rect class="cls-39" x="215.1" y="388.98" width="2.41" height="1.75"/><rect class="cls-39" x="217.88" y="388.98" width="2.41" height="1.75"/><rect class="cls-39" x="220.66" y="388.98" width="2.41" height="1.75"/><rect class="cls-39" x="223.44" y="388.98" width="2.41" height="1.75"/><path class="cls-13" d="M123.57,393.73v-1.87c0-1,2.23-1.88,5-1.88h97.49c2.77,0,5,.84,5,1.88v1.87Z"/><rect class="cls-60" x="127.93" y="393.15" width="4.67" height="1.5"/><rect class="cls-61" x="222.04" y="393.15" width="4.67" height="1.5"/><path class="cls-13" d="M243.58,295.86v74.69a2.22,2.22,0,0,1-2.21,2.21H124.48a2.21,2.21,0,0,1-2.21-2.21V295.86a2.22,2.22,0,0,1,2.21-2.21H241.37A2.22,2.22,0,0,1,243.58,295.86Z"/><path class="cls-12" d="M205,334.31c0,9.65-10.38,17.48-23.18,17.48s-23.18-7.83-23.18-17.48,10.38-17.48,23.18-17.48S205,324.66,205,334.31Z"/><path class="cls-62" d="M206.1,333.2c0,9.66-10.38,17.48-23.18,17.48s-23.18-7.82-23.18-17.48,10.38-17.47,23.18-17.47S206.1,323.55,206.1,333.2Z"/><path class="cls-12" d="M191.68,372.76H171.4l1.12-42.27a2.27,2.27,0,0,1,2.26-2.2H188.3a2.26,2.26,0,0,1,2.26,2.2Z"/><path class="cls-39" d="M172.3,391.06l1.59-61a2.29,2.29,0,0,1,2.27-2.21h13.52a2.29,2.29,0,0,1,2.27,2.21l1.59,61Z"/><path class="cls-62" d="M162.5,394.65v-3.86a3.32,3.32,0,0,1,3.31-3.32H200a3.32,3.32,0,0,1,3.31,3.32v3.86Z"/><path class="cls-13" d="M98.1,394.69V392c0-1.49,2.5-2.69,5.59-2.69s5.58,1.2,5.58,2.69v2.69Z"/><path class="cls-63" d="M45.72,350.58c-.58,9.72,1.93,17.77,5.62,18s7.14-7.48,7.72-17.19-5.62-18-5.62-18S46.3,340.87,45.72,350.58Z"/><path class="cls-64" d="M38.76,359.51c5.18,8.25,11.91,13.34,15,11.37s1.46-10.24-3.72-18.48-15-11.36-15-11.36S33.58,351.27,38.76,359.51Z"/><path class="cls-65" d="M54.58,350c-5.72,7.88-7.92,16-4.94,18.19s10-2.46,15.76-10.34,4.93-18.2,4.93-18.2S60.29,342.12,54.58,350Z"/><polygon class="cls-66" points="66.21 366.12 65.7 373.06 64.1 394.65 39.32 394.65 37.72 373.06 37.21 366.12 66.21 366.12"/><path class="cls-67" d="M67.84,362.38v7.95a2.8,2.8,0,0,1-2.14,2.73,2.84,2.84,0,0,1-.66.08H38.38a2.84,2.84,0,0,1-.66-.08,2.8,2.8,0,0,1-2.14-2.73v-7.95a2.8,2.8,0,0,1,2.8-2.81H65A2.8,2.8,0,0,1,67.84,362.38Z"/><path class="cls-68" d="M51.71,359.57v35.08H39.32l-1.6-21.59a2.8,2.8,0,0,1-2.14-2.73v-7.95a2.8,2.8,0,0,1,2.8-2.81Z"/><rect class="cls-69" x="631.96" y="340.82" width="6.26" height="53.75"/><rect class="cls-70" x="638.96" y="344.07" width="10.18" height="50.61"/><rect class="cls-71" x="611.26" y="368.51" width="0.38" height="19.03"/><path d="M611.16,368.41v19.24h.57V368.41Zm.38,19h-.19V368.62h.19Z"/><rect class="cls-71" x="611.68" y="368.51" width="0.38" height="19.03"/><path d="M611.59,368.41v19.24h.57V368.41Zm.38,19h-.19V368.62H612Z"/><rect class="cls-71" x="612.11" y="368.51" width="0.38" height="19.03"/><path d="M612,368.41v19.24h.57V368.41Zm.38,19h-.19V368.62h.19Z"/><rect class="cls-71" x="612.54" y="368.51" width="0.38" height="19.03"/><path d="M612.44,368.41v19.24H613V368.41Zm.38,19h-.19V368.62h.19Z"/><rect class="cls-71" x="612.96" y="368.51" width="0.38" height="19.03"/><path d="M612.87,368.41v19.24h.57V368.41Zm.38,19h-.19V368.62h.19Z"/><rect class="cls-71" x="613.39" y="368.51" width="0.38" height="19.03"/><path d="M613.3,368.41v19.24h.56V368.41Zm.38,19h-.19V368.62h.19Z"/><rect class="cls-71" x="613.82" y="368.51" width="0.38" height="19.03"/><path d="M613.72,368.41v19.24h.57V368.41Zm.38,19h-.19V368.62h.19Z"/><rect class="cls-71" x="614.25" y="368.51" width="0.38" height="19.03"/><path d="M614.15,368.41v19.24h.57V368.41Zm.38,19h-.19V368.62h.19Z"/><rect class="cls-71" x="614.67" y="368.51" width="0.38" height="19.03"/><path d="M614.58,368.41v19.24h.57V368.41Zm.38,19h-.19V368.62H615Z"/><rect class="cls-71" x="615.1" y="368.51" width="0.38" height="19.03"/><path d="M615,368.41v19.24h.57V368.41Zm.38,19h-.19V368.62h.19Z"/><rect class="cls-71" x="615.53" y="368.51" width="0.38" height="19.03"/><path d="M615.43,368.41v19.24H616V368.41Zm.38,19h-.19V368.62h.19Z"/><rect class="cls-71" x="615.96" y="368.51" width="0.38" height="19.03"/><path d="M615.86,368.41v19.24h.57V368.41Zm.38,19h-.19V368.62h.19Z"/><rect class="cls-71" x="616.38" y="368.51" width="0.38" height="19.03"/><path d="M616.29,368.41v19.24h.57V368.41Zm.38,19h-.19V368.62h.19Z"/><rect class="cls-71" x="616.81" y="368.51" width="0.38" height="19.03"/><path d="M616.71,368.41v19.24h.57V368.41Zm.38,19h-.19V368.62h.19Z"/><rect class="cls-71" x="617.24" y="368.51" width="0.38" height="19.03"/><path d="M617.14,368.41v19.24h.57V368.41Zm.38,19h-.19V368.62h.19Z"/><rect class="cls-71" x="617.66" y="368.51" width="0.38" height="19.03"/><path d="M617.57,368.41v19.24h.57V368.41Zm.38,19h-.19V368.62H618Z"/><path class="cls-72" d="M615.15,371.11v5.11h0a.58.58,0,0,1,.19,0l0,0h.05l0,0h0l0,0,.19.07.05,0,0,0s0,0,0,0l0,0,0,0,.19.13,0,0,0,0,0,0,0,0,.05,0,.19.2a.1.1,0,0,1,0,.05l0,.06a.18.18,0,0,1,0,.07l.05.06a.21.21,0,0,1,0,.06,2,2,0,0,1,.19.31l0,.09a1.17,1.17,0,0,1,.05.11,1,1,0,0,1,0,.1.69.69,0,0,1,0,.13.75.75,0,0,1,.05.16v-7.15Zm-5.46-31.9v55.36h10.25V339.21Zm7.45,41.47,0,.09a2,2,0,0,1-.19.31l0,.06-.05.06a.18.18,0,0,1,0,.07l0,.06,0,.05a1.7,1.7,0,0,1-.19.19.1.1,0,0,1-.05,0l0,.05,0,0,0,0s0,0,0,0l-.19.13,0,0,0,0,0,0,0,0-.05,0-.19.07,0,0h0l0,0h-.05l0,0a.58.58,0,0,1-.19,0h-.66a1.08,1.08,0,0,1-.19,0h-.14l-.05,0,0,0a.49.49,0,0,1-.19-.07.06.06,0,0,1,0,0h0l-.05,0,0,0,0,0a1.18,1.18,0,0,1-.19-.11s0,0,0,0l-.05,0s0,0,0,0l0,0,0,0a1.62,1.62,0,0,1-.19-.18l0-.05,0-.05,0-.05,0-.06a.18.18,0,0,1,0-.07,1.65,1.65,0,0,1-.19-.27.41.41,0,0,1,0-.09.16.16,0,0,1,0-.07l0-.09a1.17,1.17,0,0,1,0-.11l-.05-.12a3.2,3.2,0,0,1-.19-.69,3.12,3.12,0,0,1,0-.54,3.08,3.08,0,0,1,0-.53,3.13,3.13,0,0,1,.19-.7l.05-.12a1.17,1.17,0,0,1,0-.11l0-.09a.16.16,0,0,1,0-.07.41.41,0,0,1,0-.09,1.65,1.65,0,0,1,.19-.27.18.18,0,0,1,0-.07l0-.06a.1.1,0,0,1,0-.05l0-.05,0-.06a1.54,1.54,0,0,1,.19-.17l0,0,0,0,0,0s0,0,.05,0l0,0a.72.72,0,0,1,.19-.11s0,0,0,0l0,0,.05,0h0a.06.06,0,0,1,0,0,.49.49,0,0,1,.19-.07l0,0,.05,0h.14a1.08,1.08,0,0,1,.19,0h.66a.58.58,0,0,1,.19,0l0,0h.05l0,0h0l0,0,.19.07.05,0,0,0s0,0,0,0l0,0,0,0,.19.13,0,0,0,0,0,0,0,0,.05,0,.19.2a.1.1,0,0,1,0,.05l0,.06a.18.18,0,0,1,0,.07l.05.06a.21.21,0,0,1,0,.06,2,2,0,0,1,.19.31l0,.09a1.17,1.17,0,0,1,.05.11,1,1,0,0,1,0,.1.69.69,0,0,1,0,.13.75.75,0,0,1,.05.16,3.36,3.36,0,0,1,0,1.92.75.75,0,0,1-.05.16.69.69,0,0,1,0,.13,1,1,0,0,1,0,.1A1.17,1.17,0,0,1,617.14,380.68Z"/><rect class="cls-33" x="610.51" y="343.43" width="8.73" height="27.68"/><rect class="cls-71" x="622.42" y="368.51" width="0.38" height="19.03"/><path d="M622.89,387.65h-.57V368.4h.57Zm-.38-.22h.2V368.62h-.2Z"/><rect class="cls-71" x="622.85" y="368.51" width="0.38" height="19.03"/><path d="M623.32,387.65h-.57V368.4h.57Zm-.38-.22h.19V368.62h-.19Z"/><rect class="cls-71" x="623.27" y="368.51" width="0.38" height="19.03"/><path d="M623.75,387.65h-.57V368.4h.57Zm-.38-.22h.19V368.62h-.19Z"/><rect class="cls-71" x="623.7" y="368.51" width="0.38" height="19.03"/><path d="M624.18,387.65h-.57V368.4h.57Zm-.38-.22H624V368.62h-.19Z"/><rect class="cls-71" x="624.13" y="368.51" width="0.38" height="19.03"/><path d="M624.6,387.65H624V368.4h.57Zm-.38-.22h.19V368.62h-.19Z"/><rect class="cls-71" x="624.56" y="368.51" width="0.38" height="19.03"/><path d="M625,387.65h-.57V368.4H625Zm-.38-.22h.19V368.62h-.19Z"/><rect class="cls-71" x="624.98" y="368.51" width="0.38" height="19.03"/><path d="M625.46,387.65h-.57V368.4h.57Zm-.38-.22h.19V368.62h-.19Z"/><rect class="cls-71" x="625.41" y="368.51" width="0.38" height="19.03"/><path d="M625.88,387.65h-.56V368.4h.56Zm-.37-.22h.19V368.62h-.19Z"/><rect class="cls-71" x="625.84" y="368.51" width="0.38" height="19.03"/><path d="M626.31,387.65h-.57V368.4h.57Zm-.38-.22h.19V368.62h-.19Z"/><rect class="cls-71" x="626.27" y="368.51" width="0.38" height="19.03"/><path d="M626.74,387.65h-.57V368.4h.57Zm-.38-.22h.19V368.62h-.19Z"/><rect class="cls-71" x="626.69" y="368.51" width="0.38" height="19.03"/><path d="M627.17,387.65h-.57V368.4h.57Zm-.38-.22H627V368.62h-.19Z"/><rect class="cls-71" x="627.12" y="368.51" width="0.38" height="19.03"/><path d="M627.59,387.65H627V368.4h.57Zm-.38-.22h.19V368.62h-.19Z"/><rect class="cls-71" x="627.55" y="368.51" width="0.38" height="19.03"/><path d="M628,387.65h-.57V368.4H628Zm-.38-.22h.19V368.62h-.19Z"/><rect class="cls-71" x="627.97" y="368.51" width="0.38" height="19.03"/><path d="M628.45,387.65h-.57V368.4h.57Zm-.38-.22h.19V368.62h-.19Z"/><rect class="cls-71" x="628.4" y="368.51" width="0.38" height="19.03"/><path d="M628.88,387.65h-.57V368.4h.57Zm-.38-.22h.19V368.62h-.19Z"/><rect class="cls-71" x="628.83" y="368.51" width="0.38" height="19.03"/><path d="M629.3,387.65h-.57V368.4h.57Zm-.38-.22h.19V368.62h-.19Z"/><path class="cls-72" d="M620.85,339.21v55.36h10.26V339.21Zm5.13,43a3.05,3.05,0,1,1,2.66-3A2.86,2.86,0,0,1,626,382.24Z"/><rect class="cls-33" x="621.67" y="343.43" width="8.74" height="27.68"/><rect class="cls-73" x="609.69" y="339.21" width="5.46" height="55.36"/><rect class="cls-73" x="620.85" y="339.21" width="5.46" height="55.36"/><rect class="cls-73" x="631.96" y="340.82" width="3.13" height="53.75"/><rect class="cls-73" x="638.96" y="344.07" width="5.09" height="50.61"/><polygon class="cls-74" points="482.28 380.43 473.76 379.82 475.98 355.22 484.5 355.83 482.28 380.43"/><polygon class="cls-75" points="484.5 355.84 481.57 350.89 479.76 350.76 475.97 355.23 484.5 355.84"/><polygon class="cls-74" points="480.77 349.55 479.76 350.76 481.57 350.89 480.77 349.55"/><path class="cls-76" d="M472.37,343v-.52c0-.3.1-.53.23-.53s.22.23.22.53V343Z"/><path class="cls-77" d="M471.26,379.73v-32.6c0-2.54.6-4.61,1.34-4.61s1.33,2.07,1.33,4.61v32.6Z"/><path class="cls-78" d="M484.6,380.13l-.51-.06a.94.94,0,0,1-.91-1l4.28-33a1,1,0,0,1,1.14-.81l.52.05a1,1,0,0,1,.91,1l-4.28,33A1,1,0,0,1,484.6,380.13Z"/><polygon class="cls-79" points="485.21 383.44 482.64 383.18 487.16 348.35 489.73 348.61 485.21 383.44"/><polygon class="cls-80" points="484.92 385.73 482.34 385.47 486.86 350.64 489.44 350.91 484.92 385.73"/><path class="cls-81" d="M473.39,383.14l-.51.08a1,1,0,0,1-1.21-.73l-7.05-32.61a.93.93,0,0,1,.82-1.08l.51-.09a1,1,0,0,1,1.21.73l7,32.62A.93.93,0,0,1,473.39,383.14Z"/><polygon class="cls-79" points="475.1 386.13 472.55 386.57 465.11 352.14 467.65 351.71 475.1 386.13"/><polygon class="cls-82" points="475.59 388.4 473.04 388.83 465.6 354.41 468.14 353.97 475.59 388.4"/><rect class="cls-83" x="465.12" y="366.18" width="21.42" height="28.49"/><rect class="cls-84" x="467.71" y="366.19" width="21.42" height="28.49"/><rect class="cls-12" x="477.02" y="366.19" width="12.11" height="28.49"/><rect class="cls-71" x="539.31" y="362.28" width="0.6" height="23.65"/><path d="M540.07,386.07h-.91V362.15h.91Zm-.61-.27h.3V362.42h-.3Z"/><rect class="cls-71" x="539.99" y="362.28" width="0.6" height="23.65"/><path d="M540.74,386.07h-.9V362.15h.9Zm-.6-.27h.3V362.42h-.3Z"/><rect class="cls-71" x="540.67" y="362.28" width="0.6" height="23.65"/><path d="M541.42,386.07h-.9V362.15h.9Zm-.6-.27h.3V362.42h-.3Z"/><rect class="cls-71" x="541.35" y="362.28" width="0.6" height="23.65"/><path d="M542.1,386.07h-.9V362.15h.9Zm-.6-.27h.3V362.42h-.3Z"/><rect class="cls-71" x="542.03" y="362.28" width="0.6" height="23.65"/><path d="M542.78,386.07h-.9V362.15h.9Zm-.6-.27h.3V362.42h-.3Z"/><rect class="cls-71" x="542.71" y="362.28" width="0.6" height="23.65"/><path d="M543.46,386.07h-.9V362.15h.9Zm-.6-.27h.3V362.42h-.3Z"/><rect class="cls-71" x="543.39" y="362.28" width="0.6" height="23.65"/><path d="M544.14,386.07h-.9V362.15h.9Zm-.6-.27h.3V362.42h-.3Z"/><rect class="cls-71" x="544.07" y="362.28" width="0.6" height="23.65"/><path d="M544.82,386.07h-.9V362.15h.9Zm-.6-.27h.3V362.42h-.3Z"/><rect class="cls-71" x="544.75" y="362.28" width="0.6" height="23.65"/><path d="M545.5,386.07h-.91V362.15h.91Zm-.6-.27h.3V362.42h-.3Z"/><rect class="cls-71" x="545.42" y="362.28" width="0.6" height="23.65"/><path d="M546.18,386.07h-.91V362.15h.91Zm-.6-.27h.3V362.42h-.3Z"/><rect class="cls-71" x="546.1" y="362.28" width="0.6" height="23.65"/><path d="M546.86,386.07H546V362.15h.91Zm-.61-.27h.31V362.42h-.31Z"/><rect class="cls-71" x="546.78" y="362.28" width="0.6" height="23.65"/><path d="M547.54,386.07h-.91V362.15h.91Zm-.61-.27h.31V362.42h-.31Z"/><rect class="cls-71" x="547.46" y="362.28" width="0.6" height="23.65"/><path d="M548.22,386.07h-.91V362.15h.91Zm-.61-.27h.31V362.42h-.31Z"/><rect class="cls-71" x="548.14" y="362.28" width="0.6" height="23.65"/><path d="M548.9,386.07H548V362.15h.91Zm-.61-.27h.31V362.42h-.31Z"/><rect class="cls-71" x="548.82" y="362.28" width="0.6" height="23.65"/><path d="M549.58,386.07h-.91V362.15h.91Zm-.61-.27h.3V362.42H549Z"/><rect class="cls-71" x="549.5" y="362.28" width="0.6" height="23.65"/><path d="M550.26,386.07h-.91V362.15h.91Zm-.61-.27H550V362.42h-.31Z"/><path class="cls-85" d="M536.82,325.87v68.81h16.3V325.87Zm8.45,53.48H545a3.79,3.79,0,1,1,0-7.53h.3a3.76,3.76,0,1,1,0,7.51Z"/><rect class="cls-33" x="538.13" y="331.1" width="13.89" height="34.41"/><rect class="cls-86" x="536.82" y="325.87" width="8.45" height="68.81"/><rect class="cls-71" x="556.48" y="362.28" width="0.6" height="23.65"/><path d="M557.23,386.07h-.91V362.15h.91Zm-.6-.27h.3V362.42h-.3Z"/><rect class="cls-71" x="557.16" y="362.28" width="0.6" height="23.65"/><path d="M557.91,386.07H557V362.15h.91Zm-.6-.27h.3V362.42h-.3Z"/><rect class="cls-71" x="557.83" y="362.28" width="0.61" height="23.65"/><path d="M558.59,386.07h-.91V362.15h.91Zm-.6-.27h.3V362.42H558Z"/><rect class="cls-71" x="558.52" y="362.28" width="0.6" height="23.65"/><path d="M559.27,386.07h-.91V362.15h.91Zm-.6-.27h.3V362.42h-.3Z"/><rect class="cls-71" x="559.19" y="362.28" width="0.61" height="23.65"/><path d="M560,386.07H559V362.15H560Zm-.6-.27h.3V362.42h-.3Z"/><rect class="cls-71" x="559.87" y="362.28" width="0.61" height="23.65"/><path d="M560.63,386.07h-.91V362.15h.91Zm-.6-.27h.3V362.42H560Z"/><rect class="cls-71" x="560.55" y="362.28" width="0.6" height="23.65"/><path d="M561.31,386.07h-.91V362.15h.91Zm-.61-.27H561V362.42h-.31Z"/><rect class="cls-71" x="561.23" y="362.28" width="0.6" height="23.65"/><path d="M562,386.07h-.91V362.15H562Zm-.61-.27h.31V362.42h-.31Z"/><rect class="cls-71" x="561.91" y="362.28" width="0.6" height="23.65"/><path d="M562.67,386.07h-.91V362.15h.91Zm-.61-.27h.31V362.42h-.31Z"/><rect class="cls-71" x="562.59" y="362.28" width="0.6" height="23.65"/><path d="M563.35,386.07h-.91V362.15h.91Zm-.61-.27h.3V362.42h-.3Z"/><rect class="cls-71" x="563.27" y="362.28" width="0.6" height="23.65"/><path d="M564,386.07h-.91V362.15H564Zm-.61-.27h.3V362.42h-.3Z"/><rect class="cls-71" x="563.95" y="362.28" width="0.6" height="23.65"/><path d="M564.71,386.07h-.91V362.15h.91Zm-.61-.27h.3V362.42h-.3Z"/><rect class="cls-71" x="564.63" y="362.28" width="0.61" height="23.65"/><path d="M565.38,386.07h-.9V362.15h.9Zm-.6-.27h.3V362.42h-.3Z"/><rect class="cls-71" x="565.31" y="362.28" width="0.6" height="23.65"/><path d="M566.06,386.07h-.9V362.15h.9Zm-.6-.27h.3V362.42h-.3Z"/><rect class="cls-71" x="565.99" y="362.28" width="0.6" height="23.65"/><path d="M566.74,386.07h-.9V362.15h.9Zm-.6-.27h.3V362.42h-.3Z"/><rect class="cls-71" x="566.67" y="362.28" width="0.6" height="23.65"/><path d="M567.42,386.07h-.9V362.15h.9Zm-.6-.27h.3V362.42h-.3Z"/><path class="cls-51" d="M554,325.87v68.81h16.3V325.87Zm8.45,53.48h-.3a3.79,3.79,0,1,1,0-7.53h.3a3.76,3.76,0,1,1,0,7.51Z"/><rect class="cls-33" x="555.29" y="331.1" width="13.89" height="34.41"/><rect class="cls-86" x="553.99" y="325.87" width="8.45" height="68.81"/><rect class="cls-71" x="573.64" y="362.28" width="0.6" height="23.65"/><path d="M574.4,386.07h-.91V362.15h.91Zm-.61-.27h.31V362.42h-.31Z"/><rect class="cls-71" x="574.32" y="362.28" width="0.6" height="23.65"/><path d="M575.08,386.07h-.91V362.15h.91Zm-.61-.27h.3V362.42h-.3Z"/><rect class="cls-71" x="575" y="362.28" width="0.61" height="23.65"/><path d="M575.76,386.07h-.91V362.15h.91Zm-.61-.27h.31V362.42h-.31Z"/><rect class="cls-71" x="575.68" y="362.28" width="0.6" height="23.65"/><path d="M576.44,386.07h-.91V362.15h.91Zm-.61-.27h.3V362.42h-.3Z"/><rect class="cls-71" x="576.36" y="362.28" width="0.61" height="23.65"/><path d="M577.12,386.07h-.91V362.15h.91Zm-.61-.27h.3V362.42h-.3Z"/><rect class="cls-71" x="577.04" y="362.28" width="0.61" height="23.65"/><path d="M577.79,386.07h-.9V362.15h.9Zm-.6-.27h.3V362.42h-.3Z"/><rect class="cls-71" x="577.72" y="362.28" width="0.6" height="23.65"/><path d="M578.47,386.07h-.9V362.15h.9Zm-.6-.27h.3V362.42h-.3Z"/><rect class="cls-71" x="578.4" y="362.28" width="0.6" height="23.65"/><path d="M579.15,386.07h-.9V362.15h.9Zm-.6-.27h.3V362.42h-.3Z"/><rect class="cls-71" x="579.08" y="362.28" width="0.6" height="23.65"/><path d="M579.83,386.07h-.9V362.15h.9Zm-.6-.27h.3V362.42h-.3Z"/><rect class="cls-71" x="579.76" y="362.28" width="0.6" height="23.65"/><path d="M580.51,386.07h-.9V362.15h.9Zm-.6-.27h.3V362.42h-.3Z"/><rect class="cls-71" x="580.44" y="362.28" width="0.6" height="23.65"/><path d="M581.19,386.07h-.9V362.15h.9Zm-.6-.27h.3V362.42h-.3Z"/><rect class="cls-71" x="581.12" y="362.28" width="0.6" height="23.65"/><path d="M581.87,386.07H581V362.15h.91Zm-.6-.27h.3V362.42h-.3Z"/><rect class="cls-71" x="581.79" y="362.28" width="0.61" height="23.65"/><path d="M582.55,386.07h-.91V362.15h.91Zm-.6-.27h.3V362.42H582Z"/><rect class="cls-71" x="582.47" y="362.28" width="0.6" height="23.65"/><path d="M583.23,386.07h-.91V362.15h.91Zm-.61-.27h.31V362.42h-.31Z"/><rect class="cls-71" x="583.15" y="362.28" width="0.6" height="23.65"/><path d="M583.91,386.07H583V362.15h.91Zm-.6-.27h.3V362.42h-.3Z"/><rect class="cls-71" x="583.83" y="362.28" width="0.6" height="23.65"/><path d="M584.59,386.07h-.91V362.15h.91Zm-.61-.27h.31V362.42H584Z"/><path class="cls-87" d="M571.16,325.87v68.81h16.3V325.87Zm8.45,53.48h-.3a3.79,3.79,0,1,1,0-7.53h.3a3.76,3.76,0,1,1,0,7.51Z"/><rect class="cls-33" x="572.46" y="331.1" width="13.89" height="34.41"/><rect class="cls-86" x="571.16" y="325.87" width="8.45" height="68.81"/><rect class="cls-71" x="590.81" y="362.28" width="0.6" height="23.65"/><path d="M591.56,386.07h-.9V362.15h.9Zm-.6-.27h.3V362.42H591Z"/><rect class="cls-71" x="591.49" y="362.28" width="0.6" height="23.65"/><path d="M592.24,386.07h-.9V362.15h.9Zm-.6-.27h.3V362.42h-.3Z"/><rect class="cls-71" x="592.17" y="362.28" width="0.61" height="23.65"/><path d="M592.92,386.07H592V362.15h.9Zm-.6-.27h.3V362.42h-.3Z"/><rect class="cls-71" x="592.85" y="362.28" width="0.6" height="23.65"/><path d="M593.6,386.07h-.9V362.15h.9Zm-.6-.27h.3V362.42H593Z"/><rect class="cls-71" x="593.53" y="362.28" width="0.61" height="23.65"/><path d="M594.28,386.07h-.91V362.15h.91Zm-.6-.27h.3V362.42h-.3Z"/><rect class="cls-71" x="594.21" y="362.28" width="0.61" height="23.65"/><path d="M595,386.07h-.91V362.15H595Zm-.6-.27h.3V362.42h-.3Z"/><rect class="cls-71" x="594.88" y="362.28" width="0.6" height="23.65"/><path d="M595.64,386.07h-.91V362.15h.91Zm-.6-.27h.3V362.42H595Z"/><rect class="cls-71" x="595.56" y="362.28" width="0.6" height="23.65"/><path d="M596.32,386.07h-.91V362.15h.91Zm-.61-.27H596V362.42h-.31Z"/><rect class="cls-71" x="596.24" y="362.28" width="0.6" height="23.65"/><path d="M597,386.07h-.91V362.15H597Zm-.61-.27h.31V362.42h-.31Z"/><rect class="cls-71" x="596.92" y="362.28" width="0.6" height="23.65"/><path d="M597.68,386.07h-.91V362.15h.91Zm-.61-.27h.3V362.42h-.3Z"/><rect class="cls-71" x="597.6" y="362.28" width="0.6" height="23.65"/><path d="M598.36,386.07h-.91V362.15h.91Zm-.61-.27h.3V362.42h-.3Z"/><rect class="cls-71" x="598.28" y="362.28" width="0.6" height="23.65"/><path d="M599,386.07h-.91V362.15H599Zm-.61-.27h.3V362.42h-.3Z"/><rect class="cls-71" x="598.96" y="362.28" width="0.61" height="23.65"/><path d="M599.72,386.07h-.91V362.15h.91Zm-.61-.27h.3V362.42h-.3Z"/><rect class="cls-71" x="599.64" y="362.28" width="0.6" height="23.65"/><path d="M600.4,386.07h-.91V362.15h.91Zm-.61-.27h.3V362.42h-.3Z"/><rect class="cls-71" x="600.32" y="362.28" width="0.6" height="23.65"/><path d="M601.07,386.07h-.9V362.15h.9Zm-.6-.27h.3V362.42h-.3Z"/><rect class="cls-71" x="601" y="362.28" width="0.6" height="23.65"/><path d="M601.76,386.07h-.91V362.15h.91Zm-.61-.27h.3V362.42h-.3Z"/><path class="cls-88" d="M588.32,325.87v68.81h16.3V325.87Zm8.45,53.48h-.3a3.79,3.79,0,1,1,0-7.53h.3a3.76,3.76,0,1,1,0,7.51Z"/><rect class="cls-33" x="589.62" y="331.1" width="13.89" height="34.41"/><rect class="cls-86" x="588.32" y="325.87" width="8.45" height="68.81"/><path class="cls-33" d="M534.35,378.54v6.21h-36.7a3,3,0,0,1-.24-.38,5.27,5.27,0,0,1,0-5.45,4,4,0,0,1,.24-.38Z"/><path class="cls-49" d="M534.35,381.65v3.1h-36.7a3,3,0,0,1-.24-.38,5.34,5.34,0,0,1-.76-2.72Z"/><path class="cls-89" d="M535.72,384.74v1H498.43l0-.05h0l-.07-.09a4.46,4.46,0,0,1-.33-.43h0c-.08-.12-.16-.24-.23-.37h0c-.07-.12-.14-.24-.2-.37a5.25,5.25,0,0,1,.2-5.08c.07-.13.15-.25.23-.37h0l.27-.37h36.1v.75h-35a4.31,4.31,0,0,0-1,2.72,4.18,4.18,0,0,0,.75,2.36,3.18,3.18,0,0,0,.27.37Z"/><path class="cls-65" d="M535.72,377.6v1.32H497.41a6.67,6.67,0,0,1,1-1.32Z"/><path class="cls-65" d="M535.72,384.37v1.33H498.43l0-.05h0a1.29,1.29,0,0,1-.16-.17,3.22,3.22,0,0,1-.24-.28c-.05-.06-.1-.13-.16-.19h0l-.17-.24-.1-.15a1.76,1.76,0,0,1-.14-.23Z"/><path class="cls-65" d="M512.39,384.37c-.1.13-.21.25-.32.37h0a6.84,6.84,0,0,1-1.16.95H513a7.71,7.71,0,0,0,.78-.95h0c.08-.12.16-.24.23-.37Zm1.42-5.83a4.9,4.9,0,0,0-.45-.57c-.1-.13-.22-.25-.33-.37H510.9a4,4,0,0,1,.52.37,5.79,5.79,0,0,1,.64.57c.11.12.23.25.33.38h1.66C514,378.79,513.9,378.67,513.81,378.54Zm-14.41,6.21a3.9,3.9,0,0,1-.33-.38,4.15,4.15,0,0,1,0-5.45,3.9,3.9,0,0,1,.33-.38A5,5,0,0,1,500,378a4.74,4.74,0,0,1,.51-.37h-2.12l-.21.22-.24.28c-.05.06-.1.13-.16.19h0l-.17.24-.1.15c-.05.08-.1.15-.14.23a5.27,5.27,0,0,0,0,5.45,1.76,1.76,0,0,0,.14.23l.1.15.17.24h0c.06.06.11.13.16.19a3.22,3.22,0,0,0,.24.28,1.29,1.29,0,0,0,.16.17h0l.05.05h2.12A6.76,6.76,0,0,1,499.4,384.75Z"/><path class="cls-33" d="M529,362.34v6.21H499.09c-.07-.12-.13-.25-.2-.38a6.38,6.38,0,0,1-.61-2.72,6.45,6.45,0,0,1,.61-2.73l.2-.38Z"/><path class="cls-49" d="M529,365.45v3.1H499.09c-.07-.12-.13-.25-.2-.38a6.38,6.38,0,0,1-.61-2.72Z"/><path class="cls-89" d="M530.08,368.54v1H499.73l0-.05h0l-.06-.08c-.1-.15-.18-.29-.27-.44h0c-.07-.12-.13-.24-.19-.37h0c-.06-.12-.12-.24-.17-.37a6.39,6.39,0,0,1-.46-2.35,6.32,6.32,0,0,1,.63-2.73c.05-.12.12-.24.19-.37h0c.07-.13.15-.25.22-.37H529v.75H500.52a4.9,4.9,0,0,0-.23,5.08c.07.13.15.25.23.37Z"/><path class="cls-90" d="M530.08,361.4v1.32H498.89a7,7,0,0,1,.84-1.32Z"/><path class="cls-90" d="M530.08,368.17v1.33H499.73l0-.05h0c-.05-.05-.09-.11-.14-.17l-.19-.27-.13-.2h0c-.05-.08-.1-.16-.14-.24l-.08-.15-.12-.23Z"/><path class="cls-90" d="M511.09,368.17c-.08.13-.17.25-.26.37h0a5.63,5.63,0,0,1-.94.95h1.73a7.52,7.52,0,0,0,.64-.95h0c.07-.12.13-.24.19-.37Zm1.16-5.83a5,5,0,0,0-.37-.57,3.18,3.18,0,0,0-.27-.37h-1.73a5,5,0,0,1,.42.37,5.57,5.57,0,0,1,.52.57,4.44,4.44,0,0,1,.27.38h1.35C512.38,362.59,512.32,362.47,512.25,362.34Zm-11.73,6.21a3.28,3.28,0,0,1-.27-.38,4.9,4.9,0,0,1-.83-2.72,5,5,0,0,1,.83-2.73,4.44,4.44,0,0,1,.27-.38,5.57,5.57,0,0,1,.52-.57,5,5,0,0,1,.42-.37h-1.73l-.18.22-.19.28-.13.2h0c-.05.08-.1.16-.14.24l-.08.15-.12.23a6.45,6.45,0,0,0-.61,2.73,6.38,6.38,0,0,0,.61,2.72l.12.23.08.15c0,.08.09.16.14.24h0l.13.2.19.27c.05.06.09.12.14.17h0l0,.05h1.73A5.63,5.63,0,0,1,500.52,368.55Z"/><path class="cls-33" d="M530.35,370.44v6.21H498.86a.24.24,0,0,1-.06-.11,1.19,1.19,0,0,1-.09-.15l-.06-.12a6,6,0,0,1,0-5.45l.06-.12,0-.05.05-.09h0l.06-.1Z"/><path class="cls-15" d="M530.35,373.55v3.1H498.86a.24.24,0,0,1-.06-.11,1.19,1.19,0,0,1-.09-.15l-.06-.12a6,6,0,0,1-.65-2.72Z"/><path class="cls-91" d="M531.51,376.64v1h-32l0,0,0,0h0l-.06-.09c-.1-.14-.19-.28-.28-.43h0l-.2-.37h0l-.18-.37a6,6,0,0,1-.48-2.35c0-.13,0-.25,0-.37a6,6,0,0,1,.65-2.36l.19-.37h0l.23-.37h31v.75h-30a4.76,4.76,0,0,0-.86,2.36c0,.12,0,.24,0,.37a4.81,4.81,0,0,0,.64,2.35l.24.37Z"/><path class="cls-92" d="M531.51,369.5v1.32H498.65l.06-.12,0-.05.05-.09h0l0,0a.64.64,0,0,0,.08-.14l0-.06.1-.15,0,0,.07-.1.1-.14,0-.05.16-.2.09-.11Z"/><path class="cls-92" d="M531.51,376.27v1.33h-32l0,0,0,0h0l-.13-.17-.21-.28-.13-.19h0c-.05-.08-.1-.16-.14-.24a.24.24,0,0,1-.06-.11l0,0-.06-.11-.06-.12Z"/><path class="cls-92" d="M500.36,376.65c-.1-.12-.2-.25-.29-.38a4.7,4.7,0,0,1,0-5.45c.09-.13.19-.25.29-.38a5.9,5.9,0,0,1,.55-.57,2.61,2.61,0,0,1,.44-.37h-1.82l-.09.11a.44.44,0,0,0-.09.11l-.07.09,0,.05-.1.14-.07.1,0,0,0,.05h0l-.06.1,0,.06,0,.08,0,.06,0,0h0l0,0,0,.06,0,.05-.06.12a6,6,0,0,0,0,5.45l.06.12.06.11,0,0a.24.24,0,0,0,.06.11c0,.08.09.16.14.24h0l.13.19.21.28.13.17h0l0,0,0,0h1.82A5.6,5.6,0,0,1,500.36,376.65Zm12.36-6.21a5.13,5.13,0,0,0-.38-.57c-.09-.13-.19-.25-.29-.37h-1.82a3.75,3.75,0,0,1,.44.37,5.9,5.9,0,0,1,.55.57l.28.38h1.42C512.86,370.69,512.79,370.57,512.72,370.44Zm-1.22,5.83a4.5,4.5,0,0,1-.28.37h0a6.38,6.38,0,0,1-1,1h1.82a6.8,6.8,0,0,0,.67-1h0a3.24,3.24,0,0,0,.19-.37Z"/><polygon class="cls-89" points="530.35 376.27 531.51 376.27 531.51 377.6 503.47 377.6 503.47 369.5 531.51 369.5 531.51 370.82 530.35 370.82 530.35 376.27"/><path class="cls-33" d="M528.35,370.44v6.21H496.86c-.07-.12-.14-.25-.2-.38a6,6,0,0,1,0-5.45c.06-.13.13-.25.2-.38Z"/><path class="cls-49" d="M528.35,373.55v3.1H496.86c-.07-.12-.14-.25-.2-.38a5.91,5.91,0,0,1-.66-2.72Z"/><path class="cls-89" d="M529.52,376.64v1h-32l0-.05h0l-.06-.08-.28-.44h0c-.07-.12-.13-.24-.19-.37h0c-.06-.12-.12-.24-.17-.37a6,6,0,0,1,.17-5.08c.06-.13.13-.25.2-.37h0c.07-.13.15-.25.23-.37h31v.75h-30a4.81,4.81,0,0,0-.87,2.72,4.69,4.69,0,0,0,.64,2.36c.07.13.15.25.23.37Z"/><path class="cls-92" d="M529.52,369.5v1.32H496.66a6.7,6.7,0,0,1,.87-1.32Z"/><path class="cls-92" d="M529.52,376.27v1.33h-32l0-.05h0a1.15,1.15,0,0,1-.14-.17,2.83,2.83,0,0,1-.2-.28l-.14-.19h0l-.15-.24a1.09,1.09,0,0,1-.08-.15,1,1,0,0,1-.12-.23Z"/><path class="cls-92" d="M509.51,376.27c-.09.13-.18.25-.28.37h0a5.6,5.6,0,0,1-1,1h1.82a6.06,6.06,0,0,0,.67-1h0c.07-.12.14-.24.2-.37Zm1.21-5.83a4.35,4.35,0,0,0-.38-.57,3.37,3.37,0,0,0-.29-.37h-1.82a3.19,3.19,0,0,1,.44.37,4.94,4.94,0,0,1,.55.57c.1.13.2.25.29.38h1.42A3.59,3.59,0,0,0,510.72,370.44Zm-12.35,6.21a3.47,3.47,0,0,1-.29-.38,4.78,4.78,0,0,1-.87-2.72,4.84,4.84,0,0,1,.87-2.73c.09-.13.18-.25.29-.38a4.15,4.15,0,0,1,.54-.57,5.07,5.07,0,0,1,.44-.37h-1.82l-.18.22-.2.28c0,.06-.09.13-.14.2h0l-.15.24a1.09,1.09,0,0,0-.08.15,1.71,1.71,0,0,0-.12.23,6,6,0,0,0,0,5.45,1,1,0,0,0,.12.23,1.09,1.09,0,0,0,.08.15l.15.24h0l.14.19a2.83,2.83,0,0,0,.2.28,1.15,1.15,0,0,0,.14.17h0l0,.05h1.82A5.89,5.89,0,0,1,498.37,376.65Z"/><polygon class="cls-93" points="515.12 372.23 515.12 379.13 513.03 376.89 512.98 376.83 510.83 379.13 510.83 372.23 515.12 372.23"/><polygon class="cls-73" points="513.03 372.23 513.03 376.89 512.98 376.83 510.83 379.13 510.83 372.23 513.03 372.23"/><polygon class="cls-45" points="523.01 365.39 523.01 372.28 520.92 370.04 520.87 369.99 518.73 372.28 518.73 365.39 523.01 365.39"/><polygon class="cls-73" points="520.92 365.39 520.92 370.04 520.87 369.99 518.73 372.28 518.73 365.39 520.92 365.39"/><path class="cls-94" d="M530.63,393.18H532v1.46H491.59l0,0h0c0-.06-.05-.12-.07-.19l-.11-.3c0-.07,0-.14-.07-.22h0c0-.09-.05-.18-.08-.27s0-.11,0-.17a1.82,1.82,0,0,1-.07-.25,13.49,13.49,0,0,1,0-6,1.82,1.82,0,0,1,.07-.25c0-.06,0-.12,0-.17s0-.18.08-.27h0s0,0,0-.06a0,0,0,0,1,0,0c0-.05,0-.1,0-.14s.07-.21.11-.31a2.44,2.44,0,0,1,.1-.24H532v1.46h-1.39Z"/><path class="cls-94" d="M495.56,394.59l0,.05H494a.12.12,0,0,1,0-.05h0l-.17-.19a3.5,3.5,0,0,1-.24-.3l-.17-.22h0l-.18-.27-.1-.17c-.06-.08-.1-.17-.15-.25a6.26,6.26,0,0,1-.63-1.62,5.87,5.87,0,0,1-.16-1.39,5.81,5.81,0,0,1,.16-1.39,6.26,6.26,0,0,1,.63-1.62c.05-.08.09-.17.15-.25a.16.16,0,0,1,0-.07l.06-.1.18-.27h0l0-.05,0-.06.09-.11.06-.07a1.56,1.56,0,0,1,.16-.2l0,0a2.73,2.73,0,0,1,.23-.25h1.64c-.07.08-.15.16-.22.25l0,0c-.06.06-.11.13-.17.2l-.06.07a.76.76,0,0,1-.08.11l0,.06,0,.05h0l-.18.27h0l-.07.1,0,.07-.14.25a5.93,5.93,0,0,0-.63,1.62,5.81,5.81,0,0,0-.17,1.39,6.31,6.31,0,0,0,.8,3l.14.25.11.17.18.27h0l.16.22.25.3.17.19h0Z"/><path class="cls-33" d="M531.7,386.74v6.86h-17c0-.14-.08-.28-.11-.42a12.76,12.76,0,0,1,0-6c0-.14.07-.28.11-.42Z"/><path class="cls-49" d="M531.7,390.17v3.43h-17c0-.14-.08-.28-.11-.42a12.48,12.48,0,0,1-.36-3Z"/><path class="cls-89" d="M532.27,393.59v1.05H515l0,0h0l0-.09-.15-.48h0l-.11-.41h0l-.09-.41a12.73,12.73,0,0,1-.26-2.6v-.41a12.46,12.46,0,0,1,.35-2.6c0-.14.07-.28.11-.41h0c0-.14.08-.27.13-.4h16.74v.83H515.48a9.11,9.11,0,0,0-.46,2.6c0,.13,0,.27,0,.41a9.73,9.73,0,0,0,.34,2.6c0,.14.09.27.13.41Z"/><path class="cls-95" d="M532.27,385.7v1.46H514.5a11.36,11.36,0,0,1,.47-1.46Z"/><rect class="cls-95" x="517.55" y="385.7" width="14.72" height="1.46"/><path class="cls-95" d="M532.27,393.18v1.46H515v0h0a1.07,1.07,0,0,1-.07-.19c0-.1-.08-.2-.11-.3s0-.14-.08-.22h0a2.76,2.76,0,0,0-.08-.27c0-.06,0-.11,0-.17a1.82,1.82,0,0,1-.07-.25Z"/><path class="cls-95" d="M515.27,393.18a9.87,9.87,0,0,1,0-6c.05-.15.1-.28.16-.42a6.22,6.22,0,0,1,.29-.64,3.85,3.85,0,0,1,.24-.4h-1l-.09.24c0,.1-.08.21-.11.31h0l-.06.17,0,.05h0a2.76,2.76,0,0,1-.08.27c0,.05,0,.11,0,.17a1.82,1.82,0,0,0-.07.25,13.12,13.12,0,0,0,0,6,1.82,1.82,0,0,0,.07.25c0,.06,0,.11,0,.17a2.76,2.76,0,0,1,.08.27h0c0,.08,0,.15.08.22s.07.2.11.3a1.07,1.07,0,0,0,.07.19h0a0,0,0,0,1,0,0v0h1a6,6,0,0,1-.53-1C515.37,393.46,515.32,393.32,515.27,393.18Zm6.84-6.44c-.06-.22-.13-.43-.21-.64l-.15-.4h-1a3.85,3.85,0,0,1,.24.4,6.27,6.27,0,0,1,.3.64l.15.42h.77C522.19,387,522.15,386.88,522.11,386.74Zm-.66,6.44-.15.41h0a6.76,6.76,0,0,1-.54,1h1c.13-.33.25-.67.36-1h0c0-.14.08-.27.11-.41Z"/><path class="cls-95" d="M515.43,393.6c-.06-.14-.11-.28-.16-.42a9.5,9.5,0,0,1-.47-3h-.65a12.49,12.49,0,0,0,.35,3,1.82,1.82,0,0,0,.07.25c0,.06,0,.11,0,.17a2.76,2.76,0,0,1,.08.27h0c0,.08,0,.15.08.22s.07.2.11.3a1.07,1.07,0,0,0,.07.19h0v.05h1A6,6,0,0,1,515.43,393.6Zm6.68-6.86c-.07-.22-.13-.43-.21-.64s-.1-.27-.15-.4h-1a3.85,3.85,0,0,1,.24.4,5.4,5.4,0,0,1,.3.64l.15.42h.77C522.19,387,522.15,386.88,522.11,386.74Zm-.66,6.44-.15.41h0a6.76,6.76,0,0,1-.54,1h1a9.75,9.75,0,0,0,.36-1h0c0-.14.08-.27.11-.41Z"/><path class="cls-15" d="M512.39,394.62v0H494.21v0h0a.64.64,0,0,1-.08-.19c-.05-.1-.09-.2-.13-.3s-.05-.14-.08-.22h0l-.09-.27c0-.06,0-.11,0-.17a1.83,1.83,0,0,1-.08-.25,11.81,11.81,0,0,1,0-6,1.83,1.83,0,0,1,.08-.25c0-.06,0-.12,0-.17l.09-.27h0l0-.05s0,0,0,0h0s0-.1.05-.15h0c0-.1.08-.21.13-.31a2.44,2.44,0,0,1,.1-.24H512.4l-.1.24a2,2,0,0,0-.12.31h0c0,.05,0,.1,0,.15h0s0,0,0,0l0,.05h0l-.09.27c0,.05,0,.11,0,.17s0,.16-.08.25a12.11,12.11,0,0,0,0,6c0,.09.05.17.08.25s0,.11,0,.17l.09.27h0c0,.08.06.15.08.22s.08.2.13.3a1.08,1.08,0,0,0,.08.19h0Z"/><path class="cls-68" d="M515,385.7l-.09.24c0,.1-.08.21-.11.31h0l-.06.17,0,.05h0a2.76,2.76,0,0,1-.08.27c0,.06,0,.11,0,.17a1.82,1.82,0,0,0-.07.25h0a12.49,12.49,0,0,0-.35,3H490.78a13,13,0,0,1,.34-3,1.82,1.82,0,0,1,.07-.25c0-.06,0-.12,0-.17s0-.18.08-.27h0s0,0,0-.06a0,0,0,0,1,0,0c0-.05,0-.1,0-.14s.07-.21.11-.31a2.44,2.44,0,0,1,.1-.24Z"/><polygon class="cls-12" points="74.8 148.99 34.9 148.99 34.9 193.92 74.96 193.92 74.96 148.99 74.8 148.99"/><polygon class="cls-96" points="69.82 187.65 69.82 154.67 41.82 186.2 41.82 187.65 69.82 187.65"/><polygon class="cls-33" points="69.82 153.41 41.82 153.41 41.82 186.2 69.82 154.67 69.82 153.41"/><polygon class="cls-97" points="72.83 151.28 72.83 190.32 38.8 190.32 38.8 189.6 35.78 192.99 75.85 192.99 75.85 148.06 75.69 148.06 72.83 151.28"/><polygon class="cls-98" points="38.8 150.73 72.83 150.73 72.83 151.28 75.69 148.06 35.78 148.06 35.78 192.99 38.8 189.6 38.8 150.73"/><polygon class="cls-98" points="38.8 150.73 38.8 189.6 41.82 186.2 41.82 153.41 69.82 153.41 69.82 154.67 72.83 151.28 72.83 150.73 38.8 150.73"/><polygon class="cls-97" points="69.82 187.65 41.82 187.65 41.82 186.2 38.8 189.6 38.8 190.32 72.83 190.32 72.83 151.28 69.82 154.67 69.82 187.65"/><path class="cls-99" d="M66.13,159.6a.57.57,0,0,1-.6.53H46.47a.56.56,0,0,1-.59-.53h0a.55.55,0,0,1,.59-.52H65.53a.56.56,0,0,1,.6.52Z"/><path class="cls-99" d="M66.13,162.53a.57.57,0,0,1-.6.53H46.47a.56.56,0,0,1-.59-.53h0a.56.56,0,0,1,.59-.53H65.53a.57.57,0,0,1,.6.53Z"/><path class="cls-99" d="M66.13,165.45a.56.56,0,0,1-.6.53H46.47a.56.56,0,0,1-.59-.53h0a.55.55,0,0,1,.59-.52H65.53a.56.56,0,0,1,.6.52Z"/><path class="cls-99" d="M66.13,168.38a.57.57,0,0,1-.6.53H46.47a.56.56,0,0,1-.59-.53h0a.56.56,0,0,1,.59-.53H65.53a.57.57,0,0,1,.6.53Z"/><path class="cls-99" d="M66.13,171.3a.56.56,0,0,1-.6.53H46.47a.56.56,0,0,1-.59-.53h0a.55.55,0,0,1,.59-.52H65.53a.56.56,0,0,1,.6.52Z"/><path class="cls-100" d="M66.77,183.74l-1.93,0-.46,1.79-1.51-2.33-.71-1.08-.88-1.36,1.62-1.14,1.2,1.29.87.92Z"/><path class="cls-101" d="M61.24,180.67l-.84,1.41c-.42.7-.57,1-.65,1.08l-1.42,2.38-.53-1.78-1.92.09,1.77-2c.07-.08-.14.17.85-1l1.08-1.24Z"/><g class="cls-52"><path class="cls-102" d="M65,181.81c-.36.16-1,.1-1.28.3s-.45.88-.82,1.07l-.71-1.08a3.86,3.86,0,0,1-.84.09,3.93,3.93,0,0,1-.92-.11c-.42.7-.57,1-.65,1.08-.35-.2-.46-.84-.8-1s-.94-.14-1.3-.31c.07-.08-.14.17.85-1a2.74,2.74,0,0,1-.54-1.62,3.38,3.38,0,0,1,6.72,0,2.74,2.74,0,0,1-.58,1.68Z"/><path class="cls-102" d="M64.68,179.21a2.74,2.74,0,0,1-.58,1.68,3.33,3.33,0,0,1-1.94,1.21,3.86,3.86,0,0,1-.84.09,3.93,3.93,0,0,1-.92-.11,3.37,3.37,0,0,1-1.9-1.25,2.74,2.74,0,0,1-.54-1.62,3.38,3.38,0,0,1,6.72,0Z"/><path class="cls-103" d="M61.32,182.3a3.81,3.81,0,0,1-1-.12,3.45,3.45,0,0,1-2-1.29,2.87,2.87,0,0,1-.56-1.68,3.51,3.51,0,0,1,7,0,2.89,2.89,0,0,1-.6,1.74,3.53,3.53,0,0,1-2,1.25A4.14,4.14,0,0,1,61.32,182.3Zm0-6a3.07,3.07,0,0,0-3.24,2.87,2.61,2.61,0,0,0,.52,1.56A3.24,3.24,0,0,0,60.43,182a3.75,3.75,0,0,0,1.7,0A3.31,3.31,0,0,0,64,180.83a2.69,2.69,0,0,0,.55-1.62A3.07,3.07,0,0,0,61.32,176.34Z"/></g><path class="cls-104" d="M65.69,179.21c0,.39-.71.67-.83,1s.24,1,0,1.26-1,.17-1.34.39-.43.9-.84,1-.91-.38-1.35-.38-1,.5-1.35.38-.49-.79-.83-1-1.1-.09-1.35-.39.13-.9,0-1.26-.83-.63-.83-1,.7-.67.83-1-.24-.95,0-1.25,1-.17,1.35-.39.42-.9.83-1,.92.39,1.35.39,1-.5,1.35-.39.5.8.84,1,1.09.08,1.34.39-.12.89,0,1.25S65.69,178.83,65.69,179.21Z"/><path class="cls-103" d="M61.32,182.06a2.87,2.87,0,1,1,3.21-2.85A3,3,0,0,1,61.32,182.06Zm0-5.5a2.67,2.67,0,1,0,3,2.65A2.84,2.84,0,0,0,61.32,176.56Z"/><rect class="cls-12" x="599.55" y="151.7" width="66.22" height="40.07"/><rect class="cls-33" x="602.35" y="152.39" width="62.71" height="36.97"/><path class="cls-39" d="M600.61,150.84v40.08h66.22V150.84Zm3.5,37V154h59.21v33.86Z"/><path class="cls-99" d="M655.26,161.53c0,.3-.59.54-1.31.54H611.9c-.72,0-1.31-.24-1.31-.54h0c0-.31.59-.55,1.31-.55H654c.72,0,1.31.24,1.31.55Z"/><path class="cls-99" d="M655.26,164.56c0,.3-.59.54-1.31.54H611.9c-.72,0-1.31-.24-1.31-.54h0c0-.31.59-.55,1.31-.55H654c.72,0,1.31.24,1.31.55Z"/><path class="cls-99" d="M655.26,167.58c0,.31-.59.55-1.31.55H611.9c-.72,0-1.31-.24-1.31-.55h0c0-.3.59-.54,1.31-.54H654c.72,0,1.31.24,1.31.54Z"/><path class="cls-99" d="M655.26,170.61c0,.31-.59.55-1.31.55H611.9c-.72,0-1.31-.24-1.31-.55h0c0-.3.59-.54,1.31-.54H654c.72,0,1.31.24,1.31.54Z"/><path class="cls-99" d="M655.26,173.64c0,.31-.59.55-1.31.55H611.9c-.72,0-1.31-.24-1.31-.55h0c0-.3.59-.54,1.31-.54H654c.72,0,1.31.24,1.31.54Z"/><path class="cls-100" d="M655.46,184.37l-2,0-.48,1.86-1.57-2.42-.73-1.11-.92-1.42,1.68-1.17,1.25,1.33c1.12,1.21.67.71.89,1Z"/><path class="cls-101" d="M649.74,181.2c-.38.62-.66,1.1-.87,1.46-.44.72-.6,1-.67,1.12s.06-.11-1.48,2.46l-.55-1.84-2,.08,1.84-2.11.87-1,1.12-1.28Z"/><g class="cls-52"><path class="cls-102" d="M653.59,182.38c-.37.17-1,.1-1.32.3s-.46.92-.85,1.11l-.73-1.11a4.14,4.14,0,0,1-.87.09,4.19,4.19,0,0,1-1-.11c-.44.72-.6,1-.67,1.12-.37-.22-.49-.87-.84-1.1s-1-.13-1.34-.31l.87-1a2.81,2.81,0,0,1-.55-1.67,3.5,3.5,0,0,1,7,0,2.81,2.81,0,0,1-.6,1.73C653.82,182.63,653.37,182.13,653.59,182.38Z"/><path class="cls-102" d="M653.3,179.69a2.81,2.81,0,0,1-.6,1.73,3.58,3.58,0,0,1-2,1.26,4.14,4.14,0,0,1-.87.09,4.19,4.19,0,0,1-1-.11,3.53,3.53,0,0,1-2-1.3,2.81,2.81,0,0,1-.55-1.67,3.5,3.5,0,0,1,7,0Z"/><path class="cls-103" d="M649.82,176.5a3.42,3.42,0,0,0-3.6,3.19,2.88,2.88,0,0,0,.58,1.73l0,0a3.62,3.62,0,0,0,2,1.31h0a4.19,4.19,0,0,0,1,.12,3.82,3.82,0,0,0,.9-.1h0a3.52,3.52,0,0,0,2-1.27l0,0a2.9,2.9,0,0,0,.62-1.79A3.41,3.41,0,0,0,649.82,176.5Zm2.78,4.86a3.38,3.38,0,0,1-1.94,1.21h0a3.71,3.71,0,0,1-1.69,0h0a3.34,3.34,0,0,1-1.9-1.24l0,0a2.72,2.72,0,0,1-.52-1.58,3.38,3.38,0,0,1,6.72,0,2.67,2.67,0,0,1-.56,1.64Z"/></g><path class="cls-104" d="M654.34,179.69c0,.4-.73.69-.86,1.05s.25,1,0,1.3-1,.18-1.39.41-.44.93-.86,1.05-1-.4-1.4-.4-1,.52-1.4.4-.51-.82-.86-1.05-1.14-.09-1.4-.41.13-.92,0-1.3-.86-.65-.86-1.05.73-.7.86-1.06-.25-1,0-1.3,1-.17,1.4-.4.44-.93.86-1.05,1,.39,1.4.39,1-.51,1.4-.39.51.82.86,1.05,1.14.09,1.39.4-.13.93,0,1.3S654.34,179.29,654.34,179.69Z"/><path class="cls-103" d="M649.82,176.75a3.15,3.15,0,0,0-3.32,2.94,2.59,2.59,0,0,0,.51,1.55,3.3,3.3,0,0,0,1.94,1.29,4.14,4.14,0,0,0,.87.1,4,4,0,0,0,.78-.08,3.31,3.31,0,0,0,2-1.25,2.66,2.66,0,0,0,.55-1.61A3.15,3.15,0,0,0,649.82,176.75Zm2.62,4.39a3.05,3.05,0,0,1-2,1.22,2.93,2.93,0,0,1-.67.07,3.16,3.16,0,0,1-.76-.09,3.06,3.06,0,0,1-1.91-1.27,2.44,2.44,0,0,1-.42-1.38,3.12,3.12,0,0,1,6.19,0A2.4,2.4,0,0,1,652.44,181.14Z"/><polygon class="cls-68" points="666.7 150.84 665.28 151.7 664.13 152.4 661.56 153.95 649.94 160.98 648.14 162.07 644.93 164.01 643.13 165.1 639.92 167.04 638.12 168.13 634.91 170.07 633.11 171.16 629.91 173.1 628.1 174.19 605.59 187.81 603.02 189.37 600.61 190.83 600.61 150.84 666.7 150.84"/><polygon class="cls-68" points="666.83 150.84 666.83 150.9 665.5 151.7 664.34 152.4 661.77 153.95 650.14 160.98 648.33 162.07 645.12 164.01 643.31 165.1 640.1 167.04 638.3 168.13 635.09 170.07 633.28 171.16 630.07 173.1 628.26 174.19 605.71 187.81 603.13 189.37 600.61 190.89 599.55 191.53 599.55 151.7 600.61 151.7 600.61 150.84 666.83 150.84"/><rect class="cls-12" x="35.16" y="207.96" width="38.91" height="44.54"/><rect class="cls-105" x="36.13" y="207.11" width="38.91" height="44.53"/><path class="cls-101" d="M71.88,242.31c0,.64-1.15,1.1-1.36,1.68s.39,1.56,0,2.06-1.65.28-2.21.64-.71,1.48-1.38,1.67-1.5-.63-2.21-.63-1.57.82-2.22.63-.82-1.31-1.37-1.67-1.81-.14-2.22-.64.21-1.47,0-2.06-1.36-1-1.36-1.68,1.15-1.1,1.36-1.67-.4-1.57,0-2.07,1.65-.28,2.22-.64.7-1.48,1.37-1.67,1.5.63,2.22.63,1.57-.81,2.21-.63.82,1.31,1.38,1.67,1.8.14,2.21.64-.21,1.47,0,2.07S71.88,241.68,71.88,242.31Z"/><path class="cls-103" d="M64.71,247c-2.91,0-5.27-2.09-5.27-4.67s2.36-4.67,5.27-4.67,5.26,2.1,5.26,4.67S67.61,247,64.71,247Zm0-9a4.39,4.39,0,1,0,4.91,4.36A4.68,4.68,0,0,0,64.71,238Z"/><path class="cls-40" d="M66.18,213.08c0,.48-.27.87-.59.87H46.66c-.32,0-.59-.39-.59-.87h0c0-.48.27-.87.59-.87H65.59c.32,0,.59.39.59.87Z"/><path class="cls-40" d="M66.18,217.89c0,.47-.27.86-.59.86H46.66c-.32,0-.59-.39-.59-.86h0c0-.48.27-.87.59-.87H65.59c.32,0,.59.39.59.87Z"/><path class="cls-40" d="M72.77,222.69a.93.93,0,0,1-1,.87H40.46a.93.93,0,0,1-1-.87h0a.93.93,0,0,1,1-.87H71.79a.93.93,0,0,1,1,.87Z"/><path class="cls-40" d="M72.77,227.5a.93.93,0,0,1-1,.87H40.46a.93.93,0,0,1-1-.87h0a.93.93,0,0,1,1-.87H71.79a.93.93,0,0,1,1,.87Z"/><path class="cls-40" d="M72.77,232.31a.93.93,0,0,1-1,.87H40.46a.93.93,0,0,1-1-.87h0a.93.93,0,0,1,1-.87H71.79a.93.93,0,0,1,1,.87Z"/><polygon class="cls-68" points="75.04 207.11 75.04 207.63 36.13 251.38 36.13 207.11 75.04 207.11"/><rect class="cls-12" x="615.29" y="207.24" width="39.2" height="44.87"/><rect class="cls-15" x="616.26" y="206.38" width="39.2" height="44.87"/><path class="cls-106" d="M653.17,212.4a.93.93,0,0,1-1,.87H620.62a.93.93,0,0,1-1-.87h0a.93.93,0,0,1,1-.88h31.57a.93.93,0,0,1,1,.88Z"/><path class="cls-106" d="M653.17,217.24a.94.94,0,0,1-1,.88H620.62a.94.94,0,0,1-1-.88h0a.93.93,0,0,1,1-.87h31.57a.93.93,0,0,1,1,.87Z"/><path class="cls-106" d="M653.17,222.09a.93.93,0,0,1-1,.87H620.62a.93.93,0,0,1-1-.87h0a.93.93,0,0,1,1-.88h31.57a.93.93,0,0,1,1,.88Z"/><path class="cls-106" d="M653.17,226.93a.93.93,0,0,1-1,.87H620.62a.93.93,0,0,1-1-.87h0a.93.93,0,0,1,1-.87h31.57a.93.93,0,0,1,1,.87Z"/><path class="cls-106" d="M653.17,231.77a.93.93,0,0,1-1,.88H620.62a.93.93,0,0,1-1-.88h0a.93.93,0,0,1,1-.87h31.57a.93.93,0,0,1,1,.87Z"/><path class="cls-104" d="M652.27,241.85c0,.64-1.15,1.11-1.36,1.69s.4,1.58,0,2.08-1.66.28-2.23.65-.71,1.48-1.39,1.68-1.51-.64-2.23-.64-1.58.82-2.23.64-.83-1.32-1.39-1.68-1.81-.15-2.23-.65.22-1.48,0-2.08-1.36-1-1.36-1.69,1.15-1.11,1.36-1.69-.39-1.58,0-2.08,1.67-.28,2.23-.65.71-1.48,1.39-1.67,1.51.63,2.23.63,1.58-.82,2.23-.63.83,1.31,1.39,1.67,1.81.15,2.23.65-.21,1.49,0,2.08S652.27,241.21,652.27,241.85Z"/><path class="cls-103" d="M645.05,246.56c-2.93,0-5.31-2.11-5.31-4.71s2.38-4.71,5.31-4.71,5.31,2.12,5.31,4.71S648,246.56,645.05,246.56Zm0-9.1a4.42,4.42,0,1,0,5,4.39A4.7,4.7,0,0,0,645.05,237.46Z"/><polygon class="cls-68" points="655.46 206.38 655.46 207.42 616.47 251.25 616.26 251.25 616.26 206.38 655.46 206.38"/><path class="cls-68" d="M740,394.68v2.85H-44.32v-.85a2,2,0,0,1,2-2Z"/><path class="cls-12" d="M740,408.85v2.81H-39.32a5,5,0,0,1-4.49-2.81Z"/></g></g></g></svg>