<svg xmlns="http://www.w3.org/2000/svg" xmlns:xlink="http://www.w3.org/1999/xlink" viewBox="0 0 578.95 611.35"><defs><style>.cls-1,.cls-10,.cls-11{fill:#ff3346;}.cls-2{fill:#ff98b0;}.cls-3{fill:#281db7;}.cls-13,.cls-4,.cls-9{fill:#fff;}.cls-5{fill:#3736e7;}.cls-6{fill:url(#Áåçûìÿííûé_ãðàäèåíò_25);}.cls-7{fill:url(#Áåçûìÿííûé_ãðàäèåíò_25-2);}.cls-12,.cls-8{fill:#f4e1ff;}.cls-9{opacity:0.8;}.cls-10{opacity:0.2;}.cls-11,.cls-12{opacity:0;}.cls-13{opacity:0.6;}.cls-14{fill:#4a4af5;}.cls-15{fill:#b9d2ff;}.cls-16{fill:#23263d;}.cls-17{fill:url(#Áåçûìÿííûé_ãðàäèåíò_24);}.cls-18{fill:#ed2338;}.cls-19{fill:#ff293c;}.cls-20{fill:#ff260e;}</style><linearGradient id="Áåçûìÿííûé_ãðàäèåíò_25" x1="139.32" y1="643.51" x2="134.38" y2="412.5" gradientUnits="userSpaceOnUse"><stop offset="0" stop-color="#281db7"/><stop offset="0.14" stop-color="#2c21b8"/><stop offset="0.28" stop-color="#392dbd"/><stop offset="0.42" stop-color="#4d41c4"/><stop offset="0.56" stop-color="#6a5dce"/><stop offset="0.71" stop-color="#9081dc"/><stop offset="0.85" stop-color="#beadec"/><stop offset="1" stop-color="#f3e0ff"/><stop offset="1" stop-color="#f4e1ff"/></linearGradient><linearGradient id="Áåçûìÿííûé_ãðàäèåíò_25-2" x1="91.98" y1="699.39" x2="85.86" y2="413.37" xlink:href="#Áåçûìÿííûé_ãðàäèåíò_25"/><linearGradient id="Áåçûìÿííûé_ãðàäèåíò_24" x1="373.71" y1="580.6" x2="303.66" y2="463.54" gradientUnits="userSpaceOnUse"><stop offset="0" stop-color="#281db7"/><stop offset="0.24" stop-color="#5c4fc9"/><stop offset="0.77" stop-color="#c9b7f0"/><stop offset="1" stop-color="#f4e1ff"/></linearGradient></defs><title>addrole</title><g id="Layer_2" data-name="Layer 2"><g id="Ñëîé_1" data-name="Ñëîé 1"><path class="cls-1" d="M263,594.65c8.37.86,26.48,7.19,26.48,7.19,6,1.92,3.88,7.82-2.83,7.92l-25.53.36c-1.22,0-2.16-.69-1.95-1.48l3.54-13.55A1,1,0,0,1,263,594.65Z"/><path class="cls-2" d="M261.64,198.71l-11,.12a2.6,2.6,0,0,1-2.74-2.47l.12-25.74a2.69,2.69,0,0,1,2.77-2.52l11-.11a2.59,2.59,0,0,1,2.74,2.46l-.12,25.74A2.69,2.69,0,0,1,261.64,198.71Z"/><path class="cls-2" d="M268.14,162.54c2,0,3.63,1.86,3.62,4.21S270.11,171,268.1,171s-3.63-1.86-3.63-4.2A4.06,4.06,0,0,1,268.14,162.54Z"/><path class="cls-2" d="M244,161c2,0,3.63,1.86,3.62,4.2s-1.64,4.26-3.66,4.28-3.63-1.86-3.62-4.2S242,161,244,161Z"/><path class="cls-2" d="M249.11,148.27a14.78,14.78,0,0,0-4.59,10.79l-.05,11.07c0,7.57,5.26,13.7,11.76,13.63s11.84-6.31,11.87-13.88l0-10.7Z"/><path class="cls-3" d="M272,149.37l-.12,8.48c-.18,12.62-7.4,22.71-16,22.4s-15.57-10.87-15.39-23.5l.12-8.48a1.15,1.15,0,0,0,0-.19c9.14-5.6,19.78-6.79,30.54-6.63A32.22,32.22,0,0,1,272,149.37Z"/><path class="cls-4" d="M241.2,198.37a4.78,4.78,0,0,1,4.69-4h18.78a4.79,4.79,0,0,1,4.7,4Z"/><path class="cls-1" d="M167.26,596.77c-7.89.81-25,6.77-25,6.77-5.64,1.82-3.66,7.38,2.67,7.46l24.06.35c1.15,0,2-.66,1.84-1.4l-3.34-12.76A1,1,0,0,0,167.26,596.77Z"/><path class="cls-1" d="M97.74,595.47c-8.6.88-27.19,7.38-27.19,7.38-6.14,2-4,8,2.91,8.12l26.2.38c1.26,0,2.22-.71,2-1.52L98,595.92A1.19,1.19,0,0,0,97.74,595.47Z"/><path class="cls-1" d="M44.12,539.73A17.19,17.19,0,1,1,61.3,522.55,17.2,17.2,0,0,1,44.12,539.73Zm0-30.57a13.39,13.39,0,1,0,13.39,13.39A13.4,13.4,0,0,0,44.12,509.16Z"/><rect class="cls-1" y="525.11" width="89.58" height="64.46" rx="3.98"/><path class="cls-3" d="M430.27,475.64h61.79a4.52,4.52,0,0,1,4.35,4.68V605.39a4.52,4.52,0,0,1-4.35,4.68H430.27a4.52,4.52,0,0,1-4.36-4.68V480.32A4.52,4.52,0,0,1,430.27,475.64Z"/><rect class="cls-5" x="405.7" y="475.64" width="70.5" height="134.44" rx="4.94"/><path class="cls-3" d="M441.49,510.1a2.43,2.43,0,0,0,2.34-2.5V488.5a2.34,2.34,0,1,0-4.67,0v19.1A2.42,2.42,0,0,0,441.49,510.1Z"/><path class="cls-3" d="M435,510.1a2.43,2.43,0,0,0,2.34-2.5V488.5a2.34,2.34,0,1,0-4.67,0v19.1A2.42,2.42,0,0,0,435,510.1Z"/><path class="cls-3" d="M428.25,510.1a2.42,2.42,0,0,0,2.33-2.5V488.5a2.34,2.34,0,1,0-4.67,0v19.1A2.43,2.43,0,0,0,428.25,510.1Z"/><path class="cls-3" d="M421.66,510.1a2.43,2.43,0,0,0,2.34-2.5V488.5a2.34,2.34,0,1,0-4.67,0v19.1A2.42,2.42,0,0,0,421.66,510.1Z"/><path class="cls-3" d="M414.92,510.1a2.43,2.43,0,0,0,2.34-2.5V488.5a2.34,2.34,0,1,0-4.67,0v19.1A2.42,2.42,0,0,0,414.92,510.1Z"/><rect class="cls-3" x="412.59" y="569.32" width="56.39" height="11.5" rx="1.61"/><rect class="cls-3" x="412.76" y="583.93" width="56.39" height="11.5" rx="1.39"/><rect class="cls-5" x="417.66" y="571.51" width="18.73" height="6.82" rx="1"/><rect class="cls-5" x="446.5" y="586.27" width="18.73" height="6.82" rx="1"/><rect class="cls-5" x="425.5" y="586.27" width="18.73" height="6.82" rx="1"/><polygon class="cls-5" points="184.87 609.68 184.87 429.7 176.03 429.7 176.02 609.68 184.87 609.68"/><polygon class="cls-3" points="462.36 609.68 462.36 429.7 453.52 429.7 453.51 609.68 462.36 609.68"/><path class="cls-6" d="M161.16,603.5c4.9-.11,8.47-5.34,7.38-10.81-6.29-31.47-23-120.06-27-191.13q0-.46-.06-.9l-.27-7-37.79-3.39,3,20.11c0,.3.06.59.11.89,4.62,29,13,68.79,23.08,109.22,4.72,19,14.63,54,21,76.18,1.2,4.2,4.67,7,8.53,6.92Z"/><path class="cls-7" d="M92.11,606.32a9.74,9.74,0,0,0,9.76-10.26c-1.18-22-2.63-64.58-2.92-78.82-.81-39.84,1.06-82.6,4.89-111.58,0-.31.06-.6.08-.9l1.25-15.15L65.5,387.34l1.19,17.1c0,.3,0,.59,0,.9.09,29.33,2.3,70.22,6.09,112.17.72,8,7.05,58.22,9.72,80.25a9.74,9.74,0,0,0,9.65,8.56Z"/><path class="cls-8" d="M320.43,483.12l-33.09-7.89c0,.12.09.25.14.37-1.3,17.23-20.74,65.08-27.35,108.52a21.9,21.9,0,0,0,.57,9.61,14.25,14.25,0,0,0,9.84,6.31,10.64,10.64,0,0,0,12.12-7.12c1.49-4.51,3.2-9.9,4.2-13.1C303.59,526.17,316.09,500.92,320.43,483.12Z"/><path class="cls-5" d="M412.09,428.07v-16.6a2.2,2.2,0,0,1,2.22-2.17H137.5a2.2,2.2,0,0,0-2.22,2.17v16.6a2.2,2.2,0,0,0,2.22,2.16H414.31A2.2,2.2,0,0,1,412.09,428.07Z"/><path class="cls-3" d="M495.92,409.3H414.31a2.2,2.2,0,0,0-2.22,2.17v16.6a2.2,2.2,0,0,0,2.22,2.16h81.61a2.19,2.19,0,0,0,2.21-2.16v-16.6A2.2,2.2,0,0,0,495.92,409.3Z"/><path class="cls-8" d="M330.46,138l-40.57-37.87a4,4,0,0,0-6.18.81L273.2,117.6a6.33,6.33,0,0,1-9,1.76l-9.09-6.56a5.17,5.17,0,0,0-6.74.62l-17.67,18.52a9.33,9.33,0,0,1-11.59,1.49L179.46,109l1.4-2.26,39.61,24.47a6.66,6.66,0,0,0,8.27-1.06l17.67-18.52a7.84,7.84,0,0,1,10.21-.94l9.09,6.55a3.66,3.66,0,0,0,5.25-1l10.5-16.68a6.7,6.7,0,0,1,10.24-1.32L332.27,136Z"/><rect class="cls-5" x="324.29" y="501.87" width="12.16" height="107.7"/><rect class="cls-5" x="237.65" y="502.1" width="12.16" height="107.7"/><rect class="cls-4" x="376.37" y="215.14" width="9.74" height="9.74"/><rect class="cls-4" x="396.04" y="215.14" width="9.74" height="9.74"/><rect class="cls-4" x="415.71" y="215.14" width="9.74" height="9.74"/><rect class="cls-9" x="435.39" y="215.14" width="9.74" height="9.74"/><rect class="cls-10" x="455.06" y="215.14" width="9.74" height="9.74"/><rect class="cls-11" x="474.73" y="215.14" width="9.74" height="9.74"/><rect class="cls-4" x="376.37" y="230.07" width="9.74" height="9.74"/><rect class="cls-1" x="396.04" y="230.07" width="9.74" height="9.74"/><rect class="cls-9" x="415.71" y="230.07" width="9.74" height="9.74"/><rect class="cls-9" x="435.39" y="230.07" width="9.74" height="9.74"/><rect class="cls-10" x="455.06" y="230.07" width="9.74" height="9.74"/><rect class="cls-11" x="474.73" y="230.07" width="9.74" height="9.74"/><rect class="cls-4" x="376.37" y="245.28" width="9.74" height="9.74"/><rect class="cls-9" x="396.04" y="245.28" width="9.74" height="9.74"/><rect class="cls-9" x="415.71" y="245.28" width="9.74" height="9.74"/><rect class="cls-9" x="435.39" y="245.28" width="9.74" height="9.74"/><rect class="cls-9" x="455.06" y="245.28" width="9.74" height="9.74"/><rect class="cls-12" x="474.73" y="245.28" width="9.74" height="9.74"/><rect class="cls-13" x="376.37" y="259.42" width="9.74" height="9.74"/><rect class="cls-1" x="396.04" y="259.42" width="9.74" height="9.74"/><rect class="cls-1" x="415.71" y="259.42" width="9.74" height="9.74"/><rect class="cls-9" x="435.39" y="259.42" width="9.74" height="9.74"/><rect class="cls-9" x="455.06" y="259.42" width="9.74" height="9.74"/><rect class="cls-11" x="474.73" y="259.42" width="9.74" height="9.74"/><path class="cls-14" d="M253.81,366.1l-19.42-.54-4.93-.14c-2.39-.06-5-.23-7.14-2.17a16.07,16.07,0,0,1-4.23-7.67c-.8-3.05-.7-2.07-1.48-5.19-.59-9-1.66-22.3-2.57-31.27-.23-2.48-.51-5-.84-7.48-1.77-14.42-5.29-35.79-10.47-52.68a114.22,114.22,0,0,1-4.89-31.15c0-.1,0-.2,0-.3-.33-15.62,10.47-23.57,24.85-27.19,1-.25,2-.47,3-.68,8.83-1.81,18.74-2.16,28.15-1.75,9.41-.41,19.32-.06,28.16,1.75,1,.21,2,.43,3,.68,14.37,3.62,25.17,11.57,24.84,27.19v.3A114.22,114.22,0,0,1,304.9,259c-5.19,16.89-8.7,38.26-10.47,52.68-.34,2.5-.61,5-.84,7.48-.91,9-2,22.3-2.57,31.27-.78,3.12-.68,2.14-1.49,5.19a16.06,16.06,0,0,1-4.22,7.67c-2.11,1.94-4.75,2.11-7.15,2.17l-4.92.14Z"/><path class="cls-14" d="M198.73,217.92c-6,21-13.3,41.61-19.27,62.56-.74,2.6-1.64,5.21-2.24,7.86-.68,3-.12,5.9.18,8.93,1.26,12.61,8.77,57.7,9.76,67.64.59,5.94,1.63,11,8,11,5.52,0,11.65-5.07,11.06-11-2.14-21.43-2.87-72.49-2.87-72.49s18.68-50.89,21.44-60.57C228.72,218.14,202.63,204.24,198.73,217.92Z"/><path class="cls-15" d="M433.66,175.55l-32.57,0a1.88,1.88,0,1,1,0-3.71l32.57,0a1.88,1.88,0,1,1,0,3.71Z"/><path class="cls-15" d="M453.61,175.57H442.86a1.88,1.88,0,1,1,0-3.71h10.75a1.88,1.88,0,1,1,0,3.71Z"/><path class="cls-15" d="M421,182.31l32.57,0a1.88,1.88,0,1,0,0-3.71l-32.56,0a1.88,1.88,0,1,0,0,3.71Z"/><path class="cls-15" d="M401.08,189.17l32.57,0a1.88,1.88,0,1,0,0-3.71l-32.57,0a1.88,1.88,0,1,0,0,3.71Z"/><path class="cls-15" d="M401.09,182.29h10.74a1.88,1.88,0,1,0,0-3.71H401.09a1.88,1.88,0,1,0,0,3.71Z"/><path class="cls-15" d="M354.06,41.62a13.74,13.74,0,0,0-1.34-6.81A9.92,9.92,0,0,0,347.15,30c-.65-2.31-3.06-4-5.29-4.8a30.58,30.58,0,0,0-6-1.56,9.39,9.39,0,0,0-4.39-3.7,9.93,9.93,0,0,0-5.86-.62,8.64,8.64,0,0,0-8.23-2.19,15,15,0,0,0-16.07,1.51,7.5,7.5,0,0,0-4.28.32A7.07,7.07,0,0,0,294,21.15a17.44,17.44,0,0,0-15.05,7.09,10.16,10.16,0,0,0-2,5.94,9.75,9.75,0,0,0-4.28,4.76,9,9,0,0,0-.46,6c-3.55,3.56-3.38,9.29-1.31,13.11,2.18,4,5.82,6.38,9.35,8.67l.28.18,1.48,1,4,2.6-.36-2.73c0-.26-.06-.49-.08-.71a15.21,15.21,0,0,1-2.33-1.36,2.09,2.09,0,0,1-.22-.2l-1.09-.71-.28-.18c-3.26-2.12-6.63-4.3-8.5-7.75-1.71-3.15-1.82-7.92,1.35-10.54l.72-.59-.35-.87a6.35,6.35,0,0,1,.15-4.87,7.12,7.12,0,0,1,3.78-3.81l.94-.39-.18-1a7.15,7.15,0,0,1,1.5-5,15.09,15.09,0,0,1,12.12-6c.32,0,.63,0,.95,0A6.11,6.11,0,0,1,301,21.25a1.3,1.3,0,0,0-.1-.15l.34.1.73.27.57-.53a12.44,12.44,0,0,1,11.35-2.51,1.52,1.52,0,0,1,.42,0c1.06.25,2.25.41,3.35.72l.27.08.24.08c.13,0,.26.07.38.12a6,6,0,0,1,5.66,2l.54.7.85-.26a7.22,7.22,0,0,1,4.93.33,6.58,6.58,0,0,1,3.42,3.08l.3.61.68.09A27.94,27.94,0,0,1,341,27.54c1.82.67,3.71,2,3.81,3.51l.06.95.93.21A7.21,7.21,0,0,1,350.46,36a11.67,11.67,0,0,1,1,6.16l-.05.72.59.41a7.66,7.66,0,0,1,2.69,8.35,11,11,0,0,1-2.38,4.14,15.62,15.62,0,0,1-3.66,4.9,13.22,13.22,0,0,1-1.28,2.13c-1.85,2.46-4.71,4.15-8.95,5.32a18.36,18.36,0,0,1-.8,2.11C336.5,74,334.2,77.49,330,78.06a11.68,11.68,0,0,1-6-.2,15.54,15.54,0,0,1-4.86-2.56,4.55,4.55,0,0,1-2.38-1.74c-.2.18-.41.37-.65.56l-1.17.94,1.12,1a19,19,0,0,0,7.21,4.24,14.87,14.87,0,0,0,4.17.61,13.15,13.15,0,0,0,4.74-.86,10.9,10.9,0,0,0,6.4-6.37,13.38,13.38,0,0,0,.7-3.16c4.72-1.33,7.95-3.31,10.13-6.21a21.43,21.43,0,0,0,2.53-4.7,14.77,14.77,0,0,0,5.2-7.3A10.28,10.28,0,0,0,354.06,41.62Z"/><path class="cls-15" d="M314.75,72.73a4.07,4.07,0,0,1-.48.33c-1.82.15-3.5.22-5.16.22a51.56,51.56,0,0,1-16.53-2.57,25.08,25.08,0,0,1-3.14-1.32L285,67.32a11.17,11.17,0,0,0,.43,2.35l.14.48.43.25a30.88,30.88,0,0,0,5.8,2.72,54.08,54.08,0,0,0,17.35,2.7c1.82,0,3.67-.08,5.67-.25l.28,0,.25-.14a11.09,11.09,0,0,0,1-.65,3.11,3.11,0,0,0,.28-.23l-.74-1,.81,1c.15-.12.29-.27.44-.41l-2.31-1.34Z"/><path class="cls-15" d="M318.18,73.93l.26-.31a10.42,10.42,0,0,0,.9-12.06,12.39,12.39,0,0,0,6.09-2.94.59.59,0,0,0,.19,0,8.28,8.28,0,0,1,9.11,6.47,8.16,8.16,0,0,1,.07,3.26,8.21,8.21,0,0,1-5.61,6.44,1,1,0,0,0-.63,1.11,1,1,0,0,0,.46.62.91.91,0,0,0,.48.13.71.71,0,0,0,.29,0,10.16,10.16,0,0,0,6.59-6.7,8.82,8.82,0,0,0,.35-1.54,10.22,10.22,0,0,0-9.54-11.69A12.38,12.38,0,0,0,329,53.06a12.56,12.56,0,0,0,5.27,2.06.84.84,0,0,0,.07.26A9,9,0,0,0,351.52,50a1,1,0,0,0-2,.4,7,7,0,0,1-13,4.86,12.44,12.44,0,0,0,8.93-20.62A1,1,0,0,0,344,35.9a10.5,10.5,0,0,1-14.32,15.22.69.69,0,0,0-.19-.1,12.5,12.5,0,0,0-2.15-8.91l.3,0a9,9,0,0,0,7.41-9.6,1,1,0,0,0-.39-.72,1,1,0,0,0-1.63.86A7,7,0,0,1,320,36.68a8.11,8.11,0,0,0,1.46.14,8.27,8.27,0,0,0,6.67-3.38.94.94,0,0,0,.17-.76,1,1,0,0,0-.45-.63.94.94,0,0,0-1.24.25,6.4,6.4,0,0,1-10.94-6.52.85.85,0,0,0,.08-.35,7.12,7.12,0,0,0,1.52-6.07.86.86,0,0,0-1.1-.65.86.86,0,0,0-.59,1A5.43,5.43,0,0,1,305.23,23a.86.86,0,0,0-1.05-.48.89.89,0,0,0-.52.47.85.85,0,0,0,0,.7,7.08,7.08,0,0,0,9.54,3.69,8.32,8.32,0,0,0,1.14,5.52,9,9,0,0,0-6.89,7.77,1,1,0,0,0-.38,0,12.46,12.46,0,0,0-11.2,12.05,10.49,10.49,0,0,1-.17-20.84c.11.25.24.5.37.74a8.29,8.29,0,0,0,7.25,4.27,8.41,8.41,0,0,0,3.34-.7,1,1,0,0,0,.45-1.35,1,1,0,0,0-1.21-.41,6.41,6.41,0,0,1-6.23-11.13,1,1,0,0,0-1.1-1.56,8.26,8.26,0,0,0-3.43,8.24,12.45,12.45,0,0,0-1.51,24.3A12.45,12.45,0,0,0,287,58.42a8.36,8.36,0,0,1-2.54-.75,8.45,8.45,0,0,1-4.24-10.59,1.15,1.15,0,0,0-.58-1.42,1.15,1.15,0,0,0-1.58.64,10.74,10.74,0,0,0,5.39,13.43,10.18,10.18,0,0,0,2.17.76,12.47,12.47,0,0,0-1.42,5.77,12.2,12.2,0,0,0,.12,1.61c.75.49,1.52,1,2.29,1.43a10.5,10.5,0,0,1,9-13.49,1,1,0,0,0,.49-.22,12.47,12.47,0,0,0,10.94,9.78,1,1,0,0,0,1.08-1,1,1,0,0,0-.87-1,10.5,10.5,0,0,1,0-20.9l.15,0a9,9,0,0,0,8.1,8.13h.1a1,1,0,0,0,.68-.27,1,1,0,0,0,.33-.75,1,1,0,0,0-.9-1,7,7,0,0,1,0-14l.08,0a8.73,8.73,0,0,0,1.36,1l.21.12a9,9,0,0,0,7.48,6.38c.1.1.14.18.21.26a10.5,10.5,0,0,1-14.33,15.22,1,1,0,0,0-1.29.11,1,1,0,0,0,.11,1.45,12.36,12.36,0,0,0,7.57,2.57,8.51,8.51,0,0,1-.55,11,8.06,8.06,0,0,1-.75.69l-.31.25a8.4,8.4,0,0,1-.85.57l1.28-.12.08.08c.3.29.59.58.9.84a12.17,12.17,0,0,0,1.07-1Z"/><path class="cls-15" d="M201.42,9.9a.57.57,0,0,1-.59-.56V.56a.56.56,0,0,1,.56-.56.57.57,0,0,1,.59.56V9.34A.56.56,0,0,1,201.42,9.9Z"/><path class="cls-15" d="M184.52,10a.56.56,0,0,1-.79-.19l-2-3.52a.56.56,0,0,1,.21-.76.57.57,0,0,1,.79.18l2,3.53A.55.55,0,0,1,184.52,10Z"/><path class="cls-15" d="M175.92,24.73a.57.57,0,0,1-.78.24L168,20.84a.56.56,0,0,1-.21-.76.57.57,0,0,1,.78-.24L175.72,24A.56.56,0,0,1,175.92,24.73Z"/><path class="cls-15" d="M228.81,23a.56.56,0,0,1,.18-.79l5.82-3.36a.55.55,0,0,1,.76.2.57.57,0,0,1-.18.79l-5.82,3.37A.56.56,0,0,1,228.81,23Z"/><path class="cls-15" d="M218.47,9.45a.57.57,0,0,1-.23-.78l2-3.52A.55.55,0,0,1,221,5a.56.56,0,0,1,.24.77l-2,3.53A.56.56,0,0,1,218.47,9.45Z"/><path class="cls-15" d="M227.89,53.45a.57.57,0,0,1,.78-.24l7.15,4.13a.57.57,0,0,1-.58,1l-7.14-4.12A.56.56,0,0,1,227.89,53.45Z"/><path class="cls-15" d="M235.79,38.49a.57.57,0,0,1,.55-.6h4.07a.56.56,0,0,1,.56.56.57.57,0,0,1-.56.59h-4.07A.55.55,0,0,1,235.79,38.49Z"/><path class="cls-15" d="M167.88,39.6a.57.57,0,0,1-.55.6h-4.07a.58.58,0,0,1,0-1.16h4.07A.56.56,0,0,1,167.88,39.6Z"/><path class="cls-15" d="M175,55.18a.57.57,0,0,1-.19.79L169,59.33a.57.57,0,0,1-.76-.2.58.58,0,0,1,.19-.8L174.25,55A.56.56,0,0,1,175,55.18Z"/><path class="cls-15" d="M191.88,70.1v.52L204,66.93A1.13,1.13,0,0,1,205.62,68a2.3,2.3,0,0,1-1.58,2L191.9,73.74V80l11.87-3.6a1.12,1.12,0,0,1,1.58,1.08,2.3,2.3,0,0,1-1.58,2L192.12,83a10.19,10.19,0,0,0,20.13-1.55l-12.41,3.77a1.13,1.13,0,0,1-1.58-1.08,2.3,2.3,0,0,1,1.58-2l12.43-3.77v-6.1l-.23.09-12.61,3.82a1.12,1.12,0,0,1-1.58-1.08,2.3,2.3,0,0,1,1.58-2L212,69.2l.23,0a19.58,19.58,0,0,1,.71-4.33H191.13A19,19,0,0,1,191.88,70.1Z"/><path class="cls-15" d="M212.49,65.55H191.62l-.15-.53a17.54,17.54,0,0,0-4.91-7.95,22.41,22.41,0,0,1-7.14-16.66A22.68,22.68,0,0,1,218,24.83a22.17,22.17,0,0,1,6.67,15.9,22.41,22.41,0,0,1-7.23,16.44A16.81,16.81,0,0,0,212.65,65Zm-19.76-1.47h18.66a18.27,18.27,0,0,1,5.08-8,21,21,0,0,0,6.76-15.35A20.73,20.73,0,0,0,217,25.88a21.21,21.21,0,0,0-36.1,14.55A20.91,20.91,0,0,0,187.57,56,19,19,0,0,1,192.73,64.08Z"/><path class="cls-15" d="M212.72,65.85H191.4l-.22-.75a17.06,17.06,0,0,0-4.82-7.81,22.69,22.69,0,0,1-7.23-16.88,23,23,0,0,1,39.11-15.79A22.44,22.44,0,0,1,225,40.73a22.67,22.67,0,0,1-7.33,16.65,16.66,16.66,0,0,0-4.74,7.72Zm-20.88-.59h20.43l.09-.32a17.2,17.2,0,0,1,4.91-8,22.15,22.15,0,0,0,7.14-16.22A21.88,21.88,0,0,0,217.83,25a22.13,22.13,0,0,0-16.09-6.45,22.39,22.39,0,0,0-22,21.83,22.09,22.09,0,0,0,7,16.44,17.74,17.74,0,0,1,5,8.08Zm19.76-.89H192.51l-.07-.2a18.7,18.7,0,0,0-5.08-8,21.21,21.21,0,0,1-6.75-15.78A21.5,21.5,0,0,1,217.2,25.67a21,21,0,0,1,6.32,15.06,21.26,21.26,0,0,1-6.85,15.57,18.1,18.1,0,0,0-5,7.87Zm-18.66-.59h18.23a18.62,18.62,0,0,1,5.1-7.92,20.63,20.63,0,0,0,6.66-15.13,20.4,20.4,0,0,0-6.14-14.64A20.91,20.91,0,0,0,181.2,40.44a20.61,20.61,0,0,0,6.57,15.34A19.32,19.32,0,0,1,192.94,63.78Z"/><polygon class="cls-15" points="205.42 64.96 203.97 64.68 208.46 41.59 204.52 43.03 201.77 41.08 199.02 43.03 195.09 41.59 199.57 64.68 198.13 64.96 193.14 39.3 198.8 41.37 201.77 39.26 204.75 41.37 210.41 39.3 205.42 64.96"/><path class="cls-15" d="M205.65,65.3l-2-.39,4.45-22.86-3.59,1.31-2.71-1.92-2.7,1.92-3.59-1.31,4.44,22.86-2,.39-5.14-26.45,6,2.19,3-2.14,3,2.14,6-2.19ZM193.53,39.76l4.83,24.85.87-.17-4.54-23.31L199,42.7l2.79-2,2.8,2,4.28-1.57-4.53,23.31.87.17L210,39.76,204.7,41.7l-2.93-2.07-2.93,2.07Z"/><path class="cls-15" d="M445.07,83.38h-32.6a24.32,24.32,0,0,0-15.9,42.78l.2-.55a23.77,23.77,0,0,1,15.7-41.69h32.6a23.85,23.85,0,0,1,0,47.69H414.6l-.7.53h31.17a24.38,24.38,0,1,0,0-48.76Z"/><path class="cls-15" d="M445.07,81.88h-32.6A25.82,25.82,0,0,0,396,127.65L386.55,153,412,133.63h33.12a25.88,25.88,0,1,0,0-51.76ZM411.26,130l-.63,0-.94-.08.09.52-15.6,12.24,4.78-12.8s0-.06,0-.06l.58-1.54.73-1.85-1-.67a22.31,22.31,0,0,1,13.19-40.33h32.6a22.35,22.35,0,0,1,0,44.69h-32.6C412.06,130.11,411.66,130.07,411.26,130Z"/><path class="cls-15" d="M416.35,106.14a2.75,2.75,0,1,0,2.75,2.75A2.75,2.75,0,0,0,416.35,106.14Z"/><path class="cls-15" d="M416.35,104.64a4.25,4.25,0,1,0,4.25,4.25A4.25,4.25,0,0,0,416.35,104.64Zm0,7a2.75,2.75,0,1,1,2.75-2.75A2.75,2.75,0,0,1,416.35,111.64Z"/><path class="cls-15" d="M428.58,106a2.75,2.75,0,1,0,2.75,2.75A2.75,2.75,0,0,0,428.58,106Z"/><path class="cls-15" d="M428.58,104.47a4.25,4.25,0,1,0,4.25,4.25A4.25,4.25,0,0,0,428.58,104.47Zm0,7a2.75,2.75,0,1,1,2.75-2.75A2.75,2.75,0,0,1,428.58,111.47Z"/><path class="cls-15" d="M440.63,106.05a2.76,2.76,0,1,0,2.76,2.75A2.76,2.76,0,0,0,440.63,106.05Z"/><path class="cls-15" d="M440.63,104.55a4.26,4.26,0,1,0,4.26,4.25A4.26,4.26,0,0,0,440.63,104.55Zm0,7a2.76,2.76,0,1,1,2.76-2.76A2.76,2.76,0,0,1,440.63,111.56Z"/><polygon class="cls-15" points="390.9 147.15 398.45 127 397.98 126.68 389.77 148.63 412.13 131.6 410.82 131.51 390.9 147.15"/><path class="cls-15" d="M543.17,414.13a29.25,29.25,0,0,1-20.73-8.57L521,404.11l1.37-1.54,9.29-9.24,1.45,1.5a14,14,0,1,0,19.78-19.69l-1.49-1.45,11.07-11,1.44,1.45a29.3,29.3,0,0,1-20.73,50ZM526.77,404a25.21,25.21,0,0,0,35.62-35.45l-5.24,5.22a17.84,17.84,0,0,1,4.07,11.41,18.08,18.08,0,0,1-18.06,18.06,17.9,17.9,0,0,1-11.49-4.12Z"/><path class="cls-1" d="M523.8,406.93l-1.45-1.46a29.31,29.31,0,0,1,41.55-41.35l1.46,1.45-11,11-1.45-1.4a14,14,0,0,0-19.78,19.69l1.4,1.45Zm19.36-47.28a25.18,25.18,0,0,0-19.28,41.41l4.94-4.92a18.06,18.06,0,0,1,25.39-25.27l5.28-5.25A25.17,25.17,0,0,0,543.16,359.65Z"/><rect class="cls-15" x="102.88" y="71.41" width="2.84" height="14.34"/><path class="cls-15" d="M42.16,28.34V20H39.31v8.4a2.14,2.14,0,0,0-1.7,2.16V78.6a2.14,2.14,0,0,0,1.7,2.16v5h2.84v-5a2.12,2.12,0,0,0,2-2.19V30.53A2.12,2.12,0,0,0,42.16,28.34Z"/><path class="cls-15" d="M126.91,36.77V20h-2.84V36.79A2.13,2.13,0,0,0,122.3,39v40a2.15,2.15,0,0,0,1.77,2.18v4.66h2.84V81.11a2.11,2.11,0,0,0,2-2.19V39A2.11,2.11,0,0,0,126.91,36.77Z"/><path class="cls-15" d="M84.53,46.18V20H81.69v26.2a2.11,2.11,0,0,0-2,2.19V78.6a2.12,2.12,0,0,0,2,2.19v5h2.84v-5A2.13,2.13,0,0,0,86.3,78.6V48.36A2.15,2.15,0,0,0,84.53,46.18Z"/><path class="cls-15" d="M21.05,67.77H21V63H18.12v4.82A2.16,2.16,0,0,0,16.49,70v4.86A2.15,2.15,0,0,0,18.12,77v8.8H21V77h.09a2.12,2.12,0,0,0,2-2.19V70A2.11,2.11,0,0,0,21.05,67.77Z"/><path class="cls-15" d="M63.35,52.32V42.57H60.5v9.78a2.14,2.14,0,0,0-1.71,2.16V72.39a2.14,2.14,0,0,0,1.71,2.16V85.76h2.84V74.58a2.12,2.12,0,0,0,2-2.19V54.51A2.12,2.12,0,0,0,63.35,52.32Z"/><path class="cls-15" d="M565.92,286.4a13.17,13.17,0,0,0-2.68.28,19.89,19.89,0,1,0-37.93,12,6.91,6.91,0,0,0-1.65-.21,7,7,0,1,0,0,14,7.09,7.09,0,0,0,1.13-.11H542.2a20.76,20.76,0,0,0,4.07,0h18.55c.37,0,.72.1,1.1.1a13,13,0,0,0,0-26.07Z"/><path class="cls-16" d="M258,331.76q-16.35,30.64-32.68,61.31c-3.89,7.28.9,16.67,9.54,16.63l67.94-.3c14.22-.06,14.25-22.16,0-22.1l-67.94.29,9.54,16.63q16.35-30.64,32.68-61.3a11.3,11.3,0,0,0-4-15.13c-5-2.93-12.31-1.32-15.12,4Z"/><rect class="cls-3" x="397.56" y="402.23" width="69.25" height="7.75" rx="2.96"/><rect class="cls-3" x="436.46" y="378.97" width="4.17" height="23.26"/><path class="cls-5" d="M445.09,402.23h-8.63V379H399.75v23.26H381.21a2.69,2.69,0,0,0-2.69,2.68v2.39a2.7,2.7,0,0,0,2.69,2.68h63.88a2.69,2.69,0,0,0,2.68-2.68v-2.39A2.68,2.68,0,0,0,445.09,402.23Z"/><path class="cls-3" d="M359.7,384.62H486.1a4.87,4.87,0,0,0,4.68-4.15l11.8-91.67a3.57,3.57,0,0,0-3.61-4.15H372.58a4.86,4.86,0,0,0-4.68,4.15l-11.81,91.67A3.57,3.57,0,0,0,359.7,384.62Z"/><path class="cls-5" d="M352.72,384.77H479.11a4.87,4.87,0,0,0,4.68-4.15l11.8-91.68A3.56,3.56,0,0,0,492,284.8H365.59a4.85,4.85,0,0,0-4.68,4.14L349.1,380.62A3.58,3.58,0,0,0,352.72,384.77Z"/><path class="cls-4" d="M480.14,371.09l10.13-78.68a3.3,3.3,0,0,0-3.38-3.8H369.11a4.49,4.49,0,0,0-4.35,3.8l-10.13,78.68Z"/><path class="cls-1" d="M344.14,594.82c8.37.87,26.48,7.19,26.48,7.19,6,1.93,3.88,7.83-2.83,7.92l-25.53.36c-1.23,0-2.16-.69-2-1.48l3.54-13.54A1.19,1.19,0,0,1,344.14,594.82Z"/><path class="cls-17" d="M386.65,490.76a21.54,21.54,0,0,0-12.57-25.23l-.19-.08,0-.07c-28.66-12.41-74.76-10.79-106.32-6.76.1.48-21.12,3.32-28.14,1.41L241,477.54a26.76,26.76,0,0,0,29.81,24.2c24.34-2.9,55.65-7.66,81.69-4.07-4,23.24-11.26,56.71-12.33,87.27-.56,16.09,15,24.38,22.45,9.86,2.46-4.78,2.81-8.56,4.53-17.46C374.34,540.39,382.23,508,386.65,490.76Z"/><path class="cls-2" d="M287.46,259.58a18.35,18.35,0,0,0-5.17,13.48l.33,13.76c.23,9.41,6.84,16.95,14.68,16.76s14.09-8,13.86-17.43l-.32-13.31Z"/><path class="cls-2" d="M297.47,322.29l-11.7.39a3.05,3.05,0,0,1-3-3.05l-1.1-32.46a3.06,3.06,0,0,1,2.82-3.24l11.71-.39a3.06,3.06,0,0,1,3,3l1.09,32.46A3.05,3.05,0,0,1,297.47,322.29Z"/><path class="cls-3" d="M308,275.16V280c-2.65,7.12-12.22,14.77-18.34,15.27-8.13.67-9.4-4.4-12.12-20.07Z"/><path class="cls-2" d="M305.92,277c2.42-.19,4.57,2,4.8,4.92s-1.55,5.4-4,5.59-4.58-2-4.8-4.91S303.5,277.18,305.92,277Z"/><path class="cls-3" d="M308,276.7a28.64,28.64,0,0,0,6.46-17.52s-27.15-8.36-35.72,6.75c0,0-2.11,6.09-1.14,9.23Z"/><path class="cls-3" d="M254.45,323.61a19.74,19.74,0,0,0-14.34,17.51l-8.66,113.29c-.83,10.92,8.45,20.21,20.2,20.21h33.49c13.82,0,25.73-9.09,28.45-21.71l25.59-118.42a9,9,0,0,0-4.84-10C307.7,311.76,273.11,318.38,254.45,323.61Z"/><path class="cls-5" d="M330,508.51H216.41a6.49,6.49,0,0,1,0-13H330a6.49,6.49,0,1,1,0,13Z"/><polygon class="cls-5" points="220.82 497.97 210.15 503.6 200.1 435.94 211.57 435.94 220.82 497.97"/><polygon class="cls-5" points="286.25 498.85 274.78 498.85 265.53 436.82 277 436.82 286.25 498.85"/><path class="cls-18" d="M205,438.21h76.94a12.27,12.27,0,0,0,12.19-13.69L286,355.24c-.85-7.29-7-13.26-13.76-13.26h-66.3c-6.72,0-11.52,6-10.67,13.26Z"/><path class="cls-1" d="M204.62,438.21H273a9.4,9.4,0,0,0,9.34-10.49l-8.47-72.48C273,348,266.85,342,260.13,342h-66.3c-6.72,0-11.52,6-10.67,13.26l8.33,71.29A13.22,13.22,0,0,0,204.62,438.21Z"/><rect class="cls-18" x="315.56" y="421.27" width="55.78" height="15.99" rx="2.51"/><rect class="cls-1" x="311.08" y="421.27" width="16.42" height="15.99" rx="2.27"/><path class="cls-4" d="M277.71,318.89a4.79,4.79,0,0,1,4.53-4.15l18.76-.8a4.78,4.78,0,0,1,4.86,3.75Z"/><path class="cls-2" d="M421.34,410H406.41a6.41,6.41,0,0,1,0-12.82h14.93a6.41,6.41,0,1,1,0,12.82Z"/><path class="cls-2" d="M148,132.63l.23-14.92a6.41,6.41,0,1,1,12.82.2l-.23,14.92a6.41,6.41,0,0,1-12.82-.2Z"/><path class="cls-3" d="M402.55,393.55c-15.17-1.7-30.07-3.65-45.53-5.56q-8.49-28.33-17-56.69C336,317.71,308,328.7,312.8,342.16c7.88,22.1,15.1,39.2,23.94,60.12a12.27,12.27,0,0,0,11.42,7.3c18-.42,36.63.64,54.61.22C417,409.47,416.62,395.14,402.55,393.55Z"/><path class="cls-5" d="M319.76,431.46H290.14a2.21,2.21,0,0,1,0-4.42h29.62a2.21,2.21,0,1,1,0,4.42Z"/><rect class="cls-4" x="0.45" y="101.09" width="152.09" height="131.75" rx="9.14"/><path class="cls-19" d="M191.9,143.94H177.14a1,1,0,1,1,0-2.07H191.9A16.74,16.74,0,0,0,203.69,137l37.57-37.8a8.76,8.76,0,0,1,11.81-.51l33.17,28.08a7.39,7.39,0,0,0,9.73-.16l17.54-15.92a1,1,0,0,1,1.46.07,1.05,1.05,0,0,1-.07,1.47L297.37,128.1a9.49,9.49,0,0,1-12.47.22l-33.17-28.08a6.66,6.66,0,0,0-9,.38l-37.57,37.81A18.85,18.85,0,0,1,191.9,143.94Z"/><path class="cls-8" d="M336.43,122.4a1.33,1.33,0,0,1-1.81.51L314.2,111.42a1.33,1.33,0,0,1,1.3-2.31l20.43,11.49A1.33,1.33,0,0,1,336.43,122.4Z"/><path class="cls-2" d="M6.25,237.57l.23-14.92a6.41,6.41,0,0,1,12.82.2l-.23,14.92a6.41,6.41,0,1,1-12.82-.2Z"/><path class="cls-3" d="M54.13,264.18c-6,9.62-11.69,22.88-17.66,32.5C32.9,282,23.85,242.28,23,238.92c-3.36-13.81-18.82-7.63-16.85,6.48,4.13,29.47,14,75.44,14.85,78.8,2.32,9.53,16.55,13.46,21.41,5.64l35.37-46.42C85.33,271.3,61.63,252.1,54.13,264.18Z"/><rect class="cls-15" x="9.43" y="115.71" width="63.08" height="43.48"/><rect class="cls-15" x="79.28" y="115.71" width="63.08" height="43.48"/><rect class="cls-15" x="9.2" y="164.34" width="63.08" height="43.48"/><rect class="cls-15" x="79.5" y="164.38" width="63.08" height="43.48"/><rect class="cls-3" x="13.48" y="123.91" width="7.07" height="7.07"/><rect class="cls-1" x="12.67" y="168.17" width="7.07" height="7.07"/><rect class="cls-20" x="82.23" y="123.32" width="7.07" height="7.07"/><rect class="cls-5" x="83.33" y="168.47" width="7.07" height="7.07"/><rect class="cls-4" x="13.33" y="201.73" width="15.71" height="2.28"/><rect class="cls-4" x="13.26" y="197.28" width="15.71" height="2.28"/><rect class="cls-4" x="13.33" y="193.27" width="15.71" height="2.28"/><rect class="cls-4" x="13.26" y="188.49" width="25.79" height="2.28"/><rect class="cls-4" x="13.18" y="153.39" width="15.71" height="2.28"/><rect class="cls-4" x="13.11" y="148.94" width="15.71" height="2.28"/><rect class="cls-4" x="13.18" y="144.93" width="15.71" height="2.28"/><rect class="cls-4" x="13.11" y="140.15" width="25.79" height="2.28"/><rect class="cls-4" x="82" y="153.24" width="15.71" height="2.28"/><rect class="cls-4" x="81.94" y="148.79" width="15.71" height="2.28"/><rect class="cls-4" x="82" y="144.78" width="15.71" height="2.28"/><rect class="cls-4" x="81.94" y="140.01" width="25.79" height="2.28"/><rect class="cls-4" x="83.48" y="201.73" width="15.71" height="2.28"/><rect class="cls-4" x="83.41" y="197.28" width="15.71" height="2.28"/><rect class="cls-4" x="83.48" y="193.27" width="15.71" height="2.28"/><rect class="cls-4" x="83.41" y="188.49" width="25.79" height="2.28"/><path class="cls-3" d="M150.9,142.24c10,87.68-32.75,152.46-25.79,136.32-2.36,5.47,10.94,18.65,16.53,21.92,4.67,2.73,14.7,1.49,17.08-4,19.26-44.61,23.58-106,9.62-161-3.5-13.78-21-7.05-17.44,6.77Z"/><path class="cls-2" d="M106.85,251l11.17.37a2.91,2.91,0,0,0,2.89-2.9l1-30.85a2.9,2.9,0,0,0-2.69-3.08l-11.16-.37a2.91,2.91,0,0,0-2.9,2.9l-1,30.85A2.91,2.91,0,0,0,106.85,251Z"/><path class="cls-2" d="M116.4,191.38a17.42,17.42,0,0,1,4.93,12.81L121,217.27c-.22,8.94-6.52,16.11-14,15.93s-13.44-7.63-13.22-16.57L94.1,204Z"/><path class="cls-3" d="M96.33,206.19v4.56c2.53,6.77,11.66,14,17.5,14.51,7.75.64,9-4.18,11.55-19.07Z"/><path class="cls-2" d="M98.35,207.93c-2.31-.18-4.36,1.91-4.57,4.67s1.48,5.14,3.79,5.32,4.36-1.91,4.57-4.67S100.67,208.11,98.35,207.93Z"/><path class="cls-3" d="M96.39,207.65A27.2,27.2,0,0,1,90.23,191s25.9-7.95,34.07,6.41c0,0,2,5.79,1.08,8.78Z"/><path class="cls-3" d="M137.82,250.43c-.91-.22-1.83-.43-2.77-.61-11-2.19-23.89-2-35-1-3.2.3-6.26.66-9.09,1.07-3.4.48-6.48,1-9.06,1.54-6.3,1.28-20.72,3.32-25.27,9.26-5.17,6.76,2.18,15.89,2.44,23.78q1.8,54.4,5.28,108.32a7.93,7.93,0,0,0,8.12,7.41l3.18-.09,51.28-1.38,4.58-.12c2.23-.06,4.69-.22,6.65-2a14.22,14.22,0,0,0,3.93-6.88c.08-.31.16-.57.22-.79a40.2,40.2,0,0,0,1.47-8.14c.57-7.63,1.37-17.08,2.08-23.79.22-2.24.47-4.48.78-6.72,2-16,6.53-41.4,13.36-57.1,1.06-9.55.73-9.39.93-18.42C161.24,260.82,151.2,253.68,137.82,250.43Z"/><path class="cls-4" d="M123.79,248.65a4.1,4.1,0,0,0-4-3.4H103.61a4.1,4.1,0,0,0-4,3.4Z"/><path class="cls-15" d="M433.13,367.92H427a2.62,2.62,0,0,1-2.64-3.09l6.46-44.41a3.69,3.69,0,0,1,3.53-3.08h6.14a2.61,2.61,0,0,1,2.64,3.08l-6.46,44.41A3.7,3.7,0,0,1,433.13,367.92Z"/><path class="cls-1" d="M447.22,367.92h-6.14a2.61,2.61,0,0,1-2.63-3.09l5.33-36.65a3.69,3.69,0,0,1,3.53-3.08h6.14a2.6,2.6,0,0,1,2.63,3.08l-5.33,36.65A3.69,3.69,0,0,1,447.22,367.92Z"/><path class="cls-15" d="M461.18,367.92H455a2.62,2.62,0,0,1-2.64-3.09l9.2-63.22a3.69,3.69,0,0,1,3.53-3.08h6.14a2.6,2.6,0,0,1,2.63,3.08l-9.19,63.22A3.7,3.7,0,0,1,461.18,367.92Z"/><path class="cls-15" d="M419.73,367.92h-7.8a1.91,1.91,0,0,1-1.92-2.26l5-34.3a2.69,2.69,0,0,1,2.58-2.26h7.79a1.91,1.91,0,0,1,1.93,2.26l-5,34.3A2.71,2.71,0,0,1,419.73,367.92Z"/><path class="cls-2" d="M322.63,130.87l4.06-14.35A6.41,6.41,0,0,1,339,120L335,134.37a6.41,6.41,0,0,1-12.34-3.5Z"/><path class="cls-14" d="M364.79,205.7l-25.25-71.34c-3.83-13.68-20-8.38-16.18,5.37,0,0,6.83,39.41,12.35,59.12-15.08,1.35-40.77-.18-55.85,1.16-5.95.53,3.75,7.58,3.75,13.93,0,5.57,6.4,20.21,12.38,19.67,19.83-1.76,39.13-9.06,58.14-13.92C361,217.94,366.87,213.12,364.79,205.7Z"/></g></g></svg>