<svg xmlns="http://www.w3.org/2000/svg" xmlns:xlink="http://www.w3.org/1999/xlink" viewBox="0 0 601.42 696.92"><defs><style>.cls-1{mask:url(#mask);filter:url(#luminosity-noclip-14);}.cls-10,.cls-12,.cls-14,.cls-16,.cls-18,.cls-2,.cls-20,.cls-22,.cls-24,.cls-26,.cls-4,.cls-6,.cls-8{mix-blend-mode:multiply;}.cls-2{fill:url(#linear-gradient);}.cls-3{mask:url(#mask-2);filter:url(#luminosity-noclip-19);}.cls-4{fill:url(#linear-gradient-2);}.cls-5{mask:url(#mask-3);filter:url(#luminosity-noclip-20);}.cls-6{fill:url(#linear-gradient-3);}.cls-7{mask:url(#mask-4);filter:url(#luminosity-noclip-21);}.cls-8{fill:url(#linear-gradient-4);}.cls-9{mask:url(#mask-5);filter:url(#luminosity-noclip-22);}.cls-10{fill:url(#linear-gradient-5);}.cls-11{mask:url(#mask-6);filter:url(#luminosity-noclip-23);}.cls-12{fill:url(#linear-gradient-6);}.cls-13{mask:url(#mask-7);filter:url(#luminosity-noclip-15);}.cls-14{fill:url(#linear-gradient-7);}.cls-15{mask:url(#mask-8);filter:url(#luminosity-noclip-24);}.cls-16{fill:url(#linear-gradient-8);}.cls-17{mask:url(#mask-9);filter:url(#luminosity-noclip-25);}.cls-18{fill:url(#linear-gradient-9);}.cls-19{mask:url(#mask-10);filter:url(#luminosity-noclip-26);}.cls-20{fill:url(#linear-gradient-10);}.cls-21{mask:url(#mask-11);filter:url(#luminosity-noclip-16);}.cls-22{fill:url(#linear-gradient-11);}.cls-23{mask:url(#mask-12);filter:url(#luminosity-noclip-17);}.cls-24{fill:url(#linear-gradient-12);}.cls-25{mask:url(#mask-13);filter:url(#luminosity-noclip-18);}.cls-26{fill:url(#linear-gradient-13);}.cls-27{opacity:0.32;}.cls-28{fill:url(#linear-gradient-14);}.cls-29,.cls-49,.cls-51,.cls-52{opacity:0.72;}.cls-30{mask:url(#mask-14);}.cls-31{fill:url(#linear-gradient-15);}.cls-32{mask:url(#mask-15);}.cls-33{fill:url(#linear-gradient-16);}.cls-34{mask:url(#mask-16);}.cls-35{fill:url(#linear-gradient-17);}.cls-36{mask:url(#mask-17);}.cls-37{fill:url(#linear-gradient-18);}.cls-38{mask:url(#mask-18);}.cls-39{fill:url(#linear-gradient-19);}.cls-40{mask:url(#mask-19);}.cls-41{fill:url(#linear-gradient-20);}.cls-42{mask:url(#mask-20);}.cls-43{fill:url(#linear-gradient-21);}.cls-44{mask:url(#mask-21);}.cls-45{fill:url(#linear-gradient-22);}.cls-46{mask:url(#mask-22);}.cls-47{fill:url(#linear-gradient-23);}.cls-48{mask:url(#mask-23);}.cls-49{fill:url(#linear-gradient-24);}.cls-50{mask:url(#mask-24);}.cls-51{fill:url(#linear-gradient-25);}.cls-52{fill:url(#linear-gradient-26);}.cls-53{fill:#fff;}.cls-54{fill:#15456e;}.cls-55{fill:#1b5c91;}.cls-56{fill:#2273b5;}.cls-57{fill:#da9b5b;}.cls-58{fill:#fab46c;}.cls-59{fill:#514e58;}.cls-60{fill:#3e3b42;}.cls-61{fill:#eea886;}.cls-62{fill:#ead8cf;}.cls-63{fill:#cf3e3e;}.cls-64{fill:#353a3d;}.cls-65{fill:#eb4747;}.cls-66{fill:#2b2b2b;}.cls-67{fill:#434343;}.cls-68{fill:#bdb69c;}.cls-69{fill:#80756b;}.cls-70{fill:#8a2929;}.cls-71{mask:url(#mask-25);}.cls-72{fill:url(#linear-gradient-27);}.cls-73{mask:url(#mask-26);}.cls-74{fill:url(#linear-gradient-28);}.cls-75{filter:url(#luminosity-noclip-13);}.cls-76{filter:url(#luminosity-noclip-12);}.cls-77{filter:url(#luminosity-noclip-11);}.cls-78{filter:url(#luminosity-noclip-10);}.cls-79{filter:url(#luminosity-noclip-9);}.cls-80{filter:url(#luminosity-noclip-8);}.cls-81{filter:url(#luminosity-noclip-7);}.cls-82{filter:url(#luminosity-noclip-6);}.cls-83{filter:url(#luminosity-noclip-5);}.cls-84{filter:url(#luminosity-noclip-4);}.cls-85{filter:url(#luminosity-noclip-3);}.cls-86{filter:url(#luminosity-noclip-2);}.cls-87{filter:url(#luminosity-noclip);}</style><filter id="luminosity-noclip" x="96.19" y="-8892.98" width="31.02" height="32766" filterUnits="userSpaceOnUse" color-interpolation-filters="sRGB"><feFlood flood-color="#fff" result="bg"/><feBlend in="SourceGraphic" in2="bg"/></filter><mask id="mask" x="96.19" y="-8892.98" width="31.02" height="32766" maskUnits="userSpaceOnUse"><g class="cls-87"/></mask><linearGradient id="linear-gradient" x1="111.7" y1="520.19" x2="111.7" y2="330.64" gradientUnits="userSpaceOnUse"><stop offset="0"/><stop offset="0.2" stop-color="#fff"/><stop offset="1" stop-color="#fff"/></linearGradient><filter id="luminosity-noclip-2" x="201.86" y="-8892.98" width="12.62" height="32766" filterUnits="userSpaceOnUse" color-interpolation-filters="sRGB"><feFlood flood-color="#fff" result="bg"/><feBlend in="SourceGraphic" in2="bg"/></filter><mask id="mask-2" x="201.86" y="-8892.98" width="12.62" height="32766" maskUnits="userSpaceOnUse"><g class="cls-86"/></mask><linearGradient id="linear-gradient-2" x1="208.17" y1="520.2" x2="208.17" y2="330.63" xlink:href="#linear-gradient"/><filter id="luminosity-noclip-3" x="239.3" y="-8892.98" width="34.34" height="32766" filterUnits="userSpaceOnUse" color-interpolation-filters="sRGB"><feFlood flood-color="#fff" result="bg"/><feBlend in="SourceGraphic" in2="bg"/></filter><mask id="mask-3" x="239.3" y="-8892.98" width="34.34" height="32766" maskUnits="userSpaceOnUse"><g class="cls-85"/></mask><linearGradient id="linear-gradient-3" x1="256.47" y1="520.19" x2="256.47" y2="330.64" xlink:href="#linear-gradient"/><filter id="luminosity-noclip-4" x="285.89" y="-8892.98" width="29.28" height="32766" filterUnits="userSpaceOnUse" color-interpolation-filters="sRGB"><feFlood flood-color="#fff" result="bg"/><feBlend in="SourceGraphic" in2="bg"/></filter><mask id="mask-4" x="285.89" y="-8892.98" width="29.28" height="32766" maskUnits="userSpaceOnUse"><g class="cls-84"/></mask><linearGradient id="linear-gradient-4" x1="300.53" y1="520.2" x2="300.53" y2="330.63" xlink:href="#linear-gradient"/><filter id="luminosity-noclip-5" x="193.92" y="-8892.98" width="36.4" height="32766" filterUnits="userSpaceOnUse" color-interpolation-filters="sRGB"><feFlood flood-color="#fff" result="bg"/><feBlend in="SourceGraphic" in2="bg"/></filter><mask id="mask-5" x="193.92" y="-8892.98" width="36.4" height="32766" maskUnits="userSpaceOnUse"><g class="cls-83"/></mask><linearGradient id="linear-gradient-5" x1="212.12" y1="520.19" x2="212.12" y2="330.64" xlink:href="#linear-gradient"/><filter id="luminosity-noclip-6" x="0" y="-8892.98" width="254.43" height="32766" filterUnits="userSpaceOnUse" color-interpolation-filters="sRGB"><feFlood flood-color="#fff" result="bg"/><feBlend in="SourceGraphic" in2="bg"/></filter><mask id="mask-6" x="0" y="-8892.98" width="254.43" height="32766" maskUnits="userSpaceOnUse"><g class="cls-82"/></mask><linearGradient id="linear-gradient-6" x1="127.21" y1="487.47" x2="127.21" y2="144.11" xlink:href="#linear-gradient"/><filter id="luminosity-noclip-7" x="225.51" y="-8892.98" width="48.13" height="32766" filterUnits="userSpaceOnUse" color-interpolation-filters="sRGB"><feFlood flood-color="#fff" result="bg"/><feBlend in="SourceGraphic" in2="bg"/></filter><mask id="mask-7" x="225.51" y="-8892.98" width="48.13" height="32766" maskUnits="userSpaceOnUse"><g class="cls-81"/></mask><linearGradient id="linear-gradient-7" x1="249.58" y1="520.2" x2="249.58" y2="330.63" xlink:href="#linear-gradient"/><filter id="luminosity-noclip-8" x="294.71" y="-8892.98" width="206.7" height="32766" filterUnits="userSpaceOnUse" color-interpolation-filters="sRGB"><feFlood flood-color="#fff" result="bg"/><feBlend in="SourceGraphic" in2="bg"/></filter><mask id="mask-8" x="294.71" y="-8892.98" width="206.7" height="32766" maskUnits="userSpaceOnUse"><g class="cls-80"/></mask><linearGradient id="linear-gradient-8" x1="398.06" y1="330.64" x2="398.06" y2="62.83" xlink:href="#linear-gradient"/><filter id="luminosity-noclip-9" x="227.31" y="-8892.98" width="68.79" height="32766" filterUnits="userSpaceOnUse" color-interpolation-filters="sRGB"><feFlood flood-color="#fff" result="bg"/><feBlend in="SourceGraphic" in2="bg"/></filter><mask id="mask-9" x="227.31" y="-8892.98" width="68.79" height="32766" maskUnits="userSpaceOnUse"><g class="cls-79"/></mask><linearGradient id="linear-gradient-9" x1="258.32" y1="361.57" x2="264.11" y2="641.58" gradientUnits="userSpaceOnUse"><stop offset="0" stop-color="#fff"/><stop offset="1"/></linearGradient><filter id="luminosity-noclip-10" x="202.67" y="-8892.98" width="28.67" height="32766" filterUnits="userSpaceOnUse" color-interpolation-filters="sRGB"><feFlood flood-color="#fff" result="bg"/><feBlend in="SourceGraphic" in2="bg"/></filter><mask id="mask-10" x="202.67" y="-8892.98" width="28.67" height="32766" maskUnits="userSpaceOnUse"><g class="cls-78"/></mask><linearGradient id="linear-gradient-10" x1="213.64" y1="362.5" x2="219.43" y2="642.5" xlink:href="#linear-gradient-9"/><filter id="luminosity-noclip-11" x="163.28" y="-8892.98" width="29.38" height="32766" filterUnits="userSpaceOnUse" color-interpolation-filters="sRGB"><feFlood flood-color="#fff" result="bg"/><feBlend in="SourceGraphic" in2="bg"/></filter><mask id="mask-11" x="163.28" y="-8892.98" width="29.38" height="32766" maskUnits="userSpaceOnUse"><g class="cls-77"/></mask><linearGradient id="linear-gradient-11" x1="177.97" y1="520.2" x2="177.97" y2="330.63" xlink:href="#linear-gradient"/><filter id="luminosity-noclip-12" x="96.19" y="-8892.98" width="58.21" height="32766" filterUnits="userSpaceOnUse" color-interpolation-filters="sRGB"><feFlood flood-color="#fff" result="bg"/><feBlend in="SourceGraphic" in2="bg"/></filter><mask id="mask-12" x="96.19" y="-8892.98" width="58.21" height="32766" maskUnits="userSpaceOnUse"><g class="cls-76"/></mask><linearGradient id="linear-gradient-12" x1="125.3" y1="520.2" x2="125.3" y2="330.63" xlink:href="#linear-gradient"/><filter id="luminosity-noclip-13" x="136.66" y="-8892.98" width="45.96" height="32766" filterUnits="userSpaceOnUse" color-interpolation-filters="sRGB"><feFlood flood-color="#fff" result="bg"/><feBlend in="SourceGraphic" in2="bg"/></filter><mask id="mask-13" x="136.66" y="-8892.98" width="45.96" height="32766" maskUnits="userSpaceOnUse"><g class="cls-75"/></mask><linearGradient id="linear-gradient-13" x1="159.64" y1="520.19" x2="159.64" y2="330.64" xlink:href="#linear-gradient"/><linearGradient id="linear-gradient-14" x1="65.93" y1="273.35" x2="432.83" y2="273.35" gradientUnits="userSpaceOnUse"><stop offset="0" stop-color="#40a9e6"/><stop offset="1" stop-color="#1fa9ff"/></linearGradient><filter id="luminosity-noclip-14" x="96.19" y="422.65" width="31.02" height="6.63" filterUnits="userSpaceOnUse" color-interpolation-filters="sRGB"><feFlood flood-color="#fff" result="bg"/><feBlend in="SourceGraphic" in2="bg"/></filter><mask id="mask-14" x="96.19" y="422.65" width="31.02" height="6.63" maskUnits="userSpaceOnUse"><g class="cls-1"><rect class="cls-2" x="96.19" y="422.65" width="31.02" height="6.63"/></g></mask><linearGradient id="linear-gradient-15" x1="111.7" y1="520.19" x2="111.7" y2="330.64" gradientUnits="userSpaceOnUse"><stop offset="0" stop-color="#40cde6"/><stop offset="0.2" stop-color="#40cde6"/><stop offset="1" stop-color="#57f"/></linearGradient><filter id="luminosity-noclip-15" x="225.51" y="447.61" width="48.13" height="6.63" filterUnits="userSpaceOnUse" color-interpolation-filters="sRGB"><feFlood flood-color="#fff" result="bg"/><feBlend in="SourceGraphic" in2="bg"/></filter><mask id="mask-15" x="225.51" y="447.61" width="48.13" height="6.63" maskUnits="userSpaceOnUse"><g class="cls-13"><rect class="cls-14" x="225.51" y="447.61" width="48.13" height="6.63"/></g></mask><linearGradient id="linear-gradient-16" x1="249.58" y1="520.2" x2="249.58" y2="330.63" xlink:href="#linear-gradient-15"/><filter id="luminosity-noclip-16" x="163.28" y="447.61" width="29.38" height="6.63" filterUnits="userSpaceOnUse" color-interpolation-filters="sRGB"><feFlood flood-color="#fff" result="bg"/><feBlend in="SourceGraphic" in2="bg"/></filter><mask id="mask-16" x="163.28" y="447.61" width="29.38" height="6.63" maskUnits="userSpaceOnUse"><g class="cls-21"><rect class="cls-22" x="163.28" y="447.61" width="29.38" height="6.63"/></g></mask><linearGradient id="linear-gradient-17" x1="177.97" y1="520.2" x2="177.97" y2="330.63" xlink:href="#linear-gradient-15"/><filter id="luminosity-noclip-17" x="96.19" y="447.61" width="58.21" height="6.63" filterUnits="userSpaceOnUse" color-interpolation-filters="sRGB"><feFlood flood-color="#fff" result="bg"/><feBlend in="SourceGraphic" in2="bg"/></filter><mask id="mask-17" x="96.19" y="447.61" width="58.21" height="6.63" maskUnits="userSpaceOnUse"><g class="cls-23"><rect class="cls-24" x="96.19" y="447.61" width="58.21" height="6.63"/></g></mask><linearGradient id="linear-gradient-18" x1="125.3" y1="520.2" x2="125.3" y2="330.63" xlink:href="#linear-gradient-15"/><filter id="luminosity-noclip-18" x="136.66" y="422.65" width="45.96" height="6.63" filterUnits="userSpaceOnUse" color-interpolation-filters="sRGB"><feFlood flood-color="#fff" result="bg"/><feBlend in="SourceGraphic" in2="bg"/></filter><mask id="mask-18" x="136.66" y="422.65" width="45.96" height="6.63" maskUnits="userSpaceOnUse"><g class="cls-25"><rect class="cls-26" x="136.66" y="422.65" width="45.96" height="6.63"/></g></mask><linearGradient id="linear-gradient-19" x1="159.64" y1="520.19" x2="159.64" y2="330.64" xlink:href="#linear-gradient-15"/><filter id="luminosity-noclip-19" x="201.86" y="447.61" width="12.62" height="6.63" filterUnits="userSpaceOnUse" color-interpolation-filters="sRGB"><feFlood flood-color="#fff" result="bg"/><feBlend in="SourceGraphic" in2="bg"/></filter><mask id="mask-19" x="201.86" y="447.61" width="12.62" height="6.63" maskUnits="userSpaceOnUse"><g class="cls-3"><rect class="cls-4" x="201.86" y="447.61" width="12.62" height="6.63"/></g></mask><linearGradient id="linear-gradient-20" x1="208.17" y1="520.2" x2="208.17" y2="330.63" xlink:href="#linear-gradient-15"/><filter id="luminosity-noclip-20" x="239.3" y="423.02" width="34.34" height="6.63" filterUnits="userSpaceOnUse" color-interpolation-filters="sRGB"><feFlood flood-color="#fff" result="bg"/><feBlend in="SourceGraphic" in2="bg"/></filter><mask id="mask-20" x="239.3" y="423.02" width="34.34" height="6.63" maskUnits="userSpaceOnUse"><g class="cls-5"><rect class="cls-6" x="239.3" y="423.02" width="34.34" height="6.63"/></g></mask><linearGradient id="linear-gradient-21" x1="256.47" y1="520.19" x2="256.47" y2="330.64" xlink:href="#linear-gradient-15"/><filter id="luminosity-noclip-21" x="285.89" y="447.61" width="29.28" height="6.63" filterUnits="userSpaceOnUse" color-interpolation-filters="sRGB"><feFlood flood-color="#fff" result="bg"/><feBlend in="SourceGraphic" in2="bg"/></filter><mask id="mask-21" x="285.89" y="447.61" width="29.28" height="6.63" maskUnits="userSpaceOnUse"><g class="cls-7"><rect class="cls-8" x="285.89" y="447.61" width="29.28" height="6.63"/></g></mask><linearGradient id="linear-gradient-22" x1="300.53" y1="520.2" x2="300.53" y2="330.63" xlink:href="#linear-gradient-15"/><filter id="luminosity-noclip-22" x="193.92" y="423.02" width="36.4" height="6.63" filterUnits="userSpaceOnUse" color-interpolation-filters="sRGB"><feFlood flood-color="#fff" result="bg"/><feBlend in="SourceGraphic" in2="bg"/></filter><mask id="mask-22" x="193.92" y="423.02" width="36.4" height="6.63" maskUnits="userSpaceOnUse"><g class="cls-9"><rect class="cls-10" x="193.92" y="423.02" width="36.4" height="6.63"/></g></mask><linearGradient id="linear-gradient-23" x1="212.12" y1="520.19" x2="212.12" y2="330.64" xlink:href="#linear-gradient-15"/><filter id="luminosity-noclip-23" x="0" y="263.54" width="254.43" height="127.96" filterUnits="userSpaceOnUse" color-interpolation-filters="sRGB"><feFlood flood-color="#fff" result="bg"/><feBlend in="SourceGraphic" in2="bg"/></filter><mask id="mask-23" x="0" y="263.54" width="254.43" height="127.96" maskUnits="userSpaceOnUse"><g class="cls-11"><polygon class="cls-12" points="0 263.54 254.43 263.54 254.43 335.46 254.43 359.32 254.43 391.5 228.04 359.32 0 359.32 0 263.54"/></g></mask><linearGradient id="linear-gradient-24" x1="127.21" y1="487.47" x2="127.21" y2="144.11" xlink:href="#linear-gradient-15"/><filter id="luminosity-noclip-24" x="294.71" y="130.82" width="206.7" height="127.96" filterUnits="userSpaceOnUse" color-interpolation-filters="sRGB"><feFlood flood-color="#fff" result="bg"/><feBlend in="SourceGraphic" in2="bg"/></filter><mask id="mask-24" x="294.71" y="130.82" width="206.7" height="127.96" maskUnits="userSpaceOnUse"><g class="cls-15"><polygon class="cls-16" points="501.41 130.82 294.71 130.82 294.71 202.75 294.71 226.61 294.71 258.79 321.1 226.61 501.41 226.61 501.41 130.82"/></g></mask><linearGradient id="linear-gradient-25" x1="398.06" y1="330.64" x2="398.06" y2="62.83" xlink:href="#linear-gradient-15"/><linearGradient id="linear-gradient-26" x1="135.4" y1="261.13" x2="135.4" y2="-55.04" gradientUnits="userSpaceOnUse"><stop offset="0" stop-color="#40cde6"/><stop offset="1" stop-color="#57f"/></linearGradient><filter id="luminosity-noclip-25" x="227.31" y="508.44" width="68.79" height="33.43" filterUnits="userSpaceOnUse" color-interpolation-filters="sRGB"><feFlood flood-color="#fff" result="bg"/><feBlend in="SourceGraphic" in2="bg"/></filter><mask id="mask-25" x="227.31" y="508.44" width="68.79" height="33.43" maskUnits="userSpaceOnUse"><g class="cls-17"><polygon class="cls-18" points="243.43 541.87 296.1 541.87 279.98 508.44 227.31 508.44 243.43 541.87"/></g></mask><linearGradient id="linear-gradient-27" x1="258.32" y1="361.57" x2="264.11" y2="641.58" gradientUnits="userSpaceOnUse"><stop offset="0" stop-color="#40d5e6"/><stop offset="1" stop-color="#57f"/></linearGradient><filter id="luminosity-noclip-26" x="202.67" y="508.44" width="28.67" height="33.43" filterUnits="userSpaceOnUse" color-interpolation-filters="sRGB"><feFlood flood-color="#fff" result="bg"/><feBlend in="SourceGraphic" in2="bg"/></filter><mask id="mask-26" x="202.67" y="508.44" width="28.67" height="33.43" maskUnits="userSpaceOnUse"><g class="cls-19"><polygon class="cls-20" points="218.79 541.87 231.34 541.87 215.22 508.44 202.67 508.44 218.79 541.87"/></g></mask><linearGradient id="linear-gradient-28" x1="213.64" y1="362.5" x2="219.43" y2="642.5" xlink:href="#linear-gradient-27"/></defs><title>limit2</title><g id="Layer_2" data-name="Layer 2"><g id="Слой_1" data-name="Слой 1"><g class="cls-27"><rect class="cls-28" x="65.93" y="60.28" width="366.9" height="426.13" rx="26.22"/></g><g class="cls-29"><g class="cls-30"><rect class="cls-31" x="96.19" y="422.65" width="31.02" height="6.63"/></g><g class="cls-32"><rect class="cls-33" x="225.51" y="447.61" width="48.13" height="6.63"/></g><g class="cls-34"><rect class="cls-35" x="163.28" y="447.61" width="29.38" height="6.63"/></g><g class="cls-36"><rect class="cls-37" x="96.19" y="447.61" width="58.21" height="6.63"/></g><g class="cls-38"><rect class="cls-39" x="136.66" y="422.65" width="45.96" height="6.63"/></g><g class="cls-40"><rect class="cls-41" x="201.86" y="447.61" width="12.62" height="6.63"/></g><g class="cls-42"><rect class="cls-43" x="239.3" y="423.02" width="34.34" height="6.63"/></g><g class="cls-44"><rect class="cls-45" x="285.89" y="447.61" width="29.28" height="6.63"/></g><g class="cls-46"><rect class="cls-47" x="193.92" y="423.02" width="36.4" height="6.63"/></g></g><g class="cls-48"><polygon class="cls-49" points="0 263.54 254.43 263.54 254.43 335.46 254.43 359.32 254.43 391.5 228.04 359.32 0 359.32 0 263.54"/></g><g class="cls-50"><polygon class="cls-51" points="501.41 130.82 294.71 130.82 294.71 202.75 294.71 226.61 294.71 258.79 321.1 226.61 501.41 226.61 501.41 130.82"/></g><rect class="cls-52" x="22.5" width="225.8" height="225.8" rx="24.97"/><path class="cls-53" d="M211.21,85.79A80.51,80.51,0,1,0,59.59,140q.91,2.56,2,5A80.51,80.51,0,0,0,211.21,85.79Zm-55.48,84A60.28,60.28,0,0,1,80.05,137c-.54-1.23-1-2.49-1.49-3.76a60.37,60.37,0,1,1,77.17,36.51Z"/><path class="cls-54" d="M77.77,94.91l-19.23-6A80.59,80.59,0,0,1,133,32.4l.6,20.14A60.48,60.48,0,0,0,77.77,94.91Z"/><path class="cls-55" d="M80.05,137l-18.48,8q-1.07-2.46-2-5A80.15,80.15,0,0,1,58.54,88.9l19.23,6a60.11,60.11,0,0,0,.79,38.32C79,134.5,79.51,135.76,80.05,137Z"/><path class="cls-56" d="M74.05,165.08A79.89,79.89,0,0,1,61.57,145l18.48-8a60.05,60.05,0,0,0,9.35,15Z"/><path class="cls-57" d="M450,632.62s1.43,10.49,1.61,12.07,15.93-.93,15.93-.93l1.27-12.5S452,631.13,450,632.62Z"/><path class="cls-58" d="M451.44,643.36S438,651,433.17,653.71s-19.69,4.19-19.15,7.06,4.83,9.3,24.88,9.13,29.71,1.25,31.86-2.15-3.11-25.11-3.11-25.11S463.09,645.64,451.44,643.36Z"/><path class="cls-57" d="M378.26,649.47l2.32,13.27s17-1,17.74-3.36-1.86-14.69-1.86-14.69Z"/><path class="cls-58" d="M398.47,658.44s5.35,18.08,1.59,24.88-15.93,8-20.41,7.7-16.64-4.48-27.92-3.94-24.52-2.33-21.3-9.31,27.79-4.83,35.28-11.28,14.25-7.3,14.25-7.3S380,664.88,398.47,658.44Z"/><polygon class="cls-59" points="336.55 313.66 309.55 273.55 333.06 260.48 356.31 301.57 336.55 313.66"/><polygon class="cls-60" points="336.36 310.07 312.99 275.36 333.34 264.05 353.46 299.61 336.36 310.07"/><path class="cls-61" d="M355.92,318.6s-4.89-2.41-2-8.26.87-7.81.87-7.81l-22,13.38s6.84,10.42,9.42,11.36S357.82,322.58,355.92,318.6Z"/><path class="cls-61" d="M332.85,315.91s-9.36-9.49-10.16-10.78-4.64-7.07-6-10.3,6.47-.74,8.14,2.67a13.09,13.09,0,0,0,5,5.69c1.47,1,11.05,3.78,12.33,7.06S332.85,315.91,332.85,315.91Z"/><path class="cls-61" d="M350.28,291.18s-1.23,3.28-2.53,1.39-1.68-7.94,1.16-7.15S350.28,291.18,350.28,291.18Z"/><path class="cls-61" d="M346.69,285.18s-.92,4.09-2.57,2.48c-1.24-1.21-1.65-9,1.2-8.24S346.69,285.18,346.69,285.18Z"/><path class="cls-61" d="M414.25,322.75s-8.78-6.3-12.57-9.45-14-8.37-14.76-9.3-31.63-8.43-33.24-10.4-4.42,3.16,3.36,6.38,18.28,9.55,18.33,12.83-9,2.43-10.38,4.88-.11,2.06,1.08,2.85,11.44-2.72,15.29-.52,10.49,1.28,13.45,2.92,17.35,9.52,17.35,9.52Z"/><path class="cls-62" d="M395.72,326.44l-4.61-2.71s8.74-13.37,11.36-12.54a68.64,68.64,0,0,1,6.72,2.67Z"/><path class="cls-63" d="M394.15,328.74c.72-.36,14-17.55,14-17.55l20.59,6.63-15.4,20.4Z"/><path class="cls-64" d="M509.81,459s2.17,33.58-14.47,39.75H365.13S398.6,643.84,398.6,646.25L377,652.17S317.73,528,314.92,521.29c-3.49-8.33-3.22-30.34,7-38.66s75.71-31.87,88.6-32.72S509.81,459,509.81,459Z"/><path class="cls-61" d="M484.24,276s-.48,8.66-.72,19.8-30.3,3.79-30.3,3.79,1.36-12-2.1-15.86S484.24,276,484.24,276Z"/><path class="cls-61" d="M440.15,230.47c-.71,4.65-9.84,10.38-3.4,37.59s17,23.8,25.24,22,22.91-6.62,28.46-28.28-3.58-33.77-10-41.46S440.15,230.47,440.15,230.47Z"/><path class="cls-65" d="M523.4,311.87s-10.5,55.76-6.62,73.36c-.33,7.17-2.4,20.35-2.7,24.59-.81,11.27-2.37,48.1-2.37,48.1-33,19.6-100.31-6.13-101.21-8-2-4.08,16.37-31.72,16.37-39.5s-10.35-39.07-10.35-39.07-18.07,25.41-28.63,30.42-46-67.48-46-67.48L361.4,320s23.8,34.19,24.7,35.27,24.52-25.06,27.56-30.25,39.56-25.42,39.56-25.42,27.35-4.33,30.3-3.79S521,310.52,523.4,311.87Z"/><path class="cls-66" d="M420.43,514.57s24.16,117.06,27.65,117.87,22.29-1.35,22.29-1.35,3.22-64.16,1.88-78.66-1.61-42.15-1.61-42.15Z"/><path class="cls-62" d="M359.78,321.15l-3.19-4.75s-17,9.43-16.29,11.7a20.68,20.68,0,0,0,3,5.15Z"/><path class="cls-67" d="M434.87,245s-2.36-.39-3.91-3.49S425.3,215.08,454.83,214c22.22-.81,24.66-1.91,32.58,5.91,8.95,8.83,6.52,41.6-3.17,56.06,0,0-17.72-2.9-25.06-16.24-2.21-4,1.33-16.87-6.86-15.21-6.09,1.23-5.64,16.62-5.64,16.62l-4,1.43S446.31,238.68,434.87,245Z"/><path class="cls-65" d="M523.4,311.87s26.3,21.18-8.73,76.79C498.92,413.67,523.4,311.87,523.4,311.87Z"/><rect class="cls-68" x="365.13" y="498.73" width="236.3" height="16.33"/><rect class="cls-69" x="365.13" y="515.07" width="15.06" height="181.86"/><rect class="cls-69" x="586.36" y="515.07" width="15.06" height="181.86"/><path class="cls-62" d="M453.22,299.56v-3.34s24.37-7.29,30.38-3.82l-.08,3.37Z"/><path class="cls-65" d="M410.5,449.91s46.17,33.62,77.14,25.69c21.71-5.56,24.07-17.68,24.07-17.68Z"/><polygon class="cls-70" points="386.1 355.23 372.81 368.04 380.62 347.54 386.1 355.23"/><g class="cls-71"><polygon class="cls-72" points="243.43 541.87 296.1 541.87 279.98 508.44 227.31 508.44 243.43 541.87"/></g><g class="cls-73"><polygon class="cls-74" points="218.79 541.87 231.34 541.87 215.22 508.44 202.67 508.44 218.79 541.87"/></g></g></g></svg>