<?xml version="1.0"?>
<svg xmlns="http://www.w3.org/2000/svg" viewBox="0 0 512 512" width="512" height="512"><g id="FLAT"><path d="M467.31372,35.31372,456,24,444.68628,35.31372A16.00013,16.00013,0,0,0,440,46.62744V256h32V46.62744A16.00013,16.00013,0,0,0,467.31372,35.31372Z" style="fill:#6e6e6e"/><path d="M472,256H440a28.94405,28.94405,0,0,0-16,25.88843V456a32,32,0,0,0,32,32h0a32,32,0,0,0,32-32V281.88843A28.94405,28.94405,0,0,0,472,256Z" style="fill:#353535"/><path d="M24,327.84685v27.16A12.99314,12.99314,0,0,0,36.99314,368h0a12.99313,12.99313,0,0,0,12.81635-10.85708l3.38822-20.32929A20.1216,20.1216,0,0,1,73.04556,320h1.83758a16,16,0,0,1,15.68929,12.86214L96,360h48l5.42757-27.13786A16,16,0,0,1,165.11686,320h1.93888A14.47214,14.47214,0,0,1,180,328v0a14.47214,14.47214,0,0,0,12.94426,8h8.58362A14.47212,14.47212,0,0,0,216,321.52788V254.47212A14.47212,14.47212,0,0,0,201.52788,240h-7.63934a16,16,0,0,0-14.31083,8.84458v0A12.94424,12.94424,0,0,1,168,256H95.84685A71.84685,71.84685,0,0,0,24,327.84685Z" style="fill:#6e6e6e"/><rect x="96" y="360" width="48" height="136" style="fill:#353535"/><path d="M184,114.5144V93.48547l-20.09082-4.81726c-2.8125-6.78711-3.8855-9.37646-6.69812-16.16382l10.83545-17.68212C160.01025,46.786,161.21423,47.99,153.178,39.95361l-17.6825,10.83545c-6.78723-2.8125-9.37658-3.8855-16.16369-6.69812L114.5144,23.99988c-11.3684,0-9.6604,0-21.0288.00012L88.66846,44.09082c-6.78736,2.8125-9.37671,3.8855-16.16394,6.698L54.82239,39.95337C46.78613,47.9895,47.99,46.78564,39.95374,54.82178L50.78918,72.50439c-2.81262,6.78711-3.88562,9.37659-6.69812,16.16382L24,93.48547v21.02881l20.09082,4.81726c2.8125,6.78711,3.8855,9.37659,6.69812,16.16382L39.95349,153.17749c8.03626,8.03638,6.83228,6.8324,14.86853,14.86865l17.6825-10.83545c6.78723,2.8125,9.37658,3.88562,16.16369,6.69812l4.81739,20.09107h21.0288l4.81714-20.09082,16.16382-6.69812,17.68225,10.83545L168.04626,153.178l-10.83544-17.68262c2.81262-6.78711,3.88562-9.37659,6.69812-16.16382Zm-80,13.48536a23.99988,23.99988,0,1,1,24-23.99988A23.99992,23.99992,0,0,1,104,127.99976Z" style="fill:#575757"/><rect x="448" y="288" width="16" height="168" style="fill:#575757"/><path d="M316.68629,236.68629l-8-8A16,16,0,0,1,304,217.37258V144l-39.15542,19.57771A16,16,0,0,0,256,177.88854V248.506a16,16,0,0,0,5.757,12.29154l36.17071,30.14226a16,16,0,0,1,5.74318,12.95763l-6.33876,152.13034A30.69439,30.69439,0,0,0,328,488H328a30.69439,30.69439,0,0,0,30.66779-31.97223l-6.33876-152.13034a16,16,0,0,1,5.74318-12.95763L394.243,260.79754A16,16,0,0,0,400,248.506V177.88854a16,16,0,0,0-8.84458-14.31083L352,144v73.37258a16,16,0,0,1-4.68629,11.31371l-8,8A16,16,0,0,1,316.68629,236.68629Z" style="fill:#6e6e6e"/><rect x="320" y="432" width="16" height="24" style="fill:#575757"/><path d="M318.9458,76.03076,281.74951,10.937,226.34326,66.34326l11.31348,11.31348,33.94409-33.94409C265.55151,135.3186,189.11035,208,96,208H16v16H96c99.0282,0,180.77954-75.36157,190.932-171.74438L305.0542,83.96924Z" style="fill:#3481c1"/></g></svg>
